{
.appVersion = "3241";
.formatVersion = 3;
DisplayStrings = (
" ĂẮẶẰẲẴȂĔḜȆĞḪĬȊŎȎȒŬȖ",
"Ww
Yy
Vv
Xx",
"/t_t t"
);
axes = (
{
name = Weight;
tag = wght;
},
{
name = "Optical size";
tag = opsz;
}
);
classes = (
{
automatic = 1;

glyphs = (
{
glyphname = .notdef;
layers = (
{
background = {
shapes = (
{
closed = 1;
nodes = (
(954,0,l),
(954,1600,l),
(140,1600,l),
(140,0,l)
);
},
{
closed = 1;
nodes = (
(541,705,l),
(826,76,l),
(256,76,l)
);
},
{
closed = 1;
nodes = (
(220,1411,l),
(497,801,l),
(220,191,l)
);
},
{
closed = 1;
nodes = (
(584,802,l),
(874,1440,l),
(874,163,l)
);
},
{
closed = 1;
nodes = (
(257,1524,l),
(824,1524,l),
(541,898,l)
);
}
);
};
layerId = "3B122060-26E0-4730-9241-82784E6CB359";
shapes = (
{
closed = 1;
nodes = (
(954,0,l),
(954,1600,l),
(140,1600,l),
(140,0,l)
);
},
{
closed = 1;
nodes = (
(541,705,l),
(826,76,l),
(256,76,l)
);
},
{
closed = 1;
nodes = (
(220,1411,l),
(497,801,l),
(220,191,l)
);
},
{
closed = 1;
nodes = (
(584,802,l),
(874,1440,l),
(874,163,l)
);
},
{
closed = 1;
nodes = (
(257,1524,l),
(824,1524,l),
(541,898,l)
);
}
);
width = 1094;
},
{
background = {
shapes = (
{
closed = 1;
nodes = (
(1570,0,l),
(1570,1600,l),
(80,1600,l),
(80,0,l)
);
},
{
closed = 1;
nodes = (
(826,566,l),
(1083,264,l),
(569,264,l)
);
},
{
closed = 1;
nodes = (
(380,1090,l),
(628,798,l),
(380,506,l)
);
},
{
closed = 1;
nodes = (
(1023,798,l),
(1270,1089,l),
(1270,507,l)
);
},
{
closed = 1;
nodes = (
(565,1336,l),
(1085,1336,l),
(825,1030,l)
);
}
);
};
layerId = "1DFA7D5B-2E97-4B89-827F-FB43F8066DC1";
shapes = (
{
closed = 1;
nodes = (
(1570,0,l),
(1570,1600,l),
(80,1600,l),
(80,0,l)
);
},
{
closed = 1;
nodes = (
(826,566,l),
(1083,264,l),
(569,264,l)
);
},
{
closed = 1;
nodes = (
(380,1090,l),
(628,798,l),
(380,506,l)
);
},
{
closed = 1;
nodes = (
(1023,798,l),
(1270,1089,l),
(1270,507,l)
);
},
{
closed = 1;
nodes = (
(565,1336,l),
(1085,1336,l),
(825,1030,l)
);
}
);
width = 1650;
},
{
background = {
shapes = (
{
closed = 1;
nodes = (
(380,0,l),
(380,492,l),
(324,1336,l),
(376,1336,l),
(462,472,l),
(584,0,l),
(906,0,l),
(1030,472,l),
(1114,1336,l),
(1168,1336,l),
(1110,492,l),
(1110,0,l),
(1410,0,l),
(1410,1600,l),
(930,1600,l),
(796,994,l),
(772,264,l),
(720,264,l),
(694,994,l),
(562,1600,l),
(80,1600,l),
(80,0,l)
);
}
);
};
layerId = "5013C991-8699-46CB-BB1C-82E334DBD38B";
shapes = (
{
closed = 1;
nodes = (
(1410,0,l),
(1410,1600,l),
(80,1600,l),
(80,0,l)
);
},
{
closed = 1;
nodes = (
(746,525,l),
(918,264,l),
(573,264,l)
);
},
{
closed = 1;
nodes = (
(380,1080,l),
(566,798,l),
(380,516,l)
);
},
{
closed = 1;
nodes = (
(925,798,l),
(1110,1078,l),
(1110,517,l)
);
},
{
closed = 1;
nodes = (
(571,1336,l),
(920,1336,l),
(746,1071,l)
);
}
);
width = 1490;
},
{
background = {
shapes = (
{
closed = 1;
nodes = (
(694,0,l),
(694,1600,l),
(120,1600,l),
(120,0,l)
);
},
{
closed = 1;
nodes = (
(407,739,l),
(636,40,l),
(178,40,l)
);
},
{
closed = 1;
nodes = (
(160,1494,l),
(386,804,l),
(160,114,l)
);
},
{
closed = 1;
nodes = (
(428,804,l),
(654,1494,l),
(654,114,l)
);
},
{
closed = 1;
nodes = (
(180,1560,l),
(634,1560,l),
(407,868,l)
);
}
);
};
layerId = "3D06B89B-468F-44E0-A3D7-A5BC6911123E";
shapes = (
{
closed = 1;
nodes = (
(694,0,l),
(694,1600,l),
(120,1600,l),
(120,0,l)
);
},
{
closed = 1;
nodes = (
(407,739,l),
(636,40,l),
(178,40,l)
);
},
{
closed = 1;
nodes = (
(160,1494,l),
(386,804,l),
(160,114,l)
);
},
{
closed = 1;
nodes = (
(428,804,l),
(654,1494,l),
(654,114,l)
);
},
{
closed = 1;
nodes = (
(180,1560,l),
(634,1560,l),
(407,868,l)
);
}
);
width = 814;
},
{
background = {
shapes = (
{
closed = 1;
nodes = (
(874,0,l),
(874,1600,l),
(110,1600,l),
(110,0,l)
);
},
{
closed = 1;
nodes = (
(492,657,l),
(716,96,l),
(268,96,l)
);
},
{
closed = 1;
nodes = (
(215,1350,l),
(435,800,l),
(215,249,l)
);
},
{
closed = 1;
nodes = (
(549,799,l),
(769,1350,l),
(769,249,l)
);
},
{
closed = 1;
nodes = (
(267,1504,l),
(717,1504,l),
(492,942,l)
);
}
);
};
layerId = "C9EB94EC-C68D-4931-B320-068DCAB9FADA";
shapes = (
{
closed = 1;
nodes = (
(874,0,l),
(874,1600,l),
(110,1600,l),
(110,0,l)
);
},
{
closed = 1;
nodes = (
(492,657,l),
(716,96,l),
(268,96,l)
);
},
{
closed = 1;
nodes = (
(215,1350,l),
(435,800,l),
(215,249,l)
);
},
{
closed = 1;
nodes = (
(549,799,l),
(769,1350,l),
(769,249,l)
);
},
{
closed = 1;
nodes = (
(267,1504,l),
(717,1504,l),
(492,942,l)
);
}
);
width = 984;
},
{
background = {
shapes = (
{
closed = 1;
nodes = (
(1108,0,l),
(1108,1600,l),
(125,1600,l),
(125,0,l)
);
},
{
closed = 1;
nodes = (
(617,642,l),
(900,123,l),
(334,123,l)
);
},
{
closed = 1;
nodes = (
(260,1297,l),
(540,783,l),
(260,271,l)
);
},
{
closed = 1;
nodes = (
(694,783,l),
(973,1295,l),
(973,273,l)
);
},
{
closed = 1;
nodes = (
(315,1477,l),
(919,1477,l),
(617,924,l)
);
}
);
};
layerId = "6F82CFD7-79D5-473B-9D61-BE5DF154BBF2";
shapes = (
{
closed = 1;
nodes = (
(1108,0,l),
(1108,1600,l),
(125,1600,l),
(125,0,l)
);
},
{
closed = 1;
nodes = (
(617,642,l),
(900,123,l),
(334,123,l)
);
},
{
closed = 1;
nodes = (
(260,1297,l),
(540,783,l),
(260,271,l)
);
},
{
closed = 1;
nodes = (
(694,783,l),
(973,1295,l),
(973,273,l)
);
},
{
closed = 1;
nodes = (
(315,1477,l),
(919,1477,l),
(617,924,l)
);
}
);
width = 1233;
}
);
},
{
glyphname = A;
kernLeft = A;
kernRight = A;
layers = (
{
anchors = (
{
name = bottom;
pos = (320,0);
},
{
name = ogonek;
pos = (536,0);
},
{
name = top;
pos = (320,1600);
}
);
background = {
anchors = (
{
name = bottom;
pos = (320,0);
},
{
name = ogonek;
pos = (536,0);
},
{
name = top;
pos = (320,1600);
}
);
shapes = (
{
closed = 1;
nodes = (
(146,0,l),
(190,518,l),
(450,518,l),
(494,0,l),
(576,0,l),
(432,1600,l),
(208,1600,l),
(64,0,l)
);
},
{
closed = 1;
nodes = (
(224,922,l),
(280,1524,l),
(360,1524,l),
(416,924,l),
(444,594,l),
(196,594,l)
);
}
);
};
layerId = "3B122060-26E0-4730-9241-82784E6CB359";
shapes = (
{
closed = 1;
nodes = (
(146,0,l),
(190,518,l),
(450,518,l),
(494,0,l),
(576,0,l),
(432,1600,l),
(208,1600,l),
(64,0,l)
);
},
{
closed = 1;
nodes = (
(224,922,l),
(280,1524,l),
(360,1524,l),
(416,924,l),
(444,594,l),
(196,594,l)
);
}
);
width = 640;
},
{
anchors = (
{
name = bottom;
pos = (514,0);
},
{
name = ogonek;
pos = (762,0);
},
{
name = top;
pos = (514,1600);
}
);
background = {
anchors = (
{
name = bottom;
pos = (514,0);
},
{
name = ogonek;
pos = (762,0);
},
{
name = top;
pos = (514,1600);
}
);
shapes = (
{
closed = 1;
nodes = (
(344,0,l),
(378,334,l),
(650,334,l),
(684,0,l),
(992,0,l),
(770,1600,l),
(258,1600,l),
(36,0,l)
);
},
{
closed = 1;
nodes = (
(442,952,l),
(466,1336,l),
(562,1336,l),
(586,952,l),
(622,598,l),
(406,598,l)
);
}
);
};
layerId = "1DFA7D5B-2E97-4B89-827F-FB43F8066DC1";
shapes = (
{
closed = 1;
nodes = (
(344,0,l),
(378,334,l),
(650,334,l),
(684,0,l),
(992,0,l),
(770,1600,l),
(258,1600,l),
(36,0,l)
);
},
{
closed = 1;
nodes = (
(442,952,l),
(466,1336,l),
(562,1336,l),
(586,952,l),
(622,598,l),
(406,598,l)
);
}
);
width = 1028;
},
{
anchors = (
{
name = bottom;
pos = (478,0);
},
{
name = ogonek;
pos = (704,0);
},
{
name = top;
pos = (478,1600);
}
);
layerId = "5013C991-8699-46CB-BB1C-82E334DBD38B";
shapes = (
{
closed = 1;
nodes = (
(328,0,l),
(362,334,l),
(594,334,l),
(628,0,l),
(936,0,l),
(714,1600,l),
(242,1600,l),
(20,0,l)
);
},
{
closed = 1;
nodes = (
(426,952,l),
(450,1336,l),
(506,1336,l),
(530,952,l),
(566,598,l),
(390,598,l)
);
}
);
width = 956;
},
{
anchors = (
{
name = bottom;
pos = (266,0);
},
{
name = ogonek;
pos = (448,2);
},
{
name = top;
pos = (266,1600);
}
);
background = {
anchors = (
{
name = bottom;
pos = (266,0);
},
{
name = ogonek;
pos = (448,2);
},
{
name = top;
pos = (266,1600);
}
);
shapes = (
{
closed = 1;
nodes = (
(100,0,l),
(146,536,l),
(382,536,l),
(428,0,l),
(468,0,l),
(326,1600,l),
(202,1600,l),
(60,0,l)
);
},
{
closed = 1;
nodes = (
(180,922,l),
(236,1560,l),
(292,1560,l),
(348,924,l),
(378,576,l),
(150,576,l)
);
}
);
};
layerId = "3D06B89B-468F-44E0-A3D7-A5BC6911123E";
shapes = (
{
closed = 1;
nodes = (
(100,0,l),
(146,536,l),
(382,536,l),
(428,0,l),
(468,0,l),
(326,1600,l),
(202,1600,l),
(60,0,l)
);
},
{
closed = 1;
nodes = (
(180,922,l),
(236,1560,l),
(292,1560,l),
(348,924,l),
(378,576,l),
(150,576,l)
);
}
);
width = 528;
},
{
anchors = (
{
name = bottom;
pos = (317,0);
},
{
name = ogonek;
pos = (510,2);
},
{
name = top;
pos = (317,1600);
}
);
background = {
anchors = (
{
name = bottom;
pos = (317,0);
},
{
name = ogonek;
pos = (510,2);
},
{
name = top;
pos = (317,1600);
}
);
shapes = (
{
closed = 1;
nodes = (
(155,0,l),
(198,486,l),
(433,486,l),
(476,0,l),
(583,0,l),
(421,1600,l),
(210,1600,l),
(48,0,l)
);
},
{
closed = 1;
nodes = (
(240,930,l),
(288,1504,l),
(344,1504,l),
(392,931,l),
(423,582,l),
(208,582,l)
);
}
);
};
layerId = "C9EB94EC-C68D-4931-B320-068DCAB9FADA";
shapes = (
{
closed = 1;
nodes = (
(155,0,l),
(198,486,l),
(433,486,l),
(476,0,l),
(583,0,l),
(421,1600,l),
(210,1600,l),
(48,0,l)
);
},
{
closed = 1;
nodes = (
(240,930,l),
(288,1504,l),
(344,1504,l),
(392,931,l),
(423,582,l),
(208,582,l)
);
}
);
width = 631;
},
{
anchors = (
{
name = bottom;
pos = (368,0);
},
{
name = ogonek;
pos = (592,0);
},
{
name = top;
pos = (368,1600);
}
);
background = {
anchors = (
{
name = bottom;
pos = (368,0);
},
{
name = ogonek;
pos = (592,0);
},
{
name = top;
pos = (368,1600);
}
);
shapes = (
{
closed = 1;
nodes = (
(195,0,l),
(236,472,l),
(499,472,l),
(541,0,l),
(679,0,l),
(516,1600,l),
(220,1600,l),
(56,0,l)
);
},
{
closed = 1;
nodes = (
(278,930,l),
(326,1477,l),
(410,1477,l),
(458,931,l),
(488,595,l),
(248,595,l)
);
}
);
};
layerId = "6F82CFD7-79D5-473B-9D61-BE5DF154BBF2";
shapes = (
{
closed = 1;
nodes = (
(195,0,l),
(236,472,l),
(499,472,l),
(541,0,l),
(679,0,l),
(516,1600,l),
(220,1600,l),
(56,0,l)
);
},
{
closed = 1;
nodes = (
(278,930,l),
(326,1477,l),
(410,1477,l),
(458,931,l),
(488,595,l),
(248,595,l)
);
}
);
width = 735;
}
);
unicode = 65;
},
{
glyphname = AE;
kernLeft = A;
kernRight = E;
layers = (
{
anchors = (
{
name = bottom;
pos = (458,0);
},
{
name = ogonek;
pos = (852,0);
},
{
name = top;
pos = (542,1600);
},
{
name = topleft;
pos = (211,1847);
}
);
background = {
anchors = (
{
name = bottom;
pos = (458,0);
},
{
name = ogonek;
pos = (852,0);
},
{
name = top;
pos = (542,1600);
},
{
name = topleft;
pos = (211,1847);
}
);
shapes = (
{
closed = 1;
nodes = (
(148,0,l),
(232,504,l),
(474,504,l),
(474,0,l),
(892,0,l),
(892,76,l),
(554,76,l),
(554,762,l),
(872,762,l),
(872,838,l),
(554,838,l),
(554,1524,l),
(892,1524,l),
(892,1600,l),
(332,1600,l),
(64,0,l)
);
},
{
closed = 1;
nodes = (
(302,914,l),
(398,1526,l),
(474,1526,l),
(474,580,l),
(246,580,l)
);
}
);
};
layerId = "3B122060-26E0-4730-9241-82784E6CB359";
shapes = (
{
closed = 1;
nodes = (
(148,0,l),
(232,504,l),
(474,504,l),
(474,0,l),
(892,0,l),
(892,76,l),
(554,76,l),
(554,762,l),
(872,762,l),
(872,838,l),
(554,838,l),
(554,1524,l),
(892,1524,l),
(892,1600,l),
(332,1600,l),
(64,0,l)
);
},
{
closed = 1;
nodes = (
(302,914,l),
(398,1526,l),
(474,1526,l),
(474,580,l),
(246,580,l)
);
}
);
width = 962;
},
{
anchors = (
{
name = bottom;
pos = (758,0);
},
{
name = ogonek;
pos = (1158,0);
},
{
name = top;
pos = (858,1600);
},
{
name = topleft;
pos = (688,1600);
}
);
background = {
anchors = (
{
name = bottom;
pos = (758,0);
},
{
name = ogonek;
pos = (1158,0);
},
{
name = top;
pos = (858,1600);
},
{
name = topleft;
pos = (688,1600);
}
);
shapes = (
{
closed = 1;
nodes = (
(364,0,l),
(436,334,l),
(688,334,l),
(688,0,l),
(1420,0,l),
(1420,264,l),
(988,264,l),
(988,682,l),
(1400,682,l),
(1400,946,l),
(988,946,l),
(988,1336,l),
(1420,1336,l),
(1420,1600,l),
(368,1600,l),
(36,0,l)
);
},
{
closed = 1;
nodes = (
(552,872,l),
(596,1336,l),
(688,1336,l),
(688,598,l),
(492,598,l)
);
}
);
};
layerId = "1DFA7D5B-2E97-4B89-827F-FB43F8066DC1";
shapes = (
{
closed = 1;
nodes = (
(364,0,l),
(436,334,l),
(688,334,l),
(688,0,l),
(1420,0,l),
(1420,264,l),
(988,264,l),
(988,682,l),
(1400,682,l),
(1400,946,l),
(988,946,l),
(988,1336,l),
(1420,1336,l),
(1420,1600,l),
(368,1600,l),
(36,0,l)
);
},
{
closed = 1;
nodes = (
(552,872,l),
(596,1336,l),
(688,1336,l),
(688,598,l),
(492,598,l)
);
}
);
width = 1476;
},
{
anchors = (
{
name = bottom;
pos = (702,0);
},
{
name = ogonek;
pos = (1090,0);
},
{
name = top;
pos = (802,1600);
},
{
name = topleft;
pos = (592,1600);
}
);
layerId = "5013C991-8699-46CB-BB1C-82E334DBD38B";
shapes = (
{
closed = 1;
nodes = (
(348,0,l),
(420,334,l),
(632,334,l),
(632,0,l),
(1324,0,l),
(1324,264,l),
(932,264,l),
(932,682,l),
(1304,682,l),
(1304,946,l),
(932,946,l),
(932,1336,l),
(1324,1336,l),
(1324,1600,l),
(352,1600,l),
(20,0,l)
);
},
{
closed = 1;
nodes = (
(536,872,l),
(580,1336,l),
(632,1336,l),
(632,598,l),
(476,598,l)
);
}
);
width = 1368;
},
{
anchors = (
{
name = bottom;
pos = (340,0);
},
{
name = ogonek;
pos = (574,0);
},
{
name = top;
pos = (410,1600);
},
{
name = topleft;
pos = (316,1600);
}
);
background = {
anchors = (
{
name = bottom;
pos = (340,0);
},
{
name = ogonek;
pos = (574,0);
},
{
name = top;
pos = (410,1600);
},
{
name = topleft;
pos = (316,1600);
}
);
shapes = (
{
closed = 1;
nodes = (
(100,0,l),
(174,536,l),
(356,536,l),
(356,0,l),
(674,0,l),
(674,40,l),
(396,40,l),
(396,780,l),
(654,780,l),
(654,820,l),
(396,820,l),
(396,1560,l),
(674,1560,l),
(674,1600,l),
(282,1600,l),
(60,0,l)
);
},
{
closed = 1;
nodes = (
(226,922,l),
(316,1560,l),
(356,1560,l),
(356,576,l),
(178,576,l)
);
}
);
};
layerId = "3D06B89B-468F-44E0-A3D7-A5BC6911123E";
shapes = (
{
closed = 1;
nodes = (
(100,0,l),
(174,536,l),
(356,536,l),
(356,0,l),
(674,0,l),
(674,40,l),
(396,40,l),
(396,780,l),
(654,780,l),
(654,820,l),
(396,820,l),
(396,1560,l),
(674,1560,l),
(674,1600,l),
(282,1600,l),
(60,0,l)
);
},
{
closed = 1;
nodes = (
(226,922,l),
(316,1560,l),
(356,1560,l),
(356,576,l),
(178,576,l)
);
}
);
width = 724;
},
{
anchors = (
{
name = bottom;
pos = (429,0);
},
{
name = ogonek;
pos = (701,0);
},
{
name = top;
pos = (506,1600);
},
{
name = topleft;
pos = (383,1600);
}
);
background = {
anchors = (
{
name = bottom;
pos = (429,0);
},
{
name = ogonek;
pos = (701,0);
},
{
name = top;
pos = (506,1600);
},
{
name = topleft;
pos = (383,1600);
}
);
shapes = (
{
closed = 1;
nodes = (
(160,0,l),
(234,486,l),
(423,486,l),
(423,0,l),
(835,0,l),
(835,96,l),
(528,96,l),
(528,756,l),
(815,756,l),
(815,852,l),
(528,852,l),
(528,1504,l),
(835,1504,l),
(835,1600,l),
(298,1600,l),
(48,0,l)
);
},
{
closed = 1;
nodes = (
(302,910,l),
(380,1504,l),
(423,1504,l),
(423,582,l),
(251,582,l)
);
}
);
};
layerId = "C9EB94EC-C68D-4931-B320-068DCAB9FADA";
shapes = (
{
closed = 1;
nodes = (
(160,0,l),
(234,486,l),
(423,486,l),
(423,0,l),
(835,0,l),
(835,96,l),
(528,96,l),
(528,756,l),
(815,756,l),
(815,852,l),
(528,852,l),
(528,1504,l),
(835,1504,l),
(835,1600,l),
(298,1600,l),
(48,0,l)
);
},
{
closed = 1;
nodes = (
(302,910,l),
(380,1504,l),
(423,1504,l),
(423,582,l),
(251,582,l)
);
}
);
width = 881;
},
{
anchors = (
{
name = bottom;
pos = (532,0);
},
{
name = ogonek;
pos = (928,0);
},
{
name = top;
pos = (620,1600);
},
{
name = topleft;
pos = (542,1600);
}
);
background = {
anchors = (
{
name = bottom;
pos = (532,0);
},
{
name = ogonek;
pos = (928,0);
},
{
name = top;
pos = (620,1600);
},
{
name = topleft;
pos = (542,1600);
}
);
shapes = (
{
closed = 1;
nodes = (
(201,0,l),
(282,462,l),
(527,462,l),
(527,0,l),
(1023,0,l),
(1023,123,l),
(662,123,l),
(662,742,l),
(1003,742,l),
(1003,865,l),
(662,865,l),
(662,1477,l),
(1023,1477,l),
(1023,1600,l),
(340,1600,l),
(56,0,l)
);
},
{
closed = 1;
nodes = (
(364,904,l),
(447,1479,l),
(527,1479,l),
(527,585,l),
(307,585,l)
);
}
);
};
layerId = "6F82CFD7-79D5-473B-9D61-BE5DF154BBF2";
shapes = (
{
closed = 1;
nodes = (
(201,0,l),
(282,462,l),
(527,462,l),
(527,0,l),
(1023,0,l),
(1023,123,l),
(662,123,l),
(662,742,l),
(1003,742,l),
(1003,865,l),
(662,865,l),
(662,1477,l),
(1023,1477,l),
(1023,1600,l),
(340,1600,l),
(56,0,l)
);
},
{
closed = 1;
nodes = (
(364,904,l),
(447,1479,l),
(527,1479,l),
(527,585,l),
(307,585,l)
);
}
);
width = 1079;
}
);
metricLeft = A;
metricRight = E;
unicode = 198;
},
{
glyphname = B;
kernLeft = H;
kernRight = B;
layers = (
{
background = {
shapes = (
{
closed = 1;
nodes = (
(386,0,ls),
(548,0,o),
(614,56,o),
(618,196,cs),
(622,352,o),
(624,466,o),
(618,624,cs),
(614,718,o),
(578,770,o),
(490,790,c),
(490,810,l),
(574,828,o),
(606,880,o),
(610,976,cs),
(614,1102,o),
(612,1218,o),
(610,1404,cs),
(608,1544,o),
(542,1600,o),
(378,1600,cs),
(140,1600,l),
(140,0,l)
);
},
{
closed = 1;
nodes = (
(220,760,l),
(394,760,ls),
(502,760,o),
(534,730,o),
(538,624,cs),
(544,468,o),
(544,352,o),
(538,196,cs),
(534,104,o),
(504,80,o),
(386,80,cs),
(220,80,l)
);
},
{
closed = 1;
nodes = (
(220,1524,l),
(378,1524,ls),
(496,1524,o),
(528,1498,o),
(530,1404,cs),
(534,1248,o),
(536,1132,o),
(530,976,cs),
(526,870,o),
(502,840,o),
(402,840,cs),
(220,840,l)
);
}
);
};
layerId = "3B122060-26E0-4730-9241-82784E6CB359";
shapes = (
{
closed = 1;
nodes = (
(386,0,ls),
(548,0,o),
(614,56,o),
(618,196,cs),
(622,352,o),
(624,466,o),
(618,624,cs),
(614,718,o),
(578,770,o),
(490,790,c),
(490,810,l),
(574,828,o),
(606,880,o),
(610,976,cs),
(614,1102,o),
(612,1218,o),
(610,1404,cs),
(608,1544,o),
(542,1600,o),
(378,1600,cs),
(140,1600,l),
(140,0,l)
);
},
{
closed = 1;
nodes = (
(220,760,l),
(394,760,ls),
(502,760,o),
(534,730,o),
(538,624,cs),
(544,468,o),
(544,352,o),
(538,196,cs),
(534,104,o),
(504,80,o),
(386,80,cs),
(220,80,l)
);
},
{
closed = 1;
nodes = (
(220,1524,l),
(378,1524,ls),
(496,1524,o),
(528,1498,o),
(530,1404,cs),
(534,1248,o),
(536,1132,o),
(530,976,cs),
(526,870,o),
(502,840,o),
(402,840,cs),
(220,840,l)
);
}
);
width = 734;
},
{
background = {
shapes = (
{
closed = 1;
nodes = (
(510,0,ls),
(808,0,o),
(928,112,o),
(940,390,cs),
(942,436,o),
(942,470,o),
(940,514,cs),
(934,664,o),
(880,748,o),
(758,788,c),
(758,836,l),
(876,876,o),
(928,958,o),
(938,1104,cs),
(940,1138,o),
(940,1172,o),
(940,1210,cs),
(940,1488,o),
(808,1600,o),
(510,1600,cs),
(100,1600,l),
(100,0,l)
);
},
{
closed = 1;
nodes = (
(400,682,l),
(510,682,ls),
(602,682,o),
(640,632,o),
(640,500,cs),
(640,464,o),
(640,430,o),
(640,394,cs),
(640,310,o),
(594,264,o),
(510,264,cs),
(400,264,l)
);
},
{
closed = 1;
nodes = (
(400,1336,l),
(510,1336,ls),
(594,1336,o),
(640,1296,o),
(640,1226,cs),
(640,1188,o),
(640,1150,o),
(640,1112,cs),
(640,1006,o),
(594,946,o),
(510,946,cs),
(400,946,l)
);
}
);
};
layerId = "1DFA7D5B-2E97-4B89-827F-FB43F8066DC1";
shapes = (
{
closed = 1;
nodes = (
(510,0,ls),
(808,0,o),
(928,112,o),
(940,390,cs),
(942,436,o),
(942,470,o),
(940,514,cs),
(934,664,o),
(880,748,o),
(758,788,c),
(758,836,l),
(876,876,o),
(928,958,o),
(938,1104,cs),
(940,1138,o),
(940,1172,o),
(940,1210,cs),
(940,1488,o),
(808,1600,o),
(510,1600,cs),
(100,1600,l),
(100,0,l)
);
},
{
closed = 1;
nodes = (
(400,682,l),
(510,682,ls),
(602,682,o),
(640,632,o),
(640,500,cs),
(640,464,o),
(640,430,o),
(640,394,cs),
(640,310,o),
(594,264,o),
(510,264,cs),
(400,264,l)
);
},
{
closed = 1;
nodes = (
(400,1336,l),
(510,1336,ls),
(594,1336,o),
(640,1296,o),
(640,1226,cs),
(640,1188,o),
(640,1150,o),
(640,1112,cs),
(640,1006,o),
(594,946,o),
(510,946,cs),
(400,946,l)
);
}
);
width = 1007;
},
{
layerId = "5013C991-8699-46CB-BB1C-82E334DBD38B";
shapes = (
{
closed = 1;
nodes = (
(450,0,ls),
(748,0,o),
(868,112,o),
(880,390,cs),
(882,436,o),
(882,470,o),
(880,514,cs),
(874,664,o),
(820,748,o),
(698,788,c),
(698,836,l),
(816,876,o),
(868,958,o),
(878,1104,cs),
(880,1138,o),
(880,1172,o),
(880,1210,cs),
(880,1488,o),
(748,1600,o),
(450,1600,cs),
(80,1600,l),
(80,0,l)
);
},
{
closed = 1;
nodes = (
(380,682,l),
(450,682,ls),
(542,682,o),
(580,632,o),
(580,500,cs),
(580,464,o),
(580,430,o),
(580,394,cs),
(580,310,o),
(534,264,o),
(450,264,cs),
(380,264,l)
);
},
{
closed = 1;
nodes = (
(380,1336,l),
(450,1336,ls),
(534,1336,o),
(580,1296,o),
(580,1226,cs),
(580,1188,o),
(580,1150,o),
(580,1112,cs),
(580,1006,o),
(534,946,o),
(450,946,cs),
(380,946,l)
);
}
);
width = 945;
},
{
background = {
shapes = (
{
closed = 1;
nodes = (
(286,0,ls),
(404,0,o),
(454,54,o),
(458,186,cs),
(462,342,o),
(462,466,o),
(458,624,cs),
(456,714,o),
(430,764,o),
(370,784,c),
(370,814,l),
(428,836,o),
(454,884,o),
(456,976,cs),
(460,1102,o),
(460,1228,o),
(456,1414,cs),
(452,1546,o),
(402,1600,o),
(284,1600,cs),
(120,1600,l),
(120,0,l)
);
},
{
closed = 1;
nodes = (
(160,780,l),
(274,780,ls),
(372,780,o),
(414,736,o),
(418,624,cs),
(424,468,o),
(424,342,o),
(418,186,cs),
(414,82,o),
(376,40,o),
(286,40,cs),
(160,40,l)
);
},
{
closed = 1;
nodes = (
(160,1560,l),
(284,1560,ls),
(374,1560,o),
(412,1518,o),
(416,1414,cs),
(422,1258,o),
(422,1132,o),
(416,976,cs),
(412,864,o),
(374,820,o),
(282,820,cs),
(160,820,l)
);
}
);
};
layerId = "3D06B89B-468F-44E0-A3D7-A5BC6911123E";
shapes = (
{
closed = 1;
nodes = (
(286,0,ls),
(404,0,o),
(454,54,o),
(458,186,cs),
(462,342,o),
(462,466,o),
(458,624,cs),
(456,714,o),
(430,764,o),
(370,784,c),
(370,814,l),
(428,836,o),
(454,884,o),
(456,976,cs),
(460,1102,o),
(460,1228,o),
(456,1414,cs),
(452,1546,o),
(402,1600,o),
(284,1600,cs),
(120,1600,l),
(120,0,l)
);
},
{
closed = 1;
nodes = (
(160,780,l),
(274,780,ls),
(372,780,o),
(414,736,o),
(418,624,cs),
(424,468,o),
(424,342,o),
(418,186,cs),
(414,82,o),
(376,40,o),
(286,40,cs),
(160,40,l)
);
},
{
closed = 1;
nodes = (
(160,1560,l),
(284,1560,ls),
(374,1560,o),
(412,1518,o),
(416,1414,cs),
(422,1258,o),
(422,1132,o),
(416,976,cs),
(412,864,o),
(374,820,o),
(282,820,cs),
(160,820,l)
);
}
);
width = 559;
},
{
background = {
shapes = (
{
closed = 1;
nodes = (
(327,0,ls),
(490,0,o),
(558,69,o),
(564,237,cs),
(567,366,o),
(567,467,o),
(564,597,cs),
(561,702,o),
(528,760,o),
(452,785,c),
(452,820,l),
(525,846,o),
(558,903,o),
(562,1008,cs),
(565,1111,o),
(565,1214,o),
(562,1363,cs),
(559,1532,o),
(489,1600,o),
(326,1600,cs),
(110,1600,l),
(110,0,l)
);
},
{
closed = 1;
nodes = (
(215,756,l),
(318,756,ls),
(415,756,o),
(456,710,o),
(459,593,cs),
(463,467,o),
(463,364,o),
(459,238,cs),
(456,139,o),
(416,96,o),
(327,96,cs),
(215,96,l)
);
},
{
closed = 1;
nodes = (
(215,1504,l),
(326,1504,ls),
(414,1504,o),
(454,1463,o),
(457,1367,cs),
(462,1241,o),
(462,1137,o),
(457,1010,cs),
(454,900,o),
(414,852,o),
(324,852,cs),
(215,852,l)
);
}
);
};
layerId = "C9EB94EC-C68D-4931-B320-068DCAB9FADA";
shapes = (
{
closed = 1;
nodes = (
(327,0,ls),
(490,0,o),
(558,69,o),
(564,237,cs),
(567,366,o),
(567,467,o),
(564,597,cs),
(561,702,o),
(528,760,o),
(452,785,c),
(452,820,l),
(525,846,o),
(558,903,o),
(562,1008,cs),
(565,1111,o),
(565,1214,o),
(562,1363,cs),
(559,1532,o),
(489,1600,o),
(326,1600,cs),
(110,1600,l),
(110,0,l)
);
},
{
closed = 1;
nodes = (
(215,756,l),
(318,756,ls),
(415,756,o),
(456,710,o),
(459,593,cs),
(463,467,o),
(463,364,o),
(459,238,cs),
(456,139,o),
(416,96,o),
(327,96,cs),
(215,96,l)
);
},
{
closed = 1;
nodes = (
(215,1504,l),
(326,1504,ls),
(414,1504,o),
(454,1463,o),
(457,1367,cs),
(462,1241,o),
(462,1137,o),
(457,1010,cs),
(454,900,o),
(414,852,o),
(324,852,cs),
(215,852,l)
);
}
);
width = 651;
},
{
background = {
shapes = (
{
closed = 1;
nodes = (
(412,0,ls),
(608,0,o),
(688,70,o),
(694,245,cs),
(697,373,o),
(699,467,o),
(694,597,cs),
(689,705,o),
(649,765,o),
(552,790,c),
(552,817,l),
(645,840,o),
(682,900,o),
(687,1008,cs),
(691,1111,o),
(689,1207,o),
(688,1356,cs),
(686,1530,o),
(604,1600,o),
(406,1600,cs),
(125,1600,l),
(125,0,l)
);
},
{
closed = 1;
nodes = (
(260,741,l),
(418,741,ls),
(522,741,o),
(556,706,o),
(559,593,cs),
(563,467,o),
(563,372,o),
(559,246,cs),
(556,156,o),
(522,126,o),
(412,126,cs),
(260,126,l)
);
},
{
closed = 1;
nodes = (
(260,1477,l),
(406,1477,ls),
(516,1477,o),
(551,1448,o),
(553,1360,cs),
(556,1233,o),
(557,1137,o),
(553,1010,cs),
(550,904,o),
(520,867,o),
(424,867,cs),
(260,867,l)
);
}
);
};
layerId = "6F82CFD7-79D5-473B-9D61-BE5DF154BBF2";
shapes = (
{
closed = 1;
nodes = (
(412,0,ls),
(608,0,o),
(688,70,o),
(694,245,cs),
(697,373,o),
(699,467,o),
(694,597,cs),
(689,705,o),
(649,765,o),
(552,790,c),
(552,817,l),
(645,840,o),
(682,900,o),
(687,1008,cs),
(691,1111,o),
(689,1207,o),
(688,1356,cs),
(686,1530,o),
(604,1600,o),
(406,1600,cs),
(125,1600,l),
(125,0,l)
);
},
{
closed = 1;
nodes = (
(260,741,l),
(418,741,ls),
(522,741,o),
(556,706,o),
(559,593,cs),
(563,467,o),
(563,372,o),
(559,246,cs),
(556,156,o),
(522,126,o),
(412,126,cs),
(260,126,l)
);
},
{
closed = 1;
nodes = (
(260,1477,l),
(406,1477,ls),
(516,1477,o),
(551,1448,o),
(553,1360,cs),
(556,1233,o),
(557,1137,o),
(553,1010,cs),
(550,904,o),
(520,867,o),
(424,867,cs),
(260,867,l)
);
}
);
width = 794;
}
);
metricLeft = H;
unicode = 66;
},
{
glyphname = C;
kernLeft = O;
kernRight = C;
layers = (
{
anchors = (
{
name = bottom;
pos = (352,0);
},
{
name = top;
pos = (352,1600);
}
);
background = {
anchors = (
{
name = bottom;
pos = (352,0);
},
{
name = top;
pos = (352,1600);
}
);
shapes = (
{
closed = 1;
nodes = (
(522,-12,o),
(598,46,o),
(606,194,cs),
(612,308,o),
(610,400,o),
(604,564,c),
(524,564,l),
(528,378,o),
(530,286,o),
(526,194,cs),
(522,92,o),
(478,64,o),
(352,64,cs),
(238,64,o),
(196,92,o),
(194,194,cs),
(184,686,o),
(184,912,o),
(194,1402,cs),
(196,1504,o),
(238,1532,o),
(350,1532,cs),
(472,1532,o),
(514,1504,o),
(518,1402,cs),
(522,1276,o),
(522,1194,o),
(518,1068,c),
(598,1068,l),
(604,1194,o),
(604,1276,o),
(598,1402,cs),
(590,1550,o),
(516,1608,o),
(350,1608,cs),
(190,1608,o),
(116,1550,o),
(114,1402,cs),
(108,958,o),
(108,640,o),
(114,194,cs),
(116,46,o),
(192,-12,o),
(352,-12,cs)
);
}
);
};
layerId = "3B122060-26E0-4730-9241-82784E6CB359";
shapes = (
{
closed = 1;
nodes = (
(522,-12,o),
(598,46,o),
(606,194,cs),
(612,308,o),
(610,400,o),
(604,564,c),
(524,564,l),
(528,378,o),
(530,286,o),
(526,194,cs),
(522,92,o),
(478,64,o),
(352,64,cs),
(238,64,o),
(196,92,o),
(194,194,cs),
(184,686,o),
(184,912,o),
(194,1402,cs),
(196,1504,o),
(238,1532,o),
(350,1532,cs),
(472,1532,o),
(514,1504,o),
(518,1402,cs),
(522,1276,o),
(522,1194,o),
(518,1068,c),
(598,1068,l),
(604,1194,o),
(604,1276,o),
(598,1402,cs),
(590,1550,o),
(516,1608,o),
(350,1608,cs),
(190,1608,o),
(116,1550,o),
(114,1402,cs),
(108,958,o),
(108,640,o),
(114,194,cs),
(116,46,o),
(192,-12,o),
(352,-12,cs)
);
}
);
width = 690;
},
{
anchors = (
{
name = bottom;
pos = (518,0);
},
{
name = top;
pos = (518,1600);
}
);
background = {
anchors = (
{
name = bottom;
pos = (518,0);
},
{
name = top;
pos = (518,1600);
}
);
shapes = (
{
closed = 1;
nodes = (
(836,-20,o),
(962,94,o),
(970,382,cs),
(972,446,o),
(972,536,o),
(970,600,c),
(670,600,l),
(674,510,o),
(674,452,o),
(670,366,cs),
(666,264,o),
(626,224,o),
(526,224,cs),
(428,224,o),
(386,264,o),
(384,366,cs),
(376,658,o),
(376,942,o),
(384,1236,cs),
(386,1336,o),
(428,1376,o),
(526,1376,cs),
(620,1376,o),
(660,1336,o),
(662,1236,cs),
(664,1162,o),
(662,1074,o),
(660,1000,c),
(960,1000,l),
(962,1066,o),
(964,1154,o),
(962,1220,cs),
(954,1492,o),
(820,1620,o),
(526,1620,cs),
(224,1620,o),
(88,1498,o),
(84,1222,cs),
(78,920,o),
(78,680,o),
(84,382,cs),
(90,94,o),
(216,-20,o),
(526,-20,cs)
);
}
);
};
layerId = "1DFA7D5B-2E97-4B89-827F-FB43F8066DC1";
shapes = (
{
closed = 1;
nodes = (
(836,-20,o),
(962,94,o),
(970,382,cs),
(972,446,o),
(972,536,o),
(970,600,c),
(670,600,l),
(674,510,o),
(674,452,o),
(670,366,cs),
(666,264,o),
(626,224,o),
(526,224,cs),
(428,224,o),
(386,264,o),
(384,366,cs),
(376,658,o),
(376,942,o),
(384,1236,cs),
(386,1336,o),
(428,1376,o),
(526,1376,cs),
(620,1376,o),
(660,1336,o),
(662,1236,cs),
(664,1162,o),
(662,1074,o),
(660,1000,c),
(960,1000,l),
(962,1066,o),
(964,1154,o),
(962,1220,cs),
(954,1492,o),
(820,1620,o),
(526,1620,cs),
(224,1620,o),
(88,1498,o),
(84,1222,cs),
(78,920,o),
(78,680,o),
(84,382,cs),
(90,94,o),
(216,-20,o),
(526,-20,cs)
);
}
);
width = 1033;
},
{
anchors = (
{
name = bottom;
pos = (487,0);
},
{
name = top;
pos = (487,1600);
}
);
layerId = "5013C991-8699-46CB-BB1C-82E334DBD38B";
shapes = (
{
closed = 1;
nodes = (
(789,-20,o),
(911,94,o),
(919,382,cs),
(921,446,o),
(921,536,o),
(919,600,c),
(619,600,l),
(621,528,o),
(621,398,o),
(619,326,cs),
(617,260,o),
(573,224,o),
(495,224,cs),
(419,224,o),
(375,260,o),
(373,326,cs),
(363,604,o),
(363,996,o),
(373,1276,cs),
(375,1340,o),
(419,1376,o),
(495,1376,cs),
(567,1376,o),
(609,1340,o),
(611,1276,cs),
(613,1202,o),
(611,1074,o),
(609,1000,c),
(909,1000,l),
(911,1066,o),
(913,1154,o),
(911,1220,cs),
(903,1506,o),
(783,1620,o),
(495,1620,cs),
(201,1620,o),
(77,1466,o),
(73,1222,cs),
(69,996,o),
(69,604,o),
(73,382,cs),
(79,94,o),
(193,-20,o),
(495,-20,cs)
);
}
);
width = 980;
},
{
anchors = (
{
name = bottom;
pos = (274,0);
},
{
name = top;
pos = (274,1600);
}
);
background = {
anchors = (
{
name = bottom;
pos = (274,0);
},
{
name = top;
pos = (274,1600);
}
);
shapes = (
{
closed = 1;
nodes = (
(406,-12,o),
(458,42,o),
(462,174,cs),
(466,314,o),
(464,424,o),
(460,564,c),
(420,564,l),
(422,434,o),
(424,304,o),
(422,174,cs),
(420,66,o),
(384,28,o),
(278,28,cs),
(184,28,o),
(152,66,o),
(150,174,cs),
(142,636,o),
(142,962,o),
(150,1422,cs),
(152,1532,o),
(184,1568,o),
(276,1568,cs),
(378,1568,o),
(412,1532,o),
(414,1422,cs),
(416,1304,o),
(416,1186,o),
(414,1068,c),
(454,1068,l),
(456,1150,o),
(456,1340,o),
(454,1422,cs),
(450,1554,o),
(398,1608,o),
(276,1608,cs),
(160,1608,o),
(112,1556,o),
(110,1422,cs),
(102,962,o),
(102,636,o),
(110,174,cs),
(112,42,o),
(160,-12,o),
(278,-12,cs)
);
}
);
};
layerId = "3D06B89B-468F-44E0-A3D7-A5BC6911123E";
shapes = (
{
closed = 1;
nodes = (
(406,-12,o),
(458,42,o),
(462,174,cs),
(466,314,o),
(464,424,o),
(460,564,c),
(420,564,l),
(422,434,o),
(424,304,o),
(422,174,cs),
(420,66,o),
(384,28,o),
(278,28,cs),
(184,28,o),
(152,66,o),
(150,174,cs),
(142,636,o),
(142,962,o),
(150,1422,cs),
(152,1532,o),
(184,1568,o),
(276,1568,cs),
(378,1568,o),
(412,1532,o),
(414,1422,cs),
(416,1304,o),
(416,1186,o),
(414,1068,c),
(454,1068,l),
(456,1150,o),
(456,1340,o),
(454,1422,cs),
(450,1554,o),
(398,1608,o),
(276,1608,cs),
(160,1608,o),
(112,1556,o),
(110,1422,cs),
(102,962,o),
(102,636,o),
(110,174,cs),
(112,42,o),
(160,-12,o),
(278,-12,cs)
);
}
);
width = 548;
},
{
anchors = (
{
name = bottom;
pos = (327,0);
},
{
name = top;
pos = (327,1600);
}
);
background = {
anchors = (
{
name = bottom;
pos = (327,0);
},
{
name = top;
pos = (327,1600);
}
);
shapes = (
{
closed = 1;
nodes = (
(501,-14,o),
(571,55,o),
(576,226,cs),
(579,347,o),
(578,452,o),
(574,573,c),
(469,573,l),
(471,458,o),
(473,328,o),
(471,212,cs),
(469,115,o),
(431,77,o),
(332,77,cs),
(242,77,o),
(207,115,o),
(205,212,cs),
(197,628,o),
(197,971,o),
(205,1386,cs),
(207,1484,o),
(242,1520,o),
(330,1520,cs),
(425,1520,o),
(461,1484,o),
(463,1386,cs),
(465,1279,o),
(464,1158,o),
(462,1051,c),
(567,1051,l),
(569,1129,o),
(570,1294,o),
(568,1372,cs),
(563,1542,o),
(494,1611,o),
(330,1611,cs),
(170,1611,o),
(103,1534,o),
(100,1372,cs),
(93,971,o),
(93,628,o),
(100,226,cs),
(103,55,o),
(168,-14,o),
(332,-14,cs)
);
}
);
};
layerId = "C9EB94EC-C68D-4931-B320-068DCAB9FADA";
shapes = (
{
closed = 1;
nodes = (
(501,-14,o),
(571,55,o),
(576,226,cs),
(579,347,o),
(578,452,o),
(574,573,c),
(469,573,l),
(471,458,o),
(473,328,o),
(471,212,cs),
(469,115,o),
(431,77,o),
(332,77,cs),
(242,77,o),
(207,115,o),
(205,212,cs),
(197,628,o),
(197,971,o),
(205,1386,cs),
(207,1484,o),
(242,1520,o),
(330,1520,cs),
(425,1520,o),
(461,1484,o),
(463,1386,cs),
(465,1279,o),
(464,1158,o),
(462,1051,c),
(567,1051,l),
(569,1129,o),
(570,1294,o),
(568,1372,cs),
(563,1542,o),
(494,1611,o),
(330,1611,cs),
(170,1611,o),
(103,1534,o),
(100,1372,cs),
(93,971,o),
(93,628,o),
(100,226,cs),
(103,55,o),
(168,-14,o),
(332,-14,cs)
);
}
);
width = 653;
},
{
anchors = (
{
name = bottom;
pos = (401,0);
},
{
name = top;
pos = (401,1600);
}
);
background = {
anchors = (
{
name = bottom;
pos = (401,0);
},
{
name = top;
pos = (401,1600);
}
);
shapes = (
{
closed = 1;
nodes = (
(608,-14,o),
(697,58,o),
(705,241,cs),
(710,343,o),
(708,434,o),
(703,573,c),
(568,573,l),
(572,411,o),
(574,328,o),
(570,237,cs),
(566,135,o),
(523,104,o),
(403,104,cs),
(293,104,o),
(251,135,o),
(249,237,cs),
(240,679,o),
(240,920,o),
(249,1361,cs),
(251,1462,o),
(293,1493,o),
(402,1493,cs),
(517,1493,o),
(558,1462,o),
(562,1361,cs),
(565,1248,o),
(565,1164,o),
(561,1051,c),
(696,1051,l),
(701,1162,o),
(702,1246,o),
(697,1357,cs),
(689,1536,o),
(600,1611,o),
(402,1611,cs),
(206,1611,o),
(117,1537,o),
(114,1357,cs),
(108,949,o),
(108,650,o),
(114,241,cs),
(117,58,o),
(206,-14,o),
(403,-14,cs)
);
}
);
};
layerId = "6F82CFD7-79D5-473B-9D61-BE5DF154BBF2";
shapes = (
{
closed = 1;
nodes = (
(608,-14,o),
(697,58,o),
(705,241,cs),
(710,343,o),
(708,434,o),
(703,573,c),
(568,573,l),
(572,411,o),
(574,328,o),
(570,237,cs),
(566,135,o),
(523,104,o),
(403,104,cs),
(293,104,o),
(251,135,o),
(249,237,cs),
(240,679,o),
(240,920,o),
(249,1361,cs),
(251,1462,o),
(293,1493,o),
(402,1493,cs),
(517,1493,o),
(558,1462,o),
(562,1361,cs),
(565,1248,o),
(565,1164,o),
(561,1051,c),
(696,1051,l),
(701,1162,o),
(702,1246,o),
(697,1357,cs),
(689,1536,o),
(600,1611,o),
(402,1611,cs),
(206,1611,o),
(117,1537,o),
(114,1357,cs),
(108,949,o),
(108,650,o),
(114,241,cs),
(117,58,o),
(206,-14,o),
(403,-14,cs)
);
}
);
width = 802;
}
);
metricLeft = O;
unicode = 67;
},
{
glyphname = D;
kernLeft = H;
kernRight = O;
layers = (
{
anchors = (
{
name = bottom;
pos = (370,0);
},
{
name = center;
pos = (374,800);
},
{
name = top;
pos = (352,1600);
}
);
background = {
anchors = (
{
name = bottom;
pos = (370,0);
},
{
name = center;
pos = (374,800);
},
{
name = top;
pos = (352,1600);
}
);
shapes = (
{
closed = 1;
nodes = (
(390,0,ls),
(540,0,o),
(602,54,o),
(604,186,cs),
(610,624,o),
(610,974,o),
(604,1414,cs),
(602,1546,o),
(536,1600,o),
(372,1600,cs),
(140,1600,l),
(140,0,l)
);
},
{
closed = 1;
nodes = (
(220,1524,l),
(372,1524,ls),
(490,1524,o),
(522,1498,o),
(524,1414,cs),
(534,932,o),
(534,668,o),
(524,186,cs),
(522,102,o),
(494,76,o),
(390,76,cs),
(220,76,l)
);
}
);
};
layerId = "3B122060-26E0-4730-9241-82784E6CB359";
shapes = (
{
closed = 1;
nodes = (
(390,0,ls),
(540,0,o),
(602,54,o),
(604,186,cs),
(610,624,o),
(610,974,o),
(604,1414,cs),
(602,1546,o),
(536,1600,o),
(372,1600,cs),
(140,1600,l),
(140,0,l)
);
},
{
closed = 1;
nodes = (
(220,1524,l),
(372,1524,ls),
(490,1524,o),
(522,1498,o),
(524,1414,cs),
(534,932,o),
(534,668,o),
(524,186,cs),
(522,102,o),
(494,76,o),
(390,76,cs),
(220,76,l)
);
}
);
width = 718;
},
{
anchors = (
{
name = bottom;
pos = (480,0);
},
{
name = center;
pos = (520,800);
},
{
name = top;
pos = (520,1600);
}
);
background = {
anchors = (
{
name = bottom;
pos = (480,0);
},
{
name = center;
pos = (520,800);
},
{
name = top;
pos = (520,1600);
}
);
shapes = (
{
closed = 1;
nodes = (
(526,0,ls),
(826,0,o),
(950,118,o),
(956,412,cs),
(962,690,o),
(962,912,o),
(956,1190,cs),
(950,1482,o),
(826,1600,o),
(526,1600,cs),
(100,1600,l),
(100,0,l)
);
},
{
closed = 1;
nodes = (
(400,1336,l),
(526,1336,ls),
(610,1336,o),
(654,1296,o),
(656,1226,cs),
(664,942,o),
(664,660,o),
(656,376,cs),
(654,304,o),
(610,264,o),
(526,264,cs),
(400,264,l)
);
}
);
};
layerId = "1DFA7D5B-2E97-4B89-827F-FB43F8066DC1";
shapes = (
{
closed = 1;
nodes = (
(526,0,ls),
(826,0,o),
(950,118,o),
(956,412,cs),
(962,690,o),
(962,912,o),
(956,1190,cs),
(950,1482,o),
(826,1600,o),
(526,1600,cs),
(100,1600,l),
(100,0,l)
);
},
{
closed = 1;
nodes = (
(400,1336,l),
(526,1336,ls),
(610,1336,o),
(654,1296,o),
(656,1226,cs),
(664,942,o),
(664,660,o),
(656,376,cs),
(654,304,o),
(610,264,o),
(526,264,cs),
(400,264,l)
);
}
);
width = 1040;
},
{
anchors = (
{
name = bottom;
pos = (460,0);
},
{
name = center;
pos = (500,800);
},
{
name = top;
pos = (500,1600);
}
);
layerId = "5013C991-8699-46CB-BB1C-82E334DBD38B";
shapes = (
{
closed = 1;
nodes = (
(486,0,ls),
(786,0,o),
(910,118,o),
(916,412,cs),
(922,690,o),
(922,912,o),
(916,1190,cs),
(910,1482,o),
(786,1600,o),
(486,1600,cs),
(80,1600,l),
(80,0,l)
);
},
{
closed = 1;
nodes = (
(380,1336,l),
(486,1336,ls),
(570,1336,o),
(614,1296,o),
(616,1226,cs),
(624,942,o),
(624,660,o),
(616,376,cs),
(614,304,o),
(570,264,o),
(486,264,cs),
(380,264,l)
);
}
);
width = 990;
},
{
anchors = (
{
name = bottom;
pos = (290,0);
},
{
name = center;
pos = (294,800);
},
{
name = top;
pos = (274,1600);
}
);
background = {
anchors = (
{
name = bottom;
pos = (290,0);
},
{
name = center;
pos = (294,800);
},
{
name = top;
pos = (274,1600);
}
);
shapes = (
{
closed = 1;
nodes = (
(290,0,ls),
(412,0,o),
(462,54,o),
(464,186,cs),
(470,624,o),
(470,974,o),
(464,1414,cs),
(462,1546,o),
(412,1600,o),
(292,1600,cs),
(120,1600,l),
(120,0,l)
);
},
{
closed = 1;
nodes = (
(160,1560,l),
(292,1560,ls),
(386,1560,o),
(422,1518,o),
(424,1414,cs),
(428,1004,o),
(428,596,o),
(424,186,cs),
(422,82,o),
(386,40,o),
(290,40,cs),
(160,40,l)
);
}
);
};
layerId = "3D06B89B-468F-44E0-A3D7-A5BC6911123E";
shapes = (
{
closed = 1;
nodes = (
(290,0,ls),
(412,0,o),
(462,54,o),
(464,186,cs),
(470,624,o),
(470,974,o),
(464,1414,cs),
(462,1546,o),
(412,1600,o),
(292,1600,cs),
(120,1600,l),
(120,0,l)
);
},
{
closed = 1;
nodes = (
(160,1560,l),
(292,1560,ls),
(386,1560,o),
(422,1518,o),
(424,1414,cs),
(428,1004,o),
(428,596,o),
(424,186,cs),
(422,82,o),
(386,40,o),
(290,40,cs),
(160,40,l)
);
}
);
width = 572;
},
{
anchors = (
{
name = bottom;
pos = (333,0);
},
{
name = center;
pos = (346,800);
},
{
name = top;
pos = (331,1600);
}
);
background = {
anchors = (
{
name = bottom;
pos = (333,0);
},
{
name = center;
pos = (346,800);
},
{
name = top;
pos = (331,1600);
}
);
shapes = (
{
closed = 1;
nodes = (
(339,0,ls),
(506,0,o),
(574,70,o),
(577,243,cs),
(583,641,o),
(583,959,o),
(577,1358,cs),
(574,1530,o),
(506,1600,o),
(341,1600,cs),
(110,1600,l),
(110,0,l)
);
},
{
closed = 1;
nodes = (
(215,1504,l),
(341,1504,ls),
(432,1504,o),
(470,1463,o),
(472,1367,cs),
(477,989,o),
(477,612,o),
(472,234,cs),
(470,138,o),
(432,96,o),
(339,96,cs),
(215,96,l)
);
}
);
};
layerId = "C9EB94EC-C68D-4931-B320-068DCAB9FADA";
shapes = (
{
closed = 1;
nodes = (
(339,0,ls),
(506,0,o),
(574,70,o),
(577,243,cs),
(583,641,o),
(583,959,o),
(577,1358,cs),
(574,1530,o),
(506,1600,o),
(341,1600,cs),
(110,1600,l),
(110,0,l)
);
},
{
closed = 1;
nodes = (
(215,1504,l),
(341,1504,ls),
(432,1504,o),
(470,1463,o),
(472,1367,cs),
(477,989,o),
(477,612,o),
(472,234,cs),
(470,138,o),
(432,96,o),
(339,96,cs),
(215,96,l)
);
}
);
width = 676;
},
{
anchors = (
{
name = bottom;
pos = (393,0);
},
{
name = center;
pos = (406,800);
},
{
name = top;
pos = (389,1600);
}
);
background = {
anchors = (
{
name = bottom;
pos = (393,0);
},
{
name = center;
pos = (406,800);
},
{
name = top;
pos = (389,1600);
}
);
shapes = (
{
closed = 1;
nodes = (
(419,0,ls),
(607,0,o),
(684,70,o),
(687,243,cs),
(693,641,o),
(693,959,o),
(687,1358,cs),
(684,1530,o),
(604,1600,o),
(406,1600,cs),
(125,1600,l),
(125,0,l)
);
},
{
closed = 1;
nodes = (
(260,1477,l),
(406,1477,ls),
(515,1477,o),
(550,1448,o),
(552,1367,cs),
(562,935,o),
(562,666,o),
(552,234,cs),
(550,153,o),
(518,123,o),
(419,123,cs),
(260,123,l)
);
}
);
};
layerId = "6F82CFD7-79D5-473B-9D61-BE5DF154BBF2";
shapes = (
{
closed = 1;
nodes = (
(419,0,ls),
(607,0,o),
(684,70,o),
(687,243,cs),
(693,641,o),
(693,959,o),
(687,1358,cs),
(684,1530,o),
(604,1600,o),
(406,1600,cs),
(125,1600,l),
(125,0,l)
);
},
{
closed = 1;
nodes = (
(260,1477,l),
(406,1477,ls),
(515,1477,o),
(550,1448,o),
(552,1367,cs),
(562,935,o),
(562,666,o),
(552,234,cs),
(550,153,o),
(518,123,o),
(419,123,cs),
(260,123,l)
);
}
);
width = 801;
}
);
metricLeft = H;
metricRight = O;
unicode = 68;
},
{
glyphname = Eth;
kernLeft = H;
kernRight = O;
layers = (
{
background = {
shapes = (
{
closed = 1;
nodes = (
(100,886,l),
(340,886,l),
(340,946,l),
(100,946,l)
);
},
{
pos = (18,0);
ref = D;
}
);
};
layerId = "3B122060-26E0-4730-9241-82784E6CB359";
shapes = (
{
closed = 1;
nodes = (
(70,886,l),
(340,886,l),
(340,946,l),
(70,946,l)
);
},
{
pos = (18,0);
ref = D;
}
);
width = 736;
},
{
background = {
shapes = (
{
closed = 1;
nodes = (
(100,802,l),
(616,802,l),
(616,946,l),
(100,946,l)
);
},
{
pos = (98,0);
ref = D;
}
);
};
layerId = "1DFA7D5B-2E97-4B89-827F-FB43F8066DC1";
shapes = (
{
closed = 1;
nodes = (
(90,802,l),
(616,802,l),
(616,946,l),
(90,946,l)
);
},
{
pos = (98,0);
ref = D;
}
);
width = 1138;
},
{
layerId = "5013C991-8699-46CB-BB1C-82E334DBD38B";
shapes = (
{
closed = 1;
nodes = (
(50,802,l),
(616,802,l),
(616,946,l),
(50,946,l)
);
},
{
pos = (98,0);
ref = D;
}
);
width = 1088;
},
{
background = {
shapes = (
{
closed = 1;
nodes = (
(100,906,l),
(340,906,l),
(340,946,l),
(100,946,l)
);
},
{
pos = (58,0);
ref = D;
}
);
};
layerId = "3D06B89B-468F-44E0-A3D7-A5BC6911123E";
shapes = (
{
closed = 1;
nodes = (
(80,906,l),
(340,906,l),
(340,946,l),
(80,946,l)
);
},
{
pos = (58,0);
ref = D;
}
);
width = 630;
},
{
background = {
shapes = (
{
closed = 1;
nodes = (
(100,880,l),
(409,880,l),
(409,946,l),
(100,946,l)
);
},
{
alignment = -1;
pos = (68,0);
ref = D;
}
);
};
layerId = "C9EB94EC-C68D-4931-B320-068DCAB9FADA";
shapes = (
{
closed = 1;
nodes = (
(70,880,l),
(409,880,l),
(409,946,l),
(70,946,l)
);
},
{
alignment = -1;
pos = (68,0);
ref = D;
}
);
width = 744;
},
{
background = {
shapes = (
{
closed = 1;
nodes = (
(100,865,l),
(409,865,l),
(409,946,l),
(100,946,l)
);
},
{
alignment = -1;
pos = (38,0);
ref = D;
}
);
};
layerId = "6F82CFD7-79D5-473B-9D61-BE5DF154BBF2";
shapes = (
{
closed = 1;
nodes = (
(70,865,l),
(409,865,l),
(409,946,l),
(70,946,l)
);
},
{
alignment = -1;
pos = (38,0);
ref = D;
}
);
width = 839;
}
);
metricRight = D;
unicode = 208;
},
{
glyphname = E;
kernLeft = H;
kernRight = E;
layers = (
{
anchors = (
{
name = bottom;
pos = (362,0);
},
{
name = ogonek;
pos = (468,0);
},
{
name = top;
pos = (342,1596);
},
{
name = topleft;
pos = (160,1600);
}
);
background = {
anchors = (
{
name = bottom;
pos = (362,0);
},
{
name = ogonek;
pos = (518,0);
},
{
name = top;
pos = (342,1596);
},
{
name = topleft;
pos = (160,1600);
}
);
shapes = (
{
closed = 1;
nodes = (
(558,0,l),
(558,76,l),
(220,76,l),
(220,762,l),
(538,762,l),
(538,838,l),
(220,838,l),
(220,1524,l),
(558,1524,l),
(558,1600,l),
(140,1600,l),
(140,0,l)
);
}
);
};
layerId = "3B122060-26E0-4730-9241-82784E6CB359";
shapes = (
{
closed = 1;
nodes = (
(558,0,l),
(558,76,l),
(220,76,l),
(220,762,l),
(538,762,l),
(538,838,l),
(220,838,l),
(220,1524,l),
(558,1524,l),
(558,1600,l),
(140,1600,l),
(140,0,l)
);
}
);
width = 628;
},
{
anchors = (
{
name = bottom;
pos = (496,0);
},
{
name = ogonek;
pos = (595,0);
},
{
name = top;
pos = (468,1600);
},
{
name = topleft;
pos = (100,1600);
}
);
background = {
anchors = (
{
name = bottom;
pos = (496,0);
},
{
name = ogonek;
pos = (570,0);
},
{
name = top;
pos = (468,1600);
},
{
name = topleft;
pos = (100,1600);
}
);
shapes = (
{
closed = 1;
nodes = (
(832,0,l),
(832,264,l),
(400,264,l),
(400,682,l),
(812,682,l),
(812,946,l),
(400,946,l),
(400,1336,l),
(832,1336,l),
(832,1600,l),
(100,1600,l),
(100,0,l)
);
}
);
};
layerId = "1DFA7D5B-2E97-4B89-827F-FB43F8066DC1";
shapes = (
{
closed = 1;
nodes = (
(832,0,l),
(832,264,l),
(400,264,l),
(400,682,l),
(812,682,l),
(812,946,l),
(400,946,l),
(400,1336,l),
(832,1336,l),
(832,1600,l),
(100,1600,l),
(100,0,l)
);
}
);
width = 888;
},
{
anchors = (
{
name = bottom;
pos = (406,0);
},
{
name = ogonek;
pos = (539,10);
},
{
name = top;
pos = (406,1600);
},
{
name = topleft;
pos = (20,1600);
}
);
layerId = "5013C991-8699-46CB-BB1C-82E334DBD38B";
shapes = (
{
closed = 1;
nodes = (
(772,0,l),
(772,264,l),
(380,264,l),
(380,682,l),
(752,682,l),
(752,946,l),
(380,946,l),
(380,1336,l),
(772,1336,l),
(772,1600,l),
(80,1600,l),
(80,0,l)
);
}
);
width = 816;
},
{
anchors = (
{
name = bottom;
pos = (270,0);
},
{
name = ogonek;
pos = (338,0);
},
{
name = top;
pos = (270,1600);
},
{
name = topleft;
pos = (80,1600);
}
);
background = {
anchors = (
{
name = bottom;
pos = (270,0);
},
{
name = ogonek;
pos = (338,0);
},
{
name = top;
pos = (270,1600);
},
{
name = topleft;
pos = (80,1600);
}
);
shapes = (
{
closed = 1;
nodes = (
(438,0,l),
(438,40,l),
(160,40,l),
(160,780,l),
(418,780,l),
(418,820,l),
(160,820,l),
(160,1560,l),
(438,1560,l),
(438,1600,l),
(120,1600,l),
(120,0,l)
);
}
);
};
layerId = "3D06B89B-468F-44E0-A3D7-A5BC6911123E";
shapes = (
{
closed = 1;
nodes = (
(438,0,l),
(438,40,l),
(160,40,l),
(160,780,l),
(418,780,l),
(418,820,l),
(160,820,l),
(160,1560,l),
(438,1560,l),
(438,1600,l),
(120,1600,l),
(120,0,l)
);
}
);
width = 488;
},
{
anchors = (
{
name = bottom;
pos = (312,0);
},
{
name = ogonek;
pos = (388,0);
},
{
name = top;
pos = (310,1600);
},
{
name = topleft;
pos = (70,1600);
}
);
background = {
anchors = (
{
name = bottom;
pos = (312,0);
},
{
name = ogonek;
pos = (388,0);
},
{
name = top;
pos = (310,1600);
},
{
name = topleft;
pos = (70,1600);
}
);
shapes = (
{
closed = 1;
nodes = (
(522,0,l),
(522,96,l),
(215,96,l),
(215,756,l),
(502,756,l),
(502,852,l),
(215,852,l),
(215,1504,l),
(522,1504,l),
(522,1600,l),
(110,1600,l),
(110,0,l)
);
}
);
};
layerId = "C9EB94EC-C68D-4931-B320-068DCAB9FADA";
shapes = (
{
closed = 1;
nodes = (
(522,0,l),
(522,96,l),
(215,96,l),
(215,756,l),
(502,756,l),
(502,852,l),
(215,852,l),
(215,1504,l),
(522,1504,l),
(522,1600,l),
(110,1600,l),
(110,0,l)
);
}
);
width = 568;
},
{
anchors = (
{
name = bottom;
pos = (391,0);
},
{
name = ogonek;
pos = (500,0);
},
{
name = top;
pos = (369,1597);
},
{
name = topleft;
pos = (140,1600);
}
);
background = {
anchors = (
{
name = bottom;
pos = (391,0);
},
{
name = ogonek;
pos = (526,0);
},
{
name = top;
pos = (369,1597);
},
{
name = topleft;
pos = (140,1600);
}
);
shapes = (
{
closed = 1;
nodes = (
(622,0,l),
(622,123,l),
(260,123,l),
(260,742,l),
(602,742,l),
(602,865,l),
(260,865,l),
(260,1477,l),
(622,1477,l),
(622,1600,l),
(125,1600,l),
(125,0,l)
);
}
);
};
layerId = "6F82CFD7-79D5-473B-9D61-BE5DF154BBF2";
shapes = (
{
closed = 1;
nodes = (
(622,0,l),
(622,123,l),
(260,123,l),
(260,742,l),
(602,742,l),
(602,865,l),
(260,865,l),
(260,1477,l),
(622,1477,l),
(622,1600,l),
(125,1600,l),
(125,0,l)
);
}
);
width = 678;
}
);
metricLeft = H;
unicode = 69;
},
{
glyphname = F;
kernLeft = H;
kernRight = F;
layers = (
{
background = {
shapes = (
{
closed = 1;
nodes = (
(220,0,l),
(220,762,l),
(558,762,l),
(558,838,l),
(220,838,l),
(220,1524,l),
(578,1524,l),
(578,1600,l),
(140,1600,l),
(140,0,l)
);
}
);
};
layerId = "3B122060-26E0-4730-9241-82784E6CB359";
shapes = (
{
closed = 1;
nodes = (
(220,0,l),
(220,762,l),
(558,762,l),
(558,838,l),
(220,838,l),
(220,1524,l),
(578,1524,l),
(578,1600,l),
(140,1600,l),
(140,0,l)
);
}
);
width = 623;
},
{
background = {
shapes = (
{
closed = 1;
nodes = (
(400,0,l),
(400,682,l),
(812,682,l),
(812,946,l),
(400,946,l),
(400,1336,l),
(832,1336,l),
(832,1600,l),
(100,1600,l),
(100,0,l)
);
}
);
};
layerId = "1DFA7D5B-2E97-4B89-827F-FB43F8066DC1";
shapes = (
{
closed = 1;
nodes = (
(400,0,l),
(400,682,l),
(812,682,l),
(812,946,l),
(400,946,l),
(400,1336,l),
(832,1336,l),
(832,1600,l),
(100,1600,l),
(100,0,l)
);
}
);
width = 872;
},
{
layerId = "5013C991-8699-46CB-BB1C-82E334DBD38B";
shapes = (
{
closed = 1;
nodes = (
(380,0,l),
(380,682,l),
(752,682,l),
(752,946,l),
(380,946,l),
(380,1336,l),
(772,1336,l),
(772,1600,l),
(80,1600,l),
(80,0,l)
);
}
);
width = 812;
},
{
background = {
shapes = (
{
closed = 1;
nodes = (
(160,0,l),
(160,780,l),
(418,780,l),
(418,820,l),
(160,820,l),
(160,1560,l),
(438,1560,l),
(438,1600,l),
(120,1600,l),
(120,0,l)
);
}
);
};
layerId = "3D06B89B-468F-44E0-A3D7-A5BC6911123E";
shapes = (
{
closed = 1;
nodes = (
(160,0,l),
(160,780,l),
(418,780,l),
(418,820,l),
(160,820,l),
(160,1560,l),
(438,1560,l),
(438,1600,l),
(120,1600,l),
(120,0,l)
);
}
);
width = 478;
},
{
background = {
shapes = (
{
closed = 1;
nodes = (
(215,0,l),
(215,756,l),
(502,756,l),
(502,852,l),
(215,852,l),
(215,1504,l),
(522,1504,l),
(522,1600,l),
(110,1600,l),
(110,0,l)
);
}
);
};
layerId = "C9EB94EC-C68D-4931-B320-068DCAB9FADA";
shapes = (
{
closed = 1;
nodes = (
(215,0,l),
(215,756,l),
(502,756,l),
(502,852,l),
(215,852,l),
(215,1504,l),
(522,1504,l),
(522,1600,l),
(110,1600,l),
(110,0,l)
);
}
);
width = 552;
},
{
background = {
shapes = (
{
closed = 1;
nodes = (
(260,0,l),
(260,742,l),
(617,742,l),
(617,865,l),
(260,865,l),
(260,1477,l),
(637,1477,l),
(637,1600,l),
(125,1600,l),
(125,0,l)
);
}
);
};
layerId = "6F82CFD7-79D5-473B-9D61-BE5DF154BBF2";
shapes = (
{
closed = 1;
nodes = (
(260,0,l),
(260,742,l),
(617,742,l),
(617,865,l),
(260,865,l),
(260,1477,l),
(637,1477,l),
(637,1600,l),
(125,1600,l),
(125,0,l)
);
}
);
width = 673;
}
);
metricLeft = H;
unicode = 70;
},
{
glyphname = G;
kernLeft = O;
kernRight = G;
layers = (
{
anchors = (
{
name = bottom;
pos = (356,0);
},
{
name = top;
pos = (356,1600);
}
);
background = {
anchors = (
{
name = bottom;
pos = (356,0);
},
{
name = top;
pos = (356,1600);
}
);
shapes = (
{
closed = 1;
nodes = (
(540,-10,o),
(604,48,o),
(606,196,cs),
(608,318,o),
(608,422,o),
(606,614,c),
(340,614,l),
(340,534,l),
(526,534,l),
(528,406,o),
(528,324,o),
(526,196,cs),
(524,94,o),
(496,66,o),
(358,66,cs),
(224,66,o),
(196,94,o),
(194,196,cs),
(186,670,o),
(186,930,o),
(194,1404,cs),
(196,1506,o),
(224,1534,o),
(356,1534,cs),
(486,1534,o),
(514,1506,o),
(518,1404,cs),
(522,1278,o),
(522,1196,o),
(518,1070,c),
(598,1070,l),
(602,1196,o),
(602,1278,o),
(598,1404,cs),
(594,1552,o),
(532,1610,o),
(356,1610,cs),
(178,1610,o),
(116,1552,o),
(114,1404,cs),
(108,972,o),
(108,628,o),
(114,196,cs),
(116,48,o),
(178,-10,o),
(358,-10,cs)
);
}
);
};
layerId = "3B122060-26E0-4730-9241-82784E6CB359";
shapes = (
{
closed = 1;
nodes = (
(540,-10,o),
(604,48,o),
(606,196,cs),
(608,318,o),
(608,422,o),
(606,614,c),
(340,614,l),
(340,534,l),
(526,534,l),
(528,406,o),
(528,324,o),
(526,196,cs),
(524,94,o),
(496,66,o),
(358,66,cs),
(224,66,o),
(196,94,o),
(194,196,cs),
(186,670,o),
(186,930,o),
(194,1404,cs),
(196,1506,o),
(224,1534,o),
(356,1534,cs),
(486,1534,o),
(514,1506,o),
(518,1404,cs),
(522,1278,o),
(522,1196,o),
(518,1070,c),
(598,1070,l),
(602,1196,o),
(602,1278,o),
(598,1404,cs),
(594,1552,o),
(532,1610,o),
(356,1610,cs),
(178,1610,o),
(116,1552,o),
(114,1404,cs),
(108,972,o),
(108,628,o),
(114,196,cs),
(116,48,o),
(178,-10,o),
(358,-10,cs)
);
}
);
width = 699;
},
{
anchors = (
{
name = bottom;
pos = (520,0);
},
{
name = top;
pos = (520,1600);
}
);
background = {
anchors = (
{
name = bottom;
pos = (520,0);
},
{
name = top;
pos = (520,1600);
}
);
shapes = (
{
closed = 1;
nodes = (
(828,-20,o),
(954,94,o),
(968,382,cs),
(974,504,o),
(976,660,o),
(970,782,c),
(568,782,l),
(568,522,l),
(678,522,l),
(682,476,o),
(682,392,o),
(678,346,cs),
(670,258,o),
(628,224,o),
(528,224,cs),
(432,224,o),
(392,258,o),
(386,346,cs),
(370,626,o),
(370,976,o),
(386,1256,cs),
(392,1342,o),
(432,1376,o),
(528,1376,cs),
(620,1376,o),
(658,1342,o),
(664,1256,cs),
(668,1168,o),
(668,1088,o),
(664,1000,c),
(964,1000,l),
(968,1062,o),
(968,1158,o),
(964,1220,cs),
(946,1506,o),
(822,1620,o),
(528,1620,cs),
(224,1620,o),
(98,1500,o),
(86,1202,cs),
(78,986,o),
(78,606,o),
(86,382,cs),
(96,94,o),
(222,-20,o),
(528,-20,cs)
);
}
);
};
layerId = "1DFA7D5B-2E97-4B89-827F-FB43F8066DC1";
shapes = (
{
closed = 1;
nodes = (
(828,-20,o),
(954,94,o),
(968,382,cs),
(974,504,o),
(976,660,o),
(970,782,c),
(568,782,l),
(568,522,l),
(678,522,l),
(682,476,o),
(682,392,o),
(678,346,cs),
(670,258,o),
(628,224,o),
(528,224,cs),
(432,224,o),
(392,258,o),
(386,346,cs),
(370,626,o),
(370,976,o),
(386,1256,cs),
(392,1342,o),
(432,1376,o),
(528,1376,cs),
(620,1376,o),
(658,1342,o),
(664,1256,cs),
(668,1168,o),
(668,1088,o),
(664,1000,c),
(964,1000,l),
(968,1062,o),
(968,1158,o),
(964,1220,cs),
(946,1506,o),
(822,1620,o),
(528,1620,cs),
(224,1620,o),
(98,1500,o),
(86,1202,cs),
(78,986,o),
(78,606,o),
(86,382,cs),
(96,94,o),
(222,-20,o),
(528,-20,cs)
);
}
);
width = 1044;
},
{
anchors = (
{
name = bottom;
pos = (490,0);
},
{
name = top;
pos = (490,1600);
}
);
background = {
shapes = (
{
closed = 1;
nodes = (
(510,-20,o),
(636,108,o),
(636,280,cs),
(636,600,l),
(436,600,l),
(436,280,ls),
(436,222,o),
(396,180,o),
(344,180,cs),
(294,180,o),
(256,222,o),
(256,280,cs),
(256,1320,ls),
(256,1378,o),
(294,1420,o),
(344,1420,cs),
(396,1420,o),
(436,1378,o),
(436,1320,cs),
(436,1000,l),
(636,1000,l),
(636,1320,ls),
(636,1492,o),
(510,1620,o),
(344,1620,cs),
(180,1620,o),
(56,1492,o),
(56,1320,cs),
(56,280,ls),
(56,108,o),
(180,-20,o),
(344,-20,cs)
);
},
{
closed = 1;
nodes = (
(342,600,l),
(636,600,l),
(636,800,l),
(342,800,l)
);
}
);
};
layerId = "5013C991-8699-46CB-BB1C-82E334DBD38B";
shapes = (
{
closed = 1;
nodes = (
(784,-20,o),
(904,94,o),
(918,382,cs),
(924,504,o),
(926,660,o),
(920,782,c),
(518,782,l),
(518,522,l),
(628,522,l),
(632,476,o),
(632,372,o),
(628,326,cs),
(622,260,o),
(574,224,o),
(498,224,cs),
(420,224,o),
(380,260,o),
(376,326,cs),
(360,606,o),
(360,996,o),
(376,1276,cs),
(380,1340,o),
(420,1376,o),
(498,1376,cs),
(568,1376,o),
(610,1340,o),
(614,1276,cs),
(618,1202,o),
(618,1074,o),
(614,1000,c),
(914,1000,l),
(918,1062,o),
(918,1158,o),
(914,1220,cs),
(896,1506,o),
(778,1620,o),
(498,1620,cs),
(202,1620,o),
(88,1506,o),
(76,1202,cs),
(68,986,o),
(68,606,o),
(76,382,cs),
(86,94,o),
(196,-20,o),
(498,-20,cs)
);
}
);
width = 986;
},
{
anchors = (
{
name = bottom;
pos = (274,0);
},
{
name = top;
pos = (274,1600);
}
);
background = {
anchors = (
{
name = bottom;
pos = (274,0);
},
{
name = top;
pos = (274,1600);
}
);
shapes = (
{
closed = 1;
nodes = (
(406,-10,o),
(458,44,o),
(460,176,cs),
(462,398,o),
(462,522,o),
(460,614,c),
(274,614,l),
(274,574,l),
(420,574,l),
(422,432,o),
(422,318,o),
(420,176,cs),
(418,72,o),
(378,30,o),
(282,30,cs),
(186,30,o),
(148,72,o),
(148,176,cs),
(144,622,o),
(144,978,o),
(148,1424,cs),
(150,1528,o),
(188,1570,o),
(280,1570,cs),
(370,1570,o),
(408,1528,o),
(412,1424,cs),
(416,1298,o),
(416,1196,o),
(412,1070,c),
(452,1070,l),
(456,1196,o),
(456,1298,o),
(452,1424,cs),
(448,1556,o),
(398,1610,o),
(280,1610,cs),
(160,1610,o),
(110,1556,o),
(108,1424,cs),
(102,978,o),
(102,622,o),
(108,176,cs),
(110,44,o),
(160,-10,o),
(282,-10,cs)
);
}
);
};
layerId = "3D06B89B-468F-44E0-A3D7-A5BC6911123E";
shapes = (
{
closed = 1;
nodes = (
(406,-10,o),
(458,44,o),
(460,176,cs),
(462,398,o),
(462,522,o),
(460,614,c),
(274,614,l),
(274,574,l),
(420,574,l),
(422,432,o),
(422,318,o),
(420,176,cs),
(418,72,o),
(378,30,o),
(282,30,cs),
(186,30,o),
(148,72,o),
(148,176,cs),
(144,622,o),
(144,978,o),
(148,1424,cs),
(150,1528,o),
(188,1570,o),
(280,1570,cs),
(370,1570,o),
(408,1528,o),
(412,1424,cs),
(416,1298,o),
(416,1196,o),
(412,1070,c),
(452,1070,l),
(456,1196,o),
(456,1298,o),
(452,1424,cs),
(448,1556,o),
(398,1610,o),
(280,1610,cs),
(160,1610,o),
(110,1556,o),
(108,1424,cs),
(102,978,o),
(102,622,o),
(108,176,cs),
(110,44,o),
(160,-10,o),
(282,-10,cs)
);
}
);
width = 545;
},
{
anchors = (
{
name = bottom;
pos = (328,0);
},
{
name = top;
pos = (328,1600);
}
);
background = {
anchors = (
{
name = bottom;
pos = (328,0);
},
{
name = top;
pos = (328,1600);
}
);
shapes = (
{
closed = 1;
nodes = (
(500,-13,o),
(569,57,o),
(574,228,cs),
(577,425,o),
(578,557,o),
(575,656,c),
(335,656,l),
(335,561,l),
(472,561,l),
(474,443,o),
(474,332,o),
(472,214,cs),
(469,119,o),
(427,79,o),
(336,79,cs),
(244,79,o),
(206,119,o),
(205,214,cs),
(198,618,o),
(198,983,o),
(205,1387,cs),
(207,1481,o),
(246,1522,o),
(334,1522,cs),
(419,1522,o),
(458,1481,o),
(462,1387,cs),
(466,1274,o),
(466,1166,o),
(462,1053,c),
(567,1053,l),
(571,1163,o),
(571,1263,o),
(567,1373,cs),
(560,1544,o),
(493,1613,o),
(334,1613,cs),
(170,1613,o),
(104,1544,o),
(100,1369,cs),
(93,980,o),
(93,618,o),
(100,228,cs),
(104,57,o),
(169,-13,o),
(336,-13,cs)
);
}
);
};
layerId = "C9EB94EC-C68D-4931-B320-068DCAB9FADA";
shapes = (
{
closed = 1;
nodes = (
(500,-13,o),
(569,57,o),
(574,228,cs),
(577,425,o),
(578,557,o),
(575,656,c),
(335,656,l),
(335,561,l),
(472,561,l),
(474,443,o),
(474,332,o),
(472,214,cs),
(469,119,o),
(427,79,o),
(336,79,cs),
(244,79,o),
(206,119,o),
(205,214,cs),
(198,618,o),
(198,983,o),
(205,1387,cs),
(207,1481,o),
(246,1522,o),
(334,1522,cs),
(419,1522,o),
(458,1481,o),
(462,1387,cs),
(466,1274,o),
(466,1166,o),
(462,1053,c),
(567,1053,l),
(571,1163,o),
(571,1263,o),
(567,1373,cs),
(560,1544,o),
(493,1613,o),
(334,1613,cs),
(170,1613,o),
(104,1544,o),
(100,1369,cs),
(93,980,o),
(93,618,o),
(100,228,cs),
(104,57,o),
(169,-13,o),
(336,-13,cs)
);
}
);
width = 651;
},
{
anchors = (
{
name = bottom;
pos = (405,0);
},
{
name = top;
pos = (405,1600);
}
);
background = {
anchors = (
{
name = bottom;
pos = (405,0);
},
{
name = top;
pos = (405,1600);
}
);
shapes = (
{
closed = 1;
nodes = (
(620,-13,o),
(699,60,o),
(704,243,cs),
(707,365,o),
(708,482,o),
(705,656,c),
(405,656,l),
(405,531,l),
(572,531,l),
(574,424,o),
(574,341,o),
(572,234,cs),
(568,135,o),
(537,106,o),
(408,106,cs),
(284,106,o),
(253,135,o),
(250,234,cs),
(240,659,o),
(240,942,o),
(250,1367,cs),
(253,1465,o),
(284,1495,o),
(407,1495,cs),
(527,1495,o),
(558,1465,o),
(562,1367,cs),
(566,1251,o),
(566,1169,o),
(562,1053,c),
(697,1053,l),
(701,1163,o),
(701,1248,o),
(697,1358,cs),
(690,1541,o),
(612,1613,o),
(407,1613,cs),
(197,1613,o),
(119,1539,o),
(115,1354,cs),
(108,976,o),
(108,623,o),
(115,243,cs),
(119,60,o),
(197,-13,o),
(408,-13,cs)
);
}
);
};
layerId = "6F82CFD7-79D5-473B-9D61-BE5DF154BBF2";
shapes = (
{
closed = 1;
nodes = (
(620,-13,o),
(699,60,o),
(704,243,cs),
(707,365,o),
(708,482,o),
(705,656,c),
(405,656,l),
(405,531,l),
(572,531,l),
(574,424,o),
(574,341,o),
(572,234,cs),
(568,135,o),
(537,106,o),
(408,106,cs),
(284,106,o),
(253,135,o),
(250,234,cs),
(240,659,o),
(240,942,o),
(250,1367,cs),
(253,1465,o),
(284,1495,o),
(407,1495,cs),
(527,1495,o),
(558,1465,o),
(562,1367,cs),
(566,1251,o),
(566,1169,o),
(562,1053,c),
(697,1053,l),
(701,1163,o),
(701,1248,o),
(697,1358,cs),
(690,1541,o),
(612,1613,o),
(407,1613,cs),
(197,1613,o),
(119,1539,o),
(115,1354,cs),
(108,976,o),
(108,623,o),
(115,243,cs),
(119,60,o),
(197,-13,o),
(408,-13,cs)
);
}
);
width = 797;
}
);
metricLeft = O;
unicode = 71;
},
{
glyphname = H;
kernLeft = H;
kernRight = H;
layers = (
{
anchors = (
{
name = bottom;
pos = (380,0);
},
{
name = center;
pos = (380,800);
},
{
name = top;
pos = (380,1600);
},
{
name = topleft;
pos = (100,1600);
}
);
background = {
anchors = (
{
name = bottom;
pos = (380,0);
},
{
name = center;
pos = (380,800);
},
{
name = top;
pos = (380,1600);
},
{
name = topleft;
pos = (100,1600);
}
);
shapes = (
{
closed = 1;
nodes = (
(220,0,l),
(220,762,l),
(540,762,l),
(540,0,l),
(620,0,l),
(620,1600,l),
(540,1600,l),
(540,838,l),
(220,838,l),
(220,1600,l),
(140,1600,l),
(140,0,l)
);
}
);
};
layerId = "3B122060-26E0-4730-9241-82784E6CB359";
shapes = (
{
closed = 1;
nodes = (
(220,0,l),
(220,762,l),
(540,762,l),
(540,0,l),
(620,0,l),
(620,1600,l),
(540,1600,l),
(540,838,l),
(220,838,l),
(220,1600,l),
(140,1600,l),
(140,0,l)
);
}
);
width = 760;
},
{
anchors = (
{
name = bottom;
pos = (526,0);
},
{
name = center;
pos = (526,800);
},
{
name = top;
pos = (526,1600);
},
{
name = topleft;
pos = (60,1600);
}
);
background = {
anchors = (
{
name = bottom;
pos = (526,0);
},
{
name = center;
pos = (526,800);
},
{
name = top;
pos = (526,1600);
},
{
name = topleft;
pos = (60,1600);
}
);
shapes = (
{
closed = 1;
nodes = (
(400,0,l),
(400,682,l),
(650,682,l),
(650,0,l),
(950,0,l),
(950,1600,l),
(650,1600,l),
(650,946,l),
(400,946,l),
(400,1600,l),
(100,1600,l),
(100,0,l)
);
}
);
};
layerId = "1DFA7D5B-2E97-4B89-827F-FB43F8066DC1";
shapes = (
{
closed = 1;
nodes = (
(400,0,l),
(400,682,l),
(650,682,l),
(650,0,l),
(950,0,l),
(950,1600,l),
(650,1600,l),
(650,946,l),
(400,946,l),
(400,1600,l),
(100,1600,l),
(100,0,l)
);
}
);
width = 1050;
},
{
anchors = (
{
name = bottom;
pos = (486,0);
},
{
name = center;
pos = (486,800);
},
{
name = top;
pos = (486,1600);
},
{
name = topleft;
pos = (40,1600);
}
);
layerId = "5013C991-8699-46CB-BB1C-82E334DBD38B";
shapes = (
{
closed = 1;
nodes = (
(380,0,l),
(380,682,l),
(590,682,l),
(590,0,l),
(890,0,l),
(890,1600,l),
(590,1600,l),
(590,946,l),
(380,946,l),
(380,1600,l),
(80,1600,l),
(80,0,l)
);
}
);
width = 970;
},
{
anchors = (
{
name = bottom;
pos = (300,0);
},
{
name = center;
pos = (300,800);
},
{
name = top;
pos = (300,1600);
},
{
name = topleft;
pos = (80,1600);
}
);
background = {
anchors = (
{
name = bottom;
pos = (300,0);
},
{
name = center;
pos = (300,800);
},
{
name = top;
pos = (300,1600);
},
{
name = topleft;
pos = (80,1600);
}
);
shapes = (
{
closed = 1;
nodes = (
(160,0,l),
(160,780,l),
(440,780,l),
(440,0,l),
(480,0,l),
(480,1600,l),
(440,1600,l),
(440,820,l),
(160,820,l),
(160,1600,l),
(120,1600,l),
(120,0,l)
);
}
);
};
layerId = "3D06B89B-468F-44E0-A3D7-A5BC6911123E";
shapes = (
{
closed = 1;
nodes = (
(160,0,l),
(160,780,l),
(440,780,l),
(440,0,l),
(480,0,l),
(480,1600,l),
(440,1600,l),
(440,820,l),
(160,820,l),
(160,1600,l),
(120,1600,l),
(120,0,l)
);
}
);
width = 600;
},
{
anchors = (
{
name = bottom;
pos = (347,0);
},
{
name = center;
pos = (347,800);
},
{
name = top;
pos = (347,1600);
},
{
name = topleft;
pos = (70,1600);
}
);
background = {
anchors = (
{
name = bottom;
pos = (347,0);
},
{
name = center;
pos = (347,800);
},
{
name = top;
pos = (347,1600);
},
{
name = topleft;
pos = (70,1600);
}
);
shapes = (
{
closed = 1;
nodes = (
(215,0,l),
(215,756,l),
(478,756,l),
(478,0,l),
(583,0,l),
(583,1600,l),
(478,1600,l),
(478,852,l),
(215,852,l),
(215,1600,l),
(110,1600,l),
(110,0,l)
);
}
);
};
layerId = "C9EB94EC-C68D-4931-B320-068DCAB9FADA";
shapes = (
{
closed = 1;
nodes = (
(215,0,l),
(215,756,l),
(478,756,l),
(478,0,l),
(583,0,l),
(583,1600,l),
(478,1600,l),
(478,852,l),
(215,852,l),
(215,1600,l),
(110,1600,l),
(110,0,l)
);
}
);
width = 693;
},
{
anchors = (
{
name = bottom;
pos = (412,0);
},
{
name = center;
pos = (412,800);
},
{
name = top;
pos = (412,1600);
},
{
name = topleft;
pos = (85,1600);
}
);
background = {
anchors = (
{
name = bottom;
pos = (412,0);
},
{
name = center;
pos = (412,800);
},
{
name = top;
pos = (412,1600);
},
{
name = topleft;
pos = (85,1600);
}
);
shapes = (
{
closed = 1;
nodes = (
(260,0,l),
(260,742,l),
(563,742,l),
(563,0,l),
(698,0,l),
(698,1600,l),
(563,1600,l),
(563,865,l),
(260,865,l),
(260,1600,l),
(125,1600,l),
(125,0,l)
);
}
);
};
layerId = "6F82CFD7-79D5-473B-9D61-BE5DF154BBF2";
shapes = (
{
closed = 1;
nodes = (
(260,0,l),
(260,742,l),
(563,742,l),
(563,0,l),
(698,0,l),
(698,1600,l),
(563,1600,l),
(563,865,l),
(260,865,l),
(260,1600,l),
(125,1600,l),
(125,0,l)
);
}
);
width = 823;
}
);
unicode = 72;
},
{
glyphname = Hbar;
kernLeft = H;
kernRight = H;
layers = (
{
background = {
shapes = (
{
closed = 1;
nodes = (
(15,1150,l),
(627,1150,l),
(627,1210,l),
(15,1210,l)
);
},
{
pos = (-59,0);
ref = H;
}
);
};
layerId = "3B122060-26E0-4730-9241-82784E6CB359";
metricLeft = "=15";
metricRight = "=15";
shapes = (
{
closed = 1;
nodes = (
(15,1150,l),
(627,1150,l),
(627,1210,l),
(15,1210,l)
);
},
{
pos = (-59,0);
ref = H;
}
);
width = 642;
},
{
background = {
shapes = (
{
closed = 1;
nodes = (
(-10,1136,l),
(1032,1136,l),
(1032,1280,l),
(-10,1280,l)
);
},
{
pos = (26,0);
ref = H;
}
);
};
layerId = "1DFA7D5B-2E97-4B89-827F-FB43F8066DC1";
metricLeft = "=30";
metricRight = "=30";
shapes = (
{
closed = 1;
nodes = (
(30,1136,l),
(1072,1136,l),
(1072,1280,l),
(30,1280,l)
);
},
{
pos = (26,0);
ref = H;
}
);
width = 1102;
},
{
layerId = "5013C991-8699-46CB-BB1C-82E334DBD38B";
metricLeft = "=30";
metricRight = "=30";
shapes = (
{
closed = 1;
nodes = (
(30,1136,l),
(1072,1136,l),
(1072,1280,l),
(30,1280,l)
);
},
{
pos = (66,0);
ref = H;
}
);
width = 1102;
},
{
background = {
shapes = (
{
closed = 1;
nodes = (
(15,1160,l),
(547,1160,l),
(547,1200,l),
(15,1200,l)
);
},
{
pos = (-19,0);
ref = H;
}
);
};
layerId = "3D06B89B-468F-44E0-A3D7-A5BC6911123E";
metricLeft = "=15";
metricRight = "=15";
shapes = (
{
closed = 1;
nodes = (
(15,1162,l),
(547,1162,l),
(547,1200,l),
(15,1200,l)
);
},
{
pos = (-19,0);
ref = H;
}
);
width = 562;
},
{
background = {
shapes = (
{
closed = 1;
nodes = (
(110,1154,l),
(769,1154,l),
(769,1220,l),
(110,1220,l)
);
},
{
alignment = -1;
pos = (93,0);
ref = H;
}
);
};
layerId = "C9EB94EC-C68D-4931-B320-068DCAB9FADA";
metricLeft = "=110";
shapes = (
{
closed = 1;
nodes = (
(110,1154,l),
(769,1154,l),
(769,1220,l),
(110,1220,l)
);
},
{
alignment = -1;
pos = (93,0);
ref = H;
}
);
width = 879;
},
{
background = {
shapes = (
{
closed = 1;
nodes = (
(125,1147,l),
(844,1147,l),
(844,1228,l),
(125,1228,l)
);
},
{
alignment = -1;
pos = (78,0);
ref = H;
}
);
};
layerId = "6F82CFD7-79D5-473B-9D61-BE5DF154BBF2";
shapes = (
{
closed = 1;
nodes = (
(125,1147,l),
(844,1147,l),
(844,1228,l),
(125,1228,l)
);
},
{
alignment = -1;
pos = (78,0);
ref = H;
}
);
width = 969;
}
);
metricLeft = H;
metricRight = H;
unicode = 294;
},
{
glyphname = I;
kernLeft = H;
kernRight = H;
layers = (
{
anchors = (
{
name = bottom;
pos = (180,0);
},
{
name = ogonek;
pos = (180,0);
},
{
name = top;
pos = (180,1600);
},
{
name = topleft;
pos = (100,1600);
}
);
background = {
anchors = (
{
name = bottom;
pos = (180,0);
},
{
name = ogonek;
pos = (180,0);
},
{
name = top;
pos = (180,1600);
},
{
name = topleft;
pos = (100,1600);
}
);
shapes = (
{
closed = 1;
nodes = (
(220,0,l),
(220,1600,l),
(140,1600,l),
(140,0,l)
);
}
);
};
layerId = "3B122060-26E0-4730-9241-82784E6CB359";
shapes = (
{
closed = 1;
nodes = (
(220,0,l),
(220,1600,l),
(140,1600,l),
(140,0,l)
);
}
);
width = 360;
},
{
anchors = (
{
name = bottom;
pos = (250,0);
},
{
name = ogonek;
pos = (176,0);
},
{
name = top;
pos = (250,1600);
},
{
name = topleft;
pos = (60,1600);
}
);
background = {
anchors = (
{
name = bottom;
pos = (250,0);
},
{
name = ogonek;
pos = (176,0);
},
{
name = top;
pos = (250,1600);
},
{
name = topleft;
pos = (60,1600);
}
);
shapes = (
{
closed = 1;
nodes = (
(400,0,l),
(400,1600,l),
(100,1600,l),
(100,0,l)
);
}
);
};
layerId = "1DFA7D5B-2E97-4B89-827F-FB43F8066DC1";
shapes = (
{
closed = 1;
nodes = (
(400,0,l),
(400,1600,l),
(100,1600,l),
(100,0,l)
);
}
);
width = 500;
},
{
anchors = (
{
name = bottom;
pos = (230,0);
},
{
name = ogonek;
pos = (158,0);
},
{
name = top;
pos = (230,1600);
},
{
name = topleft;
pos = (40,1600);
}
);
layerId = "5013C991-8699-46CB-BB1C-82E334DBD38B";
shapes = (
{
closed = 1;
nodes = (
(380,0,l),
(380,1600,l),
(80,1600,l),
(80,0,l)
);
}
);
width = 460;
},
{
anchors = (
{
name = bottom;
pos = (140,0);
},
{
name = ogonek;
pos = (140,0);
},
{
name = top;
pos = (140,1600);
},
{
name = topleft;
pos = (80,1600);
}
);
background = {
anchors = (
{
name = bottom;
pos = (140,0);
},
{
name = ogonek;
pos = (140,0);
},
{
name = top;
pos = (140,1600);
},
{
name = topleft;
pos = (80,1600);
}
);
shapes = (
{
closed = 1;
nodes = (
(160,0,l),
(160,1600,l),
(120,1600,l),
(120,0,l)
);
}
);
};
layerId = "3D06B89B-468F-44E0-A3D7-A5BC6911123E";
shapes = (
{
closed = 1;
nodes = (
(160,0,l),
(160,1600,l),
(120,1600,l),
(120,0,l)
);
}
);
width = 280;
},
{
anchors = (
{
name = bottom;
pos = (163,0);
},
{
name = ogonek;
pos = (145,0);
},
{
name = top;
pos = (163,1600);
},
{
name = topleft;
pos = (70,1600);
}
);
background = {
anchors = (
{
name = bottom;
pos = (163,0);
},
{
name = ogonek;
pos = (145,0);
},
{
name = top;
pos = (163,1600);
},
{
name = topleft;
pos = (70,1600);
}
);
shapes = (
{
closed = 1;
nodes = (
(215,0,l),
(215,1600,l),
(110,1600,l),
(110,0,l)
);
}
);
};
layerId = "C9EB94EC-C68D-4931-B320-068DCAB9FADA";
shapes = (
{
closed = 1;
nodes = (
(215,0,l),
(215,1600,l),
(110,1600,l),
(110,0,l)
);
}
);
width = 325;
},
{
anchors = (
{
name = bottom;
pos = (193,0);
},
{
name = ogonek;
pos = (174,0);
},
{
name = top;
pos = (193,1600);
},
{
name = topleft;
pos = (85,1600);
}
);
background = {
anchors = (
{
name = bottom;
pos = (193,0);
},
{
name = ogonek;
pos = (174,0);
},
{
name = top;
pos = (193,1600);
},
{
name = topleft;
pos = (85,1600);
}
);
shapes = (
{
closed = 1;
nodes = (
(260,0,l),
(260,1600,l),
(125,1600,l),
(125,0,l)
);
}
);
};
layerId = "6F82CFD7-79D5-473B-9D61-BE5DF154BBF2";
shapes = (
{
closed = 1;
nodes = (
(260,0,l),
(260,1600,l),
(125,1600,l),
(125,0,l)
);
}
);
width = 385;
}
);
metricLeft = H;
metricRight = H;
unicode = 73;
},
{
glyphname = J;
kernLeft = J;
kernRight = J;
layers = (
{
anchors = (
{
name = bottom;
pos = (292,0);
},
{
name = top;
pos = (332,1600);
}
);
background = {
anchors = (
{
name = bottom;
pos = (292,0);
},
{
name = top;
pos = (332,1600);
}
);
shapes = (
{
closed = 1;
nodes = (
(450,-10,o),
(516,48,o),
(516,196,cs),
(516,1600,l),
(436,1600,l),
(436,196,ls),
(436,98,o),
(404,66,o),
(284,66,cs),
(180,66,o),
(152,98,o),
(148,196,cs),
(142,326,o),
(144,436,o),
(148,566,c),
(68,566,l),
(64,426,o),
(64,336,o),
(68,196,cs),
(72,48,o),
(134,-10,o),
(284,-10,cs)
);
}
);
};
layerId = "3B122060-26E0-4730-9241-82784E6CB359";
shapes = (
{
closed = 1;
nodes = (
(450,-10,o),
(516,48,o),
(516,196,cs),
(516,1600,l),
(436,1600,l),
(436,196,ls),
(436,98,o),
(404,66,o),
(284,66,cs),
(180,66,o),
(152,98,o),
(148,196,cs),
(142,326,o),
(144,436,o),
(148,566,c),
(68,566,l),
(64,426,o),
(64,336,o),
(68,196,cs),
(72,48,o),
(134,-10,o),
(284,-10,cs)
);
}
);
width = 638;
},
{
anchors = (
{
name = bottom;
pos = (459,-20);
},
{
name = top;
pos = (515,1600);
}
);
background = {
anchors = (
{
name = bottom;
pos = (459,-20);
},
{
name = top;
pos = (515,1600);
}
);
shapes = (
{
closed = 1;
nodes = (
(767,-20,o),
(889,94,o),
(889,382,cs),
(889,1600,l),
(589,1600,l),
(589,346,ls),
(589,258,o),
(551,224,o),
(459,224,cs),
(365,224,o),
(325,258,o),
(323,346,cs),
(321,418,o),
(321,528,o),
(323,600,c),
(41,600,l),
(39,536,o),
(39,446,o),
(41,382,cs),
(49,94,o),
(169,-20,o),
(459,-20,cs)
);
}
);
};
layerId = "1DFA7D5B-2E97-4B89-827F-FB43F8066DC1";
shapes = (
{
closed = 1;
nodes = (
(767,-20,o),
(889,94,o),
(889,382,cs),
(889,1600,l),
(589,1600,l),
(589,346,ls),
(589,258,o),
(551,224,o),
(459,224,cs),
(365,224,o),
(325,258,o),
(323,346,cs),
(321,418,o),
(321,528,o),
(323,600,c),
(41,600,l),
(39,536,o),
(39,446,o),
(41,382,cs),
(49,94,o),
(169,-20,o),
(459,-20,cs)
);
}
);
width = 971;
},
{
anchors = (
{
name = bottom;
pos = (433,-20);
},
{
name = top;
pos = (489,1600);
}
);
layerId = "5013C991-8699-46CB-BB1C-82E334DBD38B";
shapes = (
{
closed = 1;
nodes = (
(735,-20,o),
(843,94,o),
(843,382,cs),
(843,1600,l),
(543,1600,l),
(543,326,ls),
(543,260,o),
(511,224,o),
(433,224,cs),
(355,224,o),
(319,260,o),
(317,326,cs),
(315,398,o),
(315,528,o),
(317,600,c),
(35,600,l),
(33,536,o),
(33,446,o),
(35,382,cs),
(43,94,o),
(139,-20,o),
(433,-20,cs)
);
}
);
width = 905;
},
{
anchors = (
{
name = bottom;
pos = (249,0);
},
{
name = top;
pos = (289,1600);
}
);
background = {
anchors = (
{
name = bottom;
pos = (249,0);
},
{
name = top;
pos = (289,1600);
}
);
shapes = (
{
closed = 1;
nodes = (
(363,-10,o),
(413,44,o),
(413,176,cs),
(413,1600,l),
(373,1600,l),
(373,176,ls),
(373,72,o),
(335,30,o),
(241,30,cs),
(143,30,o),
(109,72,o),
(105,176,cs),
(101,306,o),
(101,436,o),
(105,566,c),
(65,566,l),
(61,426,o),
(61,316,o),
(65,176,cs),
(67,44,o),
(117,-10,o),
(241,-10,cs)
);
}
);
};
layerId = "3D06B89B-468F-44E0-A3D7-A5BC6911123E";
shapes = (
{
closed = 1;
nodes = (
(363,-10,o),
(413,44,o),
(413,176,cs),
(413,1600,l),
(373,1600,l),
(373,176,ls),
(373,72,o),
(335,30,o),
(241,30,cs),
(143,30,o),
(109,72,o),
(105,176,cs),
(101,306,o),
(101,436,o),
(105,566,c),
(65,566,l),
(61,426,o),
(61,316,o),
(65,176,cs),
(67,44,o),
(117,-10,o),
(241,-10,cs)
);
}
);
width = 515;
},
{
anchors = (
{
name = bottom;
pos = (300,-5);
},
{
name = top;
pos = (344,1600);
}
);
background = {
anchors = (
{
name = bottom;
pos = (300,-5);
},
{
name = top;
pos = (344,1600);
}
);
shapes = (
{
closed = 1;
nodes = (
(461,-13,o),
(525,57,o),
(525,228,cs),
(525,1600,l),
(420,1600,l),
(420,214,ls),
(420,119,o),
(384,79,o),
(294,79,cs),
(201,79,o),
(166,119,o),
(163,214,cs),
(159,329,o),
(159,459,o),
(163,575,c),
(62,575,l),
(59,454,o),
(59,349,o),
(62,228,cs),
(66,57,o),
(127,-13,o),
(294,-13,cs)
);
}
);
};
layerId = "C9EB94EC-C68D-4931-B320-068DCAB9FADA";
shapes = (
{
closed = 1;
nodes = (
(461,-13,o),
(525,57,o),
(525,228,cs),
(525,1600,l),
(420,1600,l),
(420,214,ls),
(420,119,o),
(384,79,o),
(294,79,cs),
(201,79,o),
(166,119,o),
(163,214,cs),
(159,329,o),
(159,459,o),
(163,575,c),
(62,575,l),
(59,454,o),
(59,349,o),
(62,228,cs),
(66,57,o),
(127,-13,o),
(294,-13,cs)
);
}
);
width = 617;
},
{
anchors = (
{
name = bottom;
pos = (332,-5);
},
{
name = top;
pos = (376,1600);
}
);
background = {
anchors = (
{
name = bottom;
pos = (332,-5);
},
{
name = top;
pos = (376,1600);
}
);
shapes = (
{
closed = 1;
nodes = (
(527,-13,o),
(607,60,o),
(607,243,cs),
(607,1600,l),
(472,1600,l),
(472,234,ls),
(472,138,o),
(439,106,o),
(326,106,cs),
(224,106,o),
(193,138,o),
(190,234,cs),
(185,349,o),
(186,459,o),
(190,575,c),
(59,575,l),
(56,454,o),
(56,364,o),
(59,243,cs),
(64,60,o),
(141,-13,o),
(326,-13,cs)
);
}
);
};
layerId = "6F82CFD7-79D5-473B-9D61-BE5DF154BBF2";
shapes = (
{
closed = 1;
nodes = (
(527,-13,o),
(607,60,o),
(607,243,cs),
(607,1600,l),
(472,1600,l),
(472,234,ls),
(472,138,o),
(439,106,o),
(326,106,cs),
(224,106,o),
(193,138,o),
(190,234,cs),
(185,349,o),
(186,459,o),
(190,575,c),
(59,575,l),
(56,454,o),
(56,364,o),
(59,243,cs),
(64,60,o),
(141,-13,o),
(326,-13,cs)
);
}
);
width = 714;
}
);
metricRight = "=H-18";
unicode = 74;
},
{
glyphname = K;
kernLeft = H;
kernRight = K;
layers = (
{
anchors = (
{
name = bottom;
pos = (370,0);
},
{
name = top;
pos = (350,1600);
}
);
background = {
anchors = (
{
name = bottom;
pos = (370,0);
},
{
name = top;
pos = (350,1600);
}
);
shapes = (
{
closed = 1;
nodes = (
(220,0,l),
(220,360,l),
(340,718,l),
(550,0,l),
(636,0,l),
(382,852,l),
(604,1600,l),
(520,1600,l),
(426,1282,l),
(256,698,l),
(220,698,l),
(220,1230,l),
(220,1600,l),
(140,1600,l),
(140,0,l)
);
}
);
};
layerId = "3B122060-26E0-4730-9241-82784E6CB359";
shapes = (
{
closed = 1;
nodes = (
(220,0,l),
(220,360,l),
(340,718,l),
(550,0,l),
(636,0,l),
(382,852,l),
(604,1600,l),
(520,1600,l),
(426,1282,l),
(256,698,l),
(220,698,l),
(220,1230,l),
(220,1600,l),
(140,1600,l),
(140,0,l)
);
}
);
width = 656;
},
{
anchors = (
{
name = bottom;
pos = (550,0);
},
{
name = top;
pos = (550,1600);
}
);
background = {
anchors = (
{
name = bottom;
pos = (550,0);
},
{
name = top;
pos = (550,1600);
}
);
shapes = (
{
closed = 1;
nodes = (
(406,0,l),
(406,360,l),
(550,640,l),
(732,0,l),
(1036,0,l),
(758,942,l),
(1024,1600,l),
(696,1600,l),
(552,1212,l),
(456,854,l),
(382,854,l),
(416,1212,l),
(420,1600,l),
(100,1600,l),
(100,0,l)
);
}
);
};
layerId = "1DFA7D5B-2E97-4B89-827F-FB43F8066DC1";
shapes = (
{
closed = 1;
nodes = (
(406,0,l),
(406,360,l),
(550,640,l),
(732,0,l),
(1036,0,l),
(758,942,l),
(1024,1600,l),
(696,1600,l),
(552,1212,l),
(456,854,l),
(382,854,l),
(416,1212,l),
(420,1600,l),
(100,1600,l),
(100,0,l)
);
}
);
width = 1050;
},
{
anchors = (
{
name = bottom;
pos = (530,0);
},
{
name = top;
pos = (530,1600);
}
);
background = {
shapes = (
{
closed = 1;
nodes = (
(400,0,l),
(400,1600,l),
(100,1600,l),
(100,0,l)
);
},
{
closed = 1;
nodes = (
(960,0,l),
(674,838,l),
(444,646,l),
(646,0,l)
);
},
{
closed = 1;
nodes = (
(638,634,l),
(936,1600,l),
(622,1600,l),
(440,940,l),
(400,940,l),
(400,634,l)
);
}
);
};
layerId = "5013C991-8699-46CB-BB1C-82E334DBD38B";
shapes = (
{
closed = 1;
nodes = (
(386,0,l),
(386,368,l),
(498,610,l),
(672,0,l),
(976,0,l),
(698,942,l),
(964,1600,l),
(636,1600,l),
(492,1212,l),
(396,854,l),
(342,854,l),
(396,1212,l),
(400,1600,l),
(80,1600,l),
(80,0,l)
);
}
);
width = 993;
},
{
anchors = (
{
name = bottom;
pos = (298,0);
},
{
name = top;
pos = (278,1600);
}
);
background = {
anchors = (
{
name = bottom;
pos = (298,0);
},
{
name = top;
pos = (278,1600);
}
);
shapes = (
{
closed = 1;
nodes = (
(160,0,l),
(160,598,l),
(220,788,l),
(450,0,l),
(496,0,l),
(242,852,l),
(464,1600,l),
(420,1600,l),
(326,1282,l),
(182,790,l),
(160,790,l),
(160,1226,l),
(160,1600,l),
(120,1600,l),
(120,0,l)
);
}
);
};
layerId = "3D06B89B-468F-44E0-A3D7-A5BC6911123E";
shapes = (
{
closed = 1;
nodes = (
(160,0,l),
(160,598,l),
(220,788,l),
(450,0,l),
(496,0,l),
(242,852,l),
(464,1600,l),
(420,1600,l),
(326,1282,l),
(182,790,l),
(160,790,l),
(160,1226,l),
(160,1600,l),
(120,1600,l),
(120,0,l)
);
}
);
width = 521;
},
{
anchors = (
{
name = bottom;
pos = (356,0);
},
{
name = top;
pos = (341,1600);
}
);
background = {
anchors = (
{
name = bottom;
pos = (356,0);
},
{
name = top;
pos = (341,1600);
}
);
shapes = (
{
closed = 1;
nodes = (
(217,0,l),
(217,541,l),
(290,744,l),
(506,0,l),
(616,0,l),
(356,875,l),
(589,1600,l),
(474,1600,l),
(368,1265,l),
(236,806,l),
(206,806,l),
(219,1223,l),
(220,1600,l),
(110,1600,l),
(110,0,l)
);
}
);
};
layerId = "C9EB94EC-C68D-4931-B320-068DCAB9FADA";
shapes = (
{
closed = 1;
nodes = (
(217,0,l),
(217,541,l),
(290,744,l),
(506,0,l),
(616,0,l),
(356,875,l),
(589,1600,l),
(474,1600,l),
(368,1265,l),
(236,806,l),
(206,806,l),
(219,1223,l),
(220,1600,l),
(110,1600,l),
(110,0,l)
);
}
);
width = 641;
},
{
anchors = (
{
name = bottom;
pos = (410,0);
},
{
name = top;
pos = (395,1600);
}
);
background = {
anchors = (
{
name = bottom;
pos = (410,0);
},
{
name = top;
pos = (395,1600);
}
);
shapes = (
{
closed = 1;
nodes = (
(262,0,l),
(262,360,l),
(388,699,l),
(591,0,l),
(731,0,l),
(471,875,l),
(704,1600,l),
(559,1600,l),
(453,1265,l),
(301,737,l),
(256,737,l),
(264,1226,l),
(265,1600,l),
(125,1600,l),
(125,0,l)
);
}
);
};
layerId = "6F82CFD7-79D5-473B-9D61-BE5DF154BBF2";
shapes = (
{
closed = 1;
nodes = (
(262,0,l),
(262,360,l),
(388,699,l),
(591,0,l),
(731,0,l),
(471,875,l),
(704,1600,l),
(559,1600,l),
(453,1265,l),
(301,737,l),
(256,737,l),
(264,1226,l),
(265,1600,l),
(125,1600,l),
(125,0,l)
);
}
);
width = 741;
}
);
metricLeft = H;
unicode = 75;
},
{
glyphname = L;
kernLeft = H;
kernRight = L;
layers = (
{
anchors = (
{
name = bottom;
pos = (362,0);
},
{
name = center;
pos = (502,830);
},
{
name = top;
pos = (330,1600);
},
{
name = topright;
pos = (341,1300);
}
);
background = {
anchors = (
{
name = bottom;
pos = (362,0);
},
{
name = center;
pos = (330,800);
},
{
name = top;
pos = (330,1600);
},
{
name = topright;
pos = (498,1600);
}
);
shapes = (
{
closed = 1;
nodes = (
(578,0,l),
(578,76,l),
(220,76,l),
(220,1600,l),
(140,1600,l),
(140,0,l)
);
}
);
};
layerId = "3B122060-26E0-4730-9241-82784E6CB359";
shapes = (
{
closed = 1;
nodes = (
(578,0,l),
(578,76,l),
(220,76,l),
(220,1600,l),
(140,1600,l),
(140,0,l)
);
}
);
width = 597;
},
{
anchors = (
{
name = bottom;
pos = (446,0);
},
{
name = center;
pos = (681,840);
},
{
name = top;
pos = (458,1600);
},
{
name = topright;
pos = (477,1208);
}
);
background = {
anchors = (
{
name = bottom;
pos = (446,0);
},
{
name = center;
pos = (458,800);
},
{
name = top;
pos = (458,1600);
},
{
name = topright;
pos = (854,1600);
}
);
shapes = (
{
closed = 1;
nodes = (
(794,0,l),
(794,264,l),
(400,264,l),
(400,1600,l),
(100,1600,l),
(100,0,l)
);
}
);
};
layerId = "1DFA7D5B-2E97-4B89-827F-FB43F8066DC1";
shapes = (
{
closed = 1;
nodes = (
(794,0,l),
(794,264,l),
(400,264,l),
(400,1600,l),
(100,1600,l),
(100,0,l)
);
}
);
width = 820;
},
{
anchors = (
{
name = bottom;
pos = (428,0);
},
{
name = center;
pos = (660,840);
},
{
name = top;
pos = (438,1600);
},
{
name = topright;
pos = (483,1240);
}
);
layerId = "5013C991-8699-46CB-BB1C-82E334DBD38B";
shapes = (
{
closed = 1;
nodes = (
(774,0,l),
(774,264,l),
(380,264,l),
(380,1600,l),
(80,1600,l),
(80,0,l)
);
}
);
width = 804;
},
{
anchors = (
{
name = bottom;
pos = (282,0);
},
{
name = center;
pos = (401,830);
},
{
name = top;
pos = (250,1600);
},
{
name = topright;
pos = (265,1320);
}
);
background = {
anchors = (
{
name = bottom;
pos = (282,0);
},
{
name = center;
pos = (250,800);
},
{
name = top;
pos = (250,1600);
},
{
name = topright;
pos = (418,1600);
}
);
shapes = (
{
closed = 1;
nodes = (
(438,0,l),
(438,40,l),
(160,40,l),
(160,1600,l),
(120,1600,l),
(120,0,l)
);
}
);
};
layerId = "3D06B89B-468F-44E0-A3D7-A5BC6911123E";
shapes = (
{
closed = 1;
nodes = (
(438,0,l),
(438,40,l),
(160,40,l),
(160,1600,l),
(120,1600,l),
(120,0,l)
);
}
);
width = 450;
},
{
anchors = (
{
name = bottom;
pos = (319,0);
},
{
name = center;
pos = (476,828);
},
{
name = top;
pos = (297,1600);
},
{
name = topright;
pos = (320,1293);
}
);
background = {
anchors = (
{
name = bottom;
pos = (319,0);
},
{
name = center;
pos = (297,800);
},
{
name = top;
pos = (297,1600);
},
{
name = topright;
pos = (522,1600);
}
);
shapes = (
{
closed = 1;
nodes = (
(522,0,l),
(522,96,l),
(215,96,l),
(215,1600,l),
(110,1600,l),
(110,0,l)
);
}
);
};
layerId = "C9EB94EC-C68D-4931-B320-068DCAB9FADA";
shapes = (
{
closed = 1;
nodes = (
(522,0,l),
(522,96,l),
(215,96,l),
(215,1600,l),
(110,1600,l),
(110,0,l)
);
}
);
width = 542;
},
{
anchors = (
{
name = bottom;
pos = (378,0);
},
{
name = center;
pos = (564,830);
},
{
name = top;
pos = (357,1600);
},
{
name = topright;
pos = (385,1283);
}
);
background = {
anchors = (
{
name = bottom;
pos = (378,0);
},
{
name = center;
pos = (357,800);
},
{
name = top;
pos = (357,1600);
},
{
name = topright;
pos = (582,1600);
}
);
shapes = (
{
closed = 1;
nodes = (
(627,0,l),
(627,123,l),
(260,123,l),
(260,1600,l),
(125,1600,l),
(125,0,l)
);
}
);
};
layerId = "6F82CFD7-79D5-473B-9D61-BE5DF154BBF2";
shapes = (
{
closed = 1;
nodes = (
(627,0,l),
(627,123,l),
(260,123,l),
(260,1600,l),
(125,1600,l),
(125,0,l)
);
}
);
width = 637;
}
);
metricLeft = H;
unicode = 76;
},
{
glyphname = Lslash;
kernLeft = H;
kernRight = L;
layers = (
{
anchors = (
{
name = bottom;
pos = (362,0);
},
{
name = center;
pos = (330,800);
},
{
name = top;
pos = (330,1600);
},
{
name = topright;
pos = (498,1600);
}
);
background = {
anchors = (
{
name = bottom;
pos = (362,0);
},
{
name = center;
pos = (330,800);
},
{
name = top;
pos = (330,1600);
},
{
name = topright;
pos = (498,1600);
}
);
shapes = (
{
closed = 1;
nodes = (
(578,0,l),
(578,76,l),
(220,76,l),
(220,786,l),
(346,1200,l),
(266,1200,l),
(220,1048,l),
(220,1600,l),
(140,1600,l),
(140,784,l),
(20,394,l),
(100,394,l),
(140,522,l),
(140,0,l)
);
}
);
};
layerId = "3B122060-26E0-4730-9241-82784E6CB359";
shapes = (
{
closed = 1;
nodes = (
(578,0,l),
(578,76,l),
(220,76,l),
(220,786,l),
(346,1200,l),
(266,1200,l),
(220,1048,l),
(220,1600,l),
(140,1600,l),
(140,784,l),
(20,394,l),
(100,394,l),
(140,522,l),
(140,0,l)
);
}
);
width = 597;
},
{
anchors = (
{
name = bottom;
pos = (586,0);
},
{
name = center;
pos = (598,800);
},
{
name = top;
pos = (598,1600);
},
{
name = topright;
pos = (994,1600);
}
);
background = {
anchors = (
{
name = bottom;
pos = (586,0);
},
{
name = center;
pos = (598,800);
},
{
name = top;
pos = (598,1600);
},
{
name = topright;
pos = (994,1600);
}
);
shapes = (
{
closed = 1;
nodes = (
(934,0,l),
(934,264,l),
(540,264,l),
(540,786,l),
(800,1200,l),
(574,1200,l),
(540,1132,l),
(540,1600,l),
(240,1600,l),
(240,744,l),
(0,360,l),
(206,360,l),
(240,432,l),
(240,0,l)
);
}
);
};
layerId = "1DFA7D5B-2E97-4B89-827F-FB43F8066DC1";
shapes = (
{
closed = 1;
nodes = (
(934,0,l),
(934,264,l),
(540,264,l),
(540,786,l),
(800,1200,l),
(574,1200,l),
(540,1132,l),
(540,1600,l),
(240,1600,l),
(240,744,l),
(0,360,l),
(206,360,l),
(240,432,l),
(240,0,l)
);
}
);
width = 960;
},
{
anchors = (
{
name = bottom;
pos = (584,0);
},
{
name = center;
pos = (594,800);
},
{
name = top;
pos = (594,1600);
},
{
name = topright;
pos = (990,1600);
}
);
layerId = "5013C991-8699-46CB-BB1C-82E334DBD38B";
shapes = (
{
closed = 1;
nodes = (
(930,0,l),
(930,264,l),
(536,264,l),
(536,778,l),
(800,1200,l),
(574,1200,l),
(536,1124,l),
(536,1600,l),
(236,1600,l),
(236,738,l),
(0,360,l),
(206,360,l),
(236,424,l),
(236,0,l)
);
}
);
width = 960;
},
{
anchors = (
{
name = bottom;
pos = (284,0);
},
{
name = center;
pos = (252,800);
},
{
name = top;
pos = (252,1600);
},
{
name = topright;
pos = (420,1600);
}
);
background = {
anchors = (
{
name = bottom;
pos = (284,0);
},
{
name = center;
pos = (252,800);
},
{
name = top;
pos = (252,1600);
},
{
name = topright;
pos = (420,1600);
}
);
shapes = (
{
closed = 1;
nodes = (
(440,0,l),
(440,40,l),
(162,40,l),
(162,814,l),
(240,1200,l),
(200,1200,l),
(162,1008,l),
(162,1600,l),
(122,1600,l),
(122,806,l),
(40,400,l),
(80,400,l),
(122,614,l),
(122,0,l)
);
}
);
};
layerId = "3D06B89B-468F-44E0-A3D7-A5BC6911123E";
shapes = (
{
closed = 1;
nodes = (
(440,0,l),
(440,40,l),
(162,40,l),
(162,814,l),
(240,1200,l),
(200,1200,l),
(162,1008,l),
(162,1600,l),
(122,1600,l),
(122,806,l),
(40,400,l),
(80,400,l),
(122,614,l),
(122,0,l)
);
}
);
width = 452;
},
{
anchors = (
{
name = bottom;
pos = (359,0);
},
{
name = center;
pos = (338,800);
},
{
name = top;
pos = (338,1600);
},
{
name = topright;
pos = (563,1600);
}
);
background = {
anchors = (
{
name = bottom;
pos = (359,0);
},
{
name = center;
pos = (338,800);
},
{
name = top;
pos = (338,1600);
},
{
name = topright;
pos = (563,1600);
}
);
shapes = (
{
closed = 1;
nodes = (
(563,0,l),
(563,96,l),
(256,96,l),
(256,805,l),
(380,1200,l),
(294,1200,l),
(256,1037,l),
(256,1600,l),
(151,1600,l),
(151,789,l),
(30,390,l),
(112,390,l),
(151,567,l),
(151,0,l)
);
}
);
};
layerId = "C9EB94EC-C68D-4931-B320-068DCAB9FADA";
shapes = (
{
closed = 1;
nodes = (
(563,0,l),
(563,96,l),
(256,96,l),
(256,805,l),
(380,1200,l),
(294,1200,l),
(256,1037,l),
(256,1600,l),
(151,1600,l),
(151,789,l),
(30,390,l),
(112,390,l),
(151,567,l),
(151,0,l)
);
}
);
width = 583;
},
{
anchors = (
{
name = bottom;
pos = (418,0);
},
{
name = center;
pos = (397,800);
},
{
name = top;
pos = (397,1600);
},
{
name = topright;
pos = (622,1600);
}
);
background = {
anchors = (
{
name = bottom;
pos = (418,0);
},
{
name = center;
pos = (397,800);
},
{
name = top;
pos = (397,1600);
},
{
name = topright;
pos = (622,1600);
}
);
shapes = (
{
closed = 1;
nodes = (
(667,0,l),
(667,123,l),
(300,123,l),
(300,786,l),
(460,1200,l),
(343,1200,l),
(300,1069,l),
(300,1600,l),
(165,1600,l),
(165,774,l),
(15,386,l),
(127,386,l),
(165,500,l),
(165,0,l)
);
}
);
};
layerId = "6F82CFD7-79D5-473B-9D61-BE5DF154BBF2";
shapes = (
{
closed = 1;
nodes = (
(667,0,l),
(667,123,l),
(300,123,l),
(300,786,l),
(460,1200,l),
(343,1200,l),
(300,1069,l),
(300,1600,l),
(165,1600,l),
(165,774,l),
(15,386,l),
(127,386,l),
(165,500,l),
(165,0,l)
);
}
);
width = 677;
}
);
metricRight = L;
unicode = 321;
},
{
glyphname = M;
kernLeft = H;
kernRight = H;
layers = (
{
anchors = (
{
name = bottom;
pos = (548,0);
},
{
name = top;
pos = (548,1600);
}
);
background = {
anchors = (
{
name = bottom;
pos = (548,0);
},
{
name = top;
pos = (548,1600);
}
);
shapes = (
{
closed = 1;
nodes = (
(220,0,l),
(220,504,l),
(220,1524,l),
(300,1524,l),
(414,452,l),
(460,10,l),
(634,10,l),
(680,452,l),
(794,1524,l),
(874,1524,l),
(874,504,l),
(874,0,l),
(954,0,l),
(954,1600,l),
(722,1600,l),
(648,918,l),
(564,86,l),
(530,86,l),
(446,918,l),
(372,1600,l),
(140,1600,l),
(140,0,l)
);
}
);
};
layerId = "3B122060-26E0-4730-9241-82784E6CB359";
shapes = (
{
closed = 1;
nodes = (
(220,0,l),
(220,504,l),
(220,1524,l),
(300,1524,l),
(414,452,l),
(460,10,l),
(634,10,l),
(680,452,l),
(794,1524,l),
(874,1524,l),
(874,504,l),
(874,0,l),
(954,0,l),
(954,1600,l),
(722,1600,l),
(648,918,l),
(564,86,l),
(530,86,l),
(446,918,l),
(372,1600,l),
(140,1600,l),
(140,0,l)
);
}
);
width = 1094;
},
{
anchors = (
{
name = bottom;
pos = (846,0);
},
{
name = top;
pos = (846,1600);
}
);
background = {
anchors = (
{
name = bottom;
pos = (846,0);
},
{
name = top;
pos = (846,1600);
}
);
shapes = (
{
closed = 1;
nodes = (
(410,0,l),
(410,492,l),
(354,1336,l),
(446,1336,l),
(532,472,l),
(654,0,l),
(1026,0,l),
(1160,472,l),
(1244,1336,l),
(1338,1336,l),
(1280,492,l),
(1280,0,l),
(1590,0,l),
(1590,1600,l),
(1050,1600,l),
(916,994,l),
(892,264,l),
(800,264,l),
(774,994,l),
(642,1600,l),
(100,1600,l),
(100,0,l)
);
}
);
};
layerId = "1DFA7D5B-2E97-4B89-827F-FB43F8066DC1";
shapes = (
{
closed = 1;
nodes = (
(410,0,l),
(410,492,l),
(354,1336,l),
(446,1336,l),
(532,472,l),
(654,0,l),
(1026,0,l),
(1160,472,l),
(1244,1336,l),
(1338,1336,l),
(1280,492,l),
(1280,0,l),
(1590,0,l),
(1590,1600,l),
(1050,1600,l),
(916,994,l),
(892,264,l),
(800,264,l),
(774,994,l),
(642,1600,l),
(100,1600,l),
(100,0,l)
);
}
);
width = 1690;
},
{
anchors = (
{
name = bottom;
pos = (746,0);
},
{
name = top;
pos = (746,1600);
}
);
layerId = "5013C991-8699-46CB-BB1C-82E334DBD38B";
shapes = (
{
closed = 1;
nodes = (
(380,0,l),
(380,492,l),
(324,1336,l),
(376,1336,l),
(462,472,l),
(584,0,l),
(906,0,l),
(1030,472,l),
(1114,1336,l),
(1168,1336,l),
(1110,492,l),
(1110,0,l),
(1410,0,l),
(1410,1600,l),
(930,1600,l),
(796,994,l),
(772,264,l),
(720,264,l),
(694,994,l),
(562,1600,l),
(80,1600,l),
(80,0,l)
);
}
);
width = 1490;
},
{
anchors = (
{
name = bottom;
pos = (408,0);
},
{
name = top;
pos = (408,1600);
}
);
background = {
anchors = (
{
name = bottom;
pos = (408,0);
},
{
name = top;
pos = (408,1600);
}
);
shapes = (
{
closed = 1;
nodes = (
(160,0,l),
(160,548,l),
(160,1560,l),
(196,1560,l),
(314,452,l),
(358,10,l),
(456,10,l),
(500,452,l),
(618,1560,l),
(654,1560,l),
(654,548,l),
(654,0,l),
(694,0,l),
(694,1600,l),
(582,1600,l),
(506,918,l),
(420,50,l),
(394,50,l),
(308,918,l),
(232,1600,l),
(120,1600,l),
(120,0,l)
);
}
);
};
layerId = "3D06B89B-468F-44E0-A3D7-A5BC6911123E";
shapes = (
{
closed = 1;
nodes = (
(160,0,l),
(160,548,l),
(160,1560,l),
(196,1560,l),
(314,452,l),
(358,10,l),
(456,10,l),
(500,452,l),
(618,1560,l),
(654,1560,l),
(654,548,l),
(654,0,l),
(694,0,l),
(694,1600,l),
(582,1600,l),
(506,918,l),
(420,50,l),
(394,50,l),
(308,918,l),
(232,1600,l),
(120,1600,l),
(120,0,l)
);
}
);
width = 814;
},
{
anchors = (
{
name = bottom;
pos = (492,0);
},
{
name = top;
pos = (492,1600);
}
);
background = {
anchors = (
{
name = bottom;
pos = (492,0);
},
{
name = top;
pos = (492,1600);
}
);
shapes = (
{
closed = 1;
nodes = (
(216,0,l),
(216,462,l),
(200,1504,l),
(242,1504,l),
(352,458,l),
(414,8,l),
(568,8,l),
(632,458,l),
(742,1504,l),
(786,1504,l),
(768,462,l),
(768,0,l),
(874,0,l),
(874,1600,l),
(670,1600,l),
(578,938,l),
(510,104,l),
(474,104,l),
(404,938,l),
(314,1600,l),
(110,1600,l),
(110,0,l)
);
}
);
};
layerId = "C9EB94EC-C68D-4931-B320-068DCAB9FADA";
shapes = (
{
closed = 1;
nodes = (
(216,0,l),
(216,462,l),
(200,1504,l),
(242,1504,l),
(352,458,l),
(414,8,l),
(568,8,l),
(632,458,l),
(742,1504,l),
(786,1504,l),
(768,462,l),
(768,0,l),
(874,0,l),
(874,1600,l),
(670,1600,l),
(578,938,l),
(510,104,l),
(474,104,l),
(404,938,l),
(314,1600,l),
(110,1600,l),
(110,0,l)
);
}
);
width = 984;
},
{
anchors = (
{
name = bottom;
pos = (618,0);
},
{
name = top;
pos = (618,1600);
}
);
background = {
anchors = (
{
name = bottom;
pos = (618,0);
},
{
name = top;
pos = (618,1600);
}
);
shapes = (
{
closed = 1;
nodes = (
(263,0,l),
(263,501,l),
(249,1477,l),
(332,1477,l),
(439,457,l),
(504,8,l),
(727,8,l),
(795,457,l),
(902,1477,l),
(985,1477,l),
(971,501,l),
(971,0,l),
(1108,0,l),
(1108,1600,l),
(799,1600,l),
(710,937,l),
(641,131,l),
(593,131,l),
(523,937,l),
(435,1600,l),
(125,1600,l),
(125,0,l)
);
}
);
};
layerId = "6F82CFD7-79D5-473B-9D61-BE5DF154BBF2";
shapes = (
{
closed = 1;
nodes = (
(263,0,l),
(263,501,l),
(249,1477,l),
(332,1477,l),
(439,457,l),
(504,8,l),
(727,8,l),
(795,457,l),
(902,1477,l),
(985,1477,l),
(971,501,l),
(971,0,l),
(1108,0,l),
(1108,1600,l),
(799,1600,l),
(710,937,l),
(641,131,l),
(593,131,l),
(523,937,l),
(435,1600,l),
(125,1600,l),
(125,0,l)
);
}
);
width = 1233;
}
);
metricLeft = H;
metricRight = H;
unicode = 77;
},
{
glyphname = N;
kernLeft = H;
kernRight = H;
layers = (
{
anchors = (
{
name = bottom;
pos = (462,0);
},
{
name = top;
pos = (476,1600);
}
);
background = {
anchors = (
{
name = bottom;
pos = (462,0);
},
{
name = top;
pos = (476,1600);
}
);
shapes = (
{
closed = 1;
nodes = (
(220,0,l),
(220,818,l),
(220,1524,l),
(302,1524,l),
(432,600,l),
(518,0,l),
(750,0,l),
(750,1600,l),
(670,1600,l),
(670,1056,l),
(670,76,l),
(588,76,l),
(442,1096,l),
(370,1600,l),
(140,1600,l),
(140,0,l)
);
}
);
};
layerId = "3B122060-26E0-4730-9241-82784E6CB359";
shapes = (
{
closed = 1;
nodes = (
(220,0,l),
(220,818,l),
(220,1524,l),
(302,1524,l),
(432,600,l),
(518,0,l),
(750,0,l),
(750,1600,l),
(670,1600,l),
(670,1056,l),
(670,76,l),
(588,76,l),
(442,1096,l),
(370,1600,l),
(140,1600,l),
(140,0,l)
);
}
);
width = 890;
},
{
anchors = (
{
name = bottom;
pos = (614,0);
},
{
name = top;
pos = (614,1600);
}
);
background = {
anchors = (
{
name = bottom;
pos = (614,0);
},
{
name = top;
pos = (614,1600);
}
);
shapes = (
{
closed = 1;
nodes = (
(400,0,l),
(374,614,l),
(322,1338,l),
(418,1338,l),
(500,524,l),
(620,0,l),
(1138,0,l),
(1138,1600,l),
(836,1600,l),
(860,914,l),
(916,264,l),
(824,264,l),
(714,1090,l),
(594,1600,l),
(100,1600,l),
(100,0,l)
);
}
);
};
layerId = "1DFA7D5B-2E97-4B89-827F-FB43F8066DC1";
shapes = (
{
closed = 1;
nodes = (
(400,0,l),
(374,614,l),
(322,1338,l),
(418,1338,l),
(500,524,l),
(620,0,l),
(1138,0,l),
(1138,1600,l),
(836,1600,l),
(860,914,l),
(916,264,l),
(824,264,l),
(714,1090,l),
(594,1600,l),
(100,1600,l),
(100,0,l)
);
}
);
width = 1238;
},
{
anchors = (
{
name = bottom;
pos = (544,0);
},
{
name = top;
pos = (544,1600);
}
);
background = {
shapes = (
{
closed = 1;
nodes = (
(372,0,l),
(362,614,l),
(312,1336,l),
(368,1336,l),
(472,582,l),
(660,0,l),
(1138,0,l),
(1138,1600,l),
(818,1600,l),
(828,914,l),
(916,264,l),
(864,264,l),
(694,1070,l),
(534,1600,l),
(50,1600,l),
(50,0,l)
);
}
);
};
layerId = "5013C991-8699-46CB-BB1C-82E334DBD38B";
shapes = (
{
closed = 1;
nodes = (
(370,0,l),
(344,614,l),
(292,1338,l),
(348,1338,l),
(430,524,l),
(550,0,l),
(1006,0,l),
(1006,1600,l),
(716,1600,l),
(740,914,l),
(796,264,l),
(744,264,l),
(634,1090,l),
(514,1600,l),
(80,1600,l),
(80,0,l)
);
}
);
width = 1086;
},
{
anchors = (
{
name = bottom;
pos = (322,0);
},
{
name = top;
pos = (336,1600);
}
);
background = {
anchors = (
{
name = bottom;
pos = (322,0);
},
{
name = top;
pos = (336,1600);
}
);
shapes = (
{
closed = 1;
nodes = (
(160,0,l),
(160,680,l),
(160,1560,l),
(196,1560,l),
(332,600,l),
(418,0,l),
(530,0,l),
(530,1600,l),
(490,1600,l),
(490,1032,l),
(490,40,l),
(454,40,l),
(302,1096,l),
(230,1600,l),
(120,1600,l),
(120,0,l)
);
}
);
};
layerId = "3D06B89B-468F-44E0-A3D7-A5BC6911123E";
shapes = (
{
closed = 1;
nodes = (
(160,0,l),
(160,680,l),
(160,1560,l),
(196,1560,l),
(332,600,l),
(418,0,l),
(530,0,l),
(530,1600,l),
(490,1600,l),
(490,1032,l),
(490,40,l),
(454,40,l),
(302,1096,l),
(230,1600,l),
(120,1600,l),
(120,0,l)
);
}
);
width = 650;
},
{
anchors = (
{
name = bottom;
pos = (378,0);
},
{
name = top;
pos = (388,1600);
}
);
background = {
anchors = (
{
name = bottom;
pos = (378,0);
},
{
name = top;
pos = (388,1600);
}
);
shapes = (
{
closed = 1;
nodes = (
(212,0,l),
(206,596,l),
(190,1504,l),
(236,1504,l),
(356,582,l),
(452,0,l),
(650,0,l),
(650,1600,l),
(546,1600,l),
(552,1054,l),
(570,96,l),
(526,96,l),
(386,1094,l),
(302,1600,l),
(110,1600,l),
(110,0,l)
);
}
);
};
layerId = "C9EB94EC-C68D-4931-B320-068DCAB9FADA";
shapes = (
{
closed = 1;
nodes = (
(212,0,l),
(206,596,l),
(190,1504,l),
(236,1504,l),
(356,582,l),
(452,0,l),
(650,0,l),
(650,1600,l),
(546,1600,l),
(552,1054,l),
(570,96,l),
(526,96,l),
(386,1094,l),
(302,1600,l),
(110,1600,l),
(110,0,l)
);
}
);
width = 760;
},
{
anchors = (
{
name = bottom;
pos = (495,0);
},
{
name = top;
pos = (505,1600);
}
);
background = {
anchors = (
{
name = bottom;
pos = (495,0);
},
{
name = top;
pos = (505,1600);
}
);
shapes = (
{
closed = 1;
nodes = (
(261,0,l),
(253,596,l),
(241,1478,l),
(327,1478,l),
(445,582,l),
(539,0,l),
(843,0,l),
(843,1600,l),
(707,1600,l),
(713,1054,l),
(727,124,l),
(643,124,l),
(505,1094,l),
(421,1600,l),
(125,1600,l),
(125,0,l)
);
}
);
};
layerId = "6F82CFD7-79D5-473B-9D61-BE5DF154BBF2";
shapes = (
{
closed = 1;
nodes = (
(261,0,l),
(253,596,l),
(241,1478,l),
(327,1478,l),
(445,582,l),
(539,0,l),
(843,0,l),
(843,1600,l),
(707,1600,l),
(713,1054,l),
(727,124,l),
(643,124,l),
(505,1094,l),
(421,1600,l),
(125,1600,l),
(125,0,l)
);
}
);
width = 968;
}
);
metricLeft = H;
metricRight = H;
unicode = 78;
},
{
glyphname = Eng;
kernLeft = H;
kernRight = H;
layers = (
{
background = {
shapes = (
{
closed = 1;
nodes = (
(702,-404,o),
(750,-328,o),
(750,-196,cs),
(750,46,l),
(674,46,l),
(674,-200,ls),
(674,-292,o),
(646,-334,o),
(522,-334,cs),
(468,-334,o),
(428,-332,o),
(398,-328,c),
(398,-392,l),
(434,-400,o),
(494,-404,o),
(526,-404,cs)
);
},
{
ref = N;
}
);
};
layerId = "3B122060-26E0-4730-9241-82784E6CB359";
shapes = (
{
closed = 1;
nodes = (
(702,-404,o),
(750,-328,o),
(750,-196,cs),
(750,46,l),
(674,46,l),
(674,-200,ls),
(674,-292,o),
(646,-334,o),
(522,-334,cs),
(468,-334,o),
(428,-332,o),
(398,-328,c),
(398,-392,l),
(434,-400,o),
(494,-404,o),
(526,-404,cs)
);
},
{
ref = N;
}
);
width = 890;
},
{
background = {
shapes = (
{
closed = 1;
nodes = (
(974,-422,o),
(1118,-320,o),
(1118,-66,cs),
(1118,184,l),
(856,184,l),
(856,-94,ls),
(856,-166,o),
(774,-194,o),
(668,-194,cs),
(630,-194,o),
(558,-192,o),
(522,-190,c),
(522,-408,l),
(570,-416,o),
(622,-422,o),
(668,-422,cs)
);
},
{
ref = N;
}
);
};
layerId = "1DFA7D5B-2E97-4B89-827F-FB43F8066DC1";
shapes = (
{
closed = 1;
nodes = (
(994,-422,o),
(1138,-320,o),
(1138,-66,cs),
(1138,184,l),
(876,184,l),
(876,-94,ls),
(876,-166,o),
(794,-194,o),
(688,-194,cs),
(650,-194,o),
(578,-192,o),
(542,-190,c),
(542,-408,l),
(590,-416,o),
(642,-422,o),
(688,-422,cs)
);
},
{
ref = N;
}
);
width = 1238;
},
{
background = {
shapes = (
{
closed = 1;
nodes = (
(488,-400,o),
(530,-348,o),
(530,-220,cs),
(530,22,l),
(490,22,l),
(490,-220,ls),
(490,-330,o),
(460,-360,o),
(364,-360,cs),
(322,-360,o),
(290,-358,o),
(262,-352,c),
(262,-390,l),
(288,-396,o),
(338,-400,o),
(368,-400,cs)
);
},
{
ref = N;
}
);
};
layerId = "3D06B89B-468F-44E0-A3D7-A5BC6911123E";
shapes = (
{
closed = 1;
nodes = (
(488,-400,o),
(530,-348,o),
(530,-220,cs),
(530,22,l),
(490,22,l),
(490,-220,ls),
(490,-330,o),
(460,-360,o),
(364,-360,cs),
(322,-360,o),
(290,-358,o),
(262,-352,c),
(262,-390,l),
(288,-396,o),
(338,-400,o),
(368,-400,cs)
);
},
{
ref = N;
}
);
width = 650;
},
{
layerId = "5013C991-8699-46CB-BB1C-82E334DBD38B";
shapes = (
{
closed = 1;
nodes = (
(862,-422,o),
(1006,-320,o),
(1006,-66,cs),
(1006,184,l),
(744,184,l),
(744,-94,ls),
(744,-166,o),
(662,-194,o),
(556,-194,cs),
(518,-194,o),
(446,-192,o),
(410,-190,c),
(410,-408,l),
(458,-416,o),
(510,-422,o),
(556,-422,cs)
);
},
{
ref = N;
}
);
width = 1086;
},
{
background = {
shapes = (
{
closed = 1;
nodes = (
(608,-400,o),
(650,-348,o),
(650,-220,cs),
(650,22,l),
(572,22,l),
(572,-220,ls),
(572,-304,o),
(554,-326,o),
(484,-326,cs),
(442,-326,o),
(410,-324,o),
(382,-318,c),
(382,-390,l),
(408,-396,o),
(458,-400,o),
(488,-400,cs)
);
},
{
ref = N;
}
);
};
layerId = "C9EB94EC-C68D-4931-B320-068DCAB9FADA";
shapes = (
{
closed = 1;
nodes = (
(608,-400,o),
(650,-348,o),
(650,-220,cs),
(650,22,l),
(572,22,l),
(572,-220,ls),
(572,-304,o),
(554,-326,o),
(484,-326,cs),
(442,-326,o),
(410,-324,o),
(382,-318,c),
(382,-390,l),
(408,-396,o),
(458,-400,o),
(488,-400,cs)
);
},
{
ref = N;
}
);
width = 760;
},
{
background = {
shapes = (
{
closed = 1;
nodes = (
(780,-404,o),
(828,-328,o),
(828,-196,cs),
(828,46,l),
(718,46,l),
(718,-200,ls),
(718,-274,o),
(684,-304,o),
(600,-304,cs),
(546,-304,o),
(506,-302,o),
(476,-298,c),
(476,-392,l),
(512,-400,o),
(572,-404,o),
(604,-404,cs)
);
},
{
ref = N;
}
);
};
layerId = "6F82CFD7-79D5-473B-9D61-BE5DF154BBF2";
shapes = (
{
closed = 1;
nodes = (
(795,-404,o),
(843,-328,o),
(843,-196,cs),
(843,46,l),
(733,46,l),
(733,-200,ls),
(733,-274,o),
(699,-304,o),
(615,-304,cs),
(561,-304,o),
(521,-302,o),
(491,-298,c),
(491,-392,l),
(527,-400,o),
(587,-404,o),
(619,-404,cs)
);
},
{
ref = N;
}
);
width = 968;
}
);
metricLeft = N;
metricRight = N;
unicode = 330;
},
{
glyphname = O;
kernLeft = O;
kernRight = O;
layers = (
{
anchors = (
{
name = bottom;
pos = (350,0);
},
{
name = center;
pos = (350,800);
},
{
name = ogonek;
pos = (476,32);
},
{
name = top;
pos = (350,1600);
},
{
name = topleft;
pos = (132,1600);
},
{
name = topright;
pos = (486,1860);
}
);
background = {
anchors = (
{
name = bottom;
pos = (350,0);
},
{
name = center;
pos = (350,800);
},
{
name = ogonek;
pos = (476,32);
},
{
name = top;
pos = (350,1600);
},
{
name = topleft;
pos = (132,1600);
},
{
name = topright;
pos = (620,1600);
}
);
shapes = (
{
closed = 1;
nodes = (
(516,-10,o),
(584,52,o),
(586,210,cs),
(592,670,o),
(592,948,o),
(586,1388,cs),
(584,1546,o),
(516,1610,o),
(350,1610,cs),
(184,1610,o),
(116,1546,o),
(114,1388,cs),
(108,948,o),
(108,670,o),
(114,210,cs),
(116,52,o),
(184,-10,o),
(350,-10,cs)
);
},
{
closed = 1;
nodes = (
(230,66,o),
(196,96,o),
(194,210,cs),
(186,702,o),
(186,922,o),
(194,1388,cs),
(196,1502,o),
(230,1534,o),
(350,1534,cs),
(470,1534,o),
(504,1502,o),
(506,1388,cs),
(514,908,o),
(514,688,o),
(506,210,cs),
(504,96,o),
(470,66,o),
(350,66,cs)
);
}
);
};
layerId = "3B122060-26E0-4730-9241-82784E6CB359";
shapes = (
{
closed = 1;
nodes = (
(516,-10,o),
(584,52,o),
(586,210,cs),
(592,670,o),
(592,948,o),
(586,1388,cs),
(584,1546,o),
(516,1610,o),
(350,1610,cs),
(184,1610,o),
(116,1546,o),
(114,1388,cs),
(108,948,o),
(108,670,o),
(114,210,cs),
(116,52,o),
(184,-10,o),
(350,-10,cs)
);
},
{
closed = 1;
nodes = (
(230,66,o),
(196,96,o),
(194,210,cs),
(186,702,o),
(186,922,o),
(194,1388,cs),
(196,1502,o),
(230,1534,o),
(350,1534,cs),
(470,1534,o),
(504,1502,o),
(506,1388,cs),
(514,908,o),
(514,688,o),
(506,210,cs),
(504,96,o),
(470,66,o),
(350,66,cs)
);
}
);
width = 700;
},
{
anchors = (
{
name = bottom;
pos = (528,0);
},
{
name = center;
pos = (528,800);
},
{
name = ogonek;
pos = (724,40);
},
{
name = top;
pos = (528,1600);
},
{
name = topleft;
pos = (60,1600);
},
{
name = topright;
pos = (821,1960);
}
);
background = {
anchors = (
{
name = bottom;
pos = (528,0);
},
{
name = center;
pos = (528,800);
},
{
name = ogonek;
pos = (724,40);
},
{
name = top;
pos = (528,1600);
},
{
name = topleft;
pos = (60,1600);
},
{
name = topright;
pos = (994,1600);
}
);
shapes = (
{
closed = 1;
nodes = (
(830,-20,o),
(956,94,o),
(966,382,cs),
(978,680,o),
(978,918,o),
(966,1220,cs),
(956,1506,o),
(830,1620,o),
(526,1620,cs),
(216,1620,o),
(90,1506,o),
(84,1220,cs),
(78,920,o),
(78,682,o),
(84,382,cs),
(90,94,o),
(216,-20,o),
(526,-20,cs)
);
},
{
closed = 1;
nodes = (
(428,224,o),
(386,264,o),
(384,366,cs),
(370,658,o),
(370,944,o),
(384,1236,cs),
(386,1336,o),
(428,1376,o),
(526,1376,cs),
(624,1376,o),
(664,1336,o),
(666,1236,cs),
(680,944,o),
(680,658,o),
(666,366,cs),
(664,264,o),
(624,224,o),
(526,224,cs)
);
}
);
};
layerId = "1DFA7D5B-2E97-4B89-827F-FB43F8066DC1";
shapes = (
{
closed = 1;
nodes = (
(830,-20,o),
(956,94,o),
(966,382,cs),
(978,680,o),
(978,918,o),
(966,1220,cs),
(956,1506,o),
(830,1620,o),
(526,1620,cs),
(216,1620,o),
(90,1506,o),
(84,1220,cs),
(78,920,o),
(78,682,o),
(84,382,cs),
(90,94,o),
(216,-20,o),
(526,-20,cs)
);
},
{
closed = 1;
nodes = (
(428,224,o),
(386,264,o),
(384,366,cs),
(370,658,o),
(370,944,o),
(384,1236,cs),
(386,1336,o),
(428,1376,o),
(526,1376,cs),
(624,1376,o),
(664,1336,o),
(666,1236,cs),
(680,944,o),
(680,658,o),
(666,366,cs),
(664,264,o),
(624,224,o),
(526,224,cs)
);
}
);
width = 1055;
},
{
anchors = (
{
name = bottom;
pos = (498,0);
},
{
name = center;
pos = (498,800);
},
{
name = ogonek;
pos = (612,6);
},
{
name = top;
pos = (498,1600);
},
{
name = topleft;
pos = (30,1600);
},
{
name = topright;
pos = (768,1960);
}
);
background = {
shapes = (
{
closed = 1;
nodes = (
(490,-10,o),
(624,108,o),
(624,254,cs),
(624,1350,ls),
(624,1492,o),
(490,1610,o),
(310,1610,cs),
(132,1610,o),
(-2,1492,o),
(-2,1350,cs),
(-2,254,ls),
(-2,108,o),
(132,-10,o),
(310,-10,cs)
);
},
{
closed = 1;
nodes = (
(258,204,o),
(218,236,o),
(218,280,cs),
(218,1322,ls),
(218,1364,o),
(258,1396,o),
(310,1396,cs),
(364,1396,o),
(404,1364,o),
(404,1322,cs),
(404,280,ls),
(404,236,o),
(364,204,o),
(310,204,cs)
);
}
);
};
layerId = "5013C991-8699-46CB-BB1C-82E334DBD38B";
shapes = (
{
closed = 1;
nodes = (
(790,-20,o),
(906,94,o),
(916,382,cs),
(926,644,o),
(926,954,o),
(916,1220,cs),
(906,1506,o),
(790,1620,o),
(496,1620,cs),
(202,1620,o),
(80,1506,o),
(74,1220,cs),
(68,958,o),
(68,644,o),
(74,382,cs),
(80,94,o),
(202,-20,o),
(496,-20,cs)
);
},
{
closed = 1;
nodes = (
(420,224,o),
(376,260,o),
(374,326,cs),
(362,598,o),
(362,1004,o),
(374,1276,cs),
(376,1340,o),
(420,1376,o),
(496,1376,cs),
(572,1376,o),
(614,1340,o),
(616,1276,cs),
(628,1004,o),
(628,598,o),
(616,326,cs),
(614,260,o),
(574,224,o),
(496,224,cs)
);
}
);
width = 993;
},
{
anchors = (
{
name = bottom;
pos = (286,0);
},
{
name = center;
pos = (286,800);
},
{
name = ogonek;
pos = (384,20);
},
{
name = top;
pos = (286,1600);
},
{
name = topleft;
pos = (68,1600);
},
{
name = topright;
pos = (432,1840);
}
);
background = {
anchors = (
{
name = bottom;
pos = (286,0);
},
{
name = center;
pos = (286,800);
},
{
name = ogonek;
pos = (384,20);
},
{
name = top;
pos = (286,1600);
},
{
name = topleft;
pos = (68,1600);
},
{
name = topright;
pos = (504,1600);
}
);
shapes = (
{
closed = 1;
nodes = (
(412,-10,o),
(462,42,o),
(462,170,cs),
(466,620,o),
(466,978,o),
(462,1428,cs),
(462,1558,o),
(412,1610,o),
(286,1610,cs),
(160,1610,o),
(112,1558,o),
(110,1428,cs),
(102,978,o),
(102,620,o),
(110,170,cs),
(112,42,o),
(160,-10,o),
(286,-10,cs)
);
},
{
closed = 1;
nodes = (
(186,30,o),
(152,64,o),
(150,170,cs),
(142,628,o),
(140,988,o),
(150,1428,cs),
(152,1536,o),
(186,1570,o),
(286,1570,cs),
(386,1570,o),
(420,1536,o),
(422,1428,cs),
(428,988,o),
(432,628,o),
(422,170,cs),
(420,64,o),
(386,30,o),
(286,30,cs)
);
}
);
};
layerId = "3D06B89B-468F-44E0-A3D7-A5BC6911123E";
shapes = (
{
closed = 1;
nodes = (
(412,-10,o),
(462,42,o),
(462,170,cs),
(466,620,o),
(466,978,o),
(462,1428,cs),
(462,1558,o),
(412,1610,o),
(286,1610,c),
(160,1610,o),
(112,1558,o),
(110,1428,cs),
(102,978,o),
(102,620,o),
(110,170,cs),
(112,42,o),
(160,-10,o),
(286,-10,cs)
);
},
{
closed = 1;
nodes = (
(186,30,o),
(152,64,o),
(150,170,cs),
(142,628,o),
(140,988,o),
(150,1428,cs),
(152,1536,o),
(186,1570,o),
(286,1570,c),
(386,1570,o),
(420,1536,o),
(422,1428,cs),
(428,988,o),
(432,628,o),
(422,170,cs),
(420,64,o),
(386,30,o),
(286,30,cs)
);
}
);
width = 569;
},
{
anchors = (
{
name = bottom;
pos = (339,0);
},
{
name = center;
pos = (339,800);
},
{
name = ogonek;
pos = (441,17);
},
{
name = top;
pos = (339,1600);
},
{
name = topleft;
pos = (58,1600);
},
{
name = topright;
pos = (499,1860);
}
);
background = {
anchors = (
{
name = bottom;
pos = (339,0);
},
{
name = center;
pos = (339,800);
},
{
name = ogonek;
pos = (441,17);
},
{
name = top;
pos = (339,1600);
},
{
name = topleft;
pos = (58,1600);
},
{
name = topright;
pos = (619,1600);
}
);
shapes = (
{
closed = 1;
nodes = (
(506,-13,o),
(573,55,o),
(575,223,cs),
(581,626,o),
(581,972,o),
(575,1376,cs),
(573,1545,o),
(506,1613,o),
(338,1613,cs),
(170,1613,o),
(104,1545,o),
(101,1376,cs),
(93,973,o),
(93,626,o),
(101,223,cs),
(104,55,o),
(170,-13,o),
(338,-13,cs)
);
},
{
closed = 1;
nodes = (
(244,79,o),
(208,113,o),
(206,209,cs),
(197,621,o),
(195,992,o),
(206,1390,cs),
(208,1487,o),
(244,1522,o),
(338,1522,cs),
(432,1522,o),
(468,1487,o),
(470,1390,cs),
(478,992,o),
(481,621,o),
(470,209,cs),
(468,113,o),
(433,79,o),
(338,79,cs)
);
}
);
};
layerId = "C9EB94EC-C68D-4931-B320-068DCAB9FADA";
shapes = (
{
closed = 1;
nodes = (
(506,-13,o),
(573,55,o),
(575,223,cs),
(581,626,o),
(581,972,o),
(575,1376,cs),
(573,1545,o),
(506,1613,o),
(338,1613,cs),
(170,1613,o),
(104,1545,o),
(101,1376,cs),
(93,973,o),
(93,626,o),
(101,223,cs),
(104,55,o),
(170,-13,o),
(338,-13,cs)
);
},
{
closed = 1;
nodes = (
(244,79,o),
(208,113,o),
(206,209,cs),
(197,621,o),
(195,992,o),
(206,1390,cs),
(208,1487,o),
(244,1522,o),
(338,1522,cs),
(432,1522,o),
(468,1487,o),
(470,1390,cs),
(478,992,o),
(481,621,o),
(470,209,cs),
(468,113,o),
(433,79,o),
(338,79,cs)
);
}
);
width = 674;
},
{
anchors = (
{
name = bottom;
pos = (402,0);
},
{
name = center;
pos = (402,800);
},
{
name = ogonek;
pos = (545,34);
},
{
name = top;
pos = (402,1600);
},
{
name = topleft;
pos = (121,1600);
},
{
name = topright;
pos = (634,1847);
}
);
background = {
anchors = (
{
name = bottom;
pos = (402,0);
},
{
name = center;
pos = (402,800);
},
{
name = ogonek;
pos = (545,34);
},
{
name = top;
pos = (402,1600);
},
{
name = topleft;
pos = (121,1600);
},
{
name = topright;
pos = (721,1600);
}
);
shapes = (
{
closed = 1;
nodes = (
(602,-13,o),
(684,63,o),
(688,253,cs),
(696,673,o),
(696,941,o),
(688,1346,cs),
(684,1536,o),
(602,1613,o),
(401,1613,cs),
(199,1613,o),
(117,1536,o),
(114,1346,cs),
(108,941,o),
(108,673,o),
(114,253,cs),
(117,63,o),
(199,-13,o),
(401,-13,cs)
);
},
{
closed = 1;
nodes = (
(287,106,o),
(251,138,o),
(249,249,cs),
(239,691,o),
(239,928,o),
(249,1350,cs),
(251,1461,o),
(287,1495,o),
(401,1495,cs),
(516,1495,o),
(551,1461,o),
(553,1350,cs),
(563,917,o),
(563,681,o),
(553,249,cs),
(551,138,o),
(516,106,o),
(401,106,cs)
);
}
);
};
layerId = "6F82CFD7-79D5-473B-9D61-BE5DF154BBF2";
shapes = (
{
closed = 1;
nodes = (
(602,-13,o),
(684,63,o),
(688,253,cs),
(696,673,o),
(696,941,o),
(688,1346,cs),
(684,1536,o),
(602,1613,o),
(401,1613,cs),
(199,1613,o),
(117,1536,o),
(114,1346,cs),
(108,941,o),
(108,673,o),
(114,253,cs),
(117,63,o),
(199,-13,o),
(401,-13,cs)
);
},
{
closed = 1;
nodes = (
(287,106,o),
(251,138,o),
(249,249,cs),
(239,691,o),
(239,928,o),
(249,1350,cs),
(251,1461,o),
(287,1495,o),
(401,1495,cs),
(516,1495,o),
(551,1461,o),
(553,1350,cs),
(563,917,o),
(563,681,o),
(553,249,cs),
(551,138,o),
(516,106,o),
(401,106,cs)
);
}
);
width = 804;
}
);
unicode = 79;
},
{
glyphname = Oslash;
kernLeft = O;
kernRight = O;
layers = (
{
anchors = (
{
name = bottom;
pos = (350,0);
},
{
name = center;
pos = (350,800);
},
{
name = ogonek;
pos = (476,32);
},
{
name = top;
pos = (350,1600);
},
{
name = topleft;
pos = (132,1600);
},
{
name = topright;
pos = (620,1600);
}
);
background = {
anchors = (
{
name = bottom;
pos = (350,0);
},
{
name = center;
pos = (350,800);
},
{
name = ogonek;
pos = (476,32);
},
{
name = top;
pos = (350,1600);
},
{
name = topleft;
pos = (132,1600);
},
{
name = topright;
pos = (620,1600);
}
);
shapes = (
{
closed = 1;
nodes = (
(516,-10,o),
(584,52,o),
(586,210,cs),
(592,670,o),
(592,948,o),
(586,1388,cs),
(584,1546,o),
(516,1610,o),
(350,1610,cs),
(184,1610,o),
(116,1546,o),
(114,1388,cs),
(108,948,o),
(108,670,o),
(114,210,cs),
(116,52,o),
(184,-10,o),
(350,-10,cs)
);
},
{
closed = 1;
nodes = (
(230,66,o),
(196,96,o),
(194,210,cs),
(194,260,o),
(192,308,o),
(192,354,c),
(510,1078,l),
(514,786,o),
(512,572,o),
(506,210,cs),
(504,96,o),
(470,66,o),
(350,66,cs)
);
},
{
closed = 1;
nodes = (
(186,824,o),
(188,1036,o),
(194,1388,cs),
(196,1502,o),
(230,1534,o),
(350,1534,cs),
(470,1534,o),
(504,1502,o),
(506,1388,cs),
(506,1338,o),
(508,1292,o),
(508,1248,c),
(190,530,l)
);
}
);
};
layerId = "3B122060-26E0-4730-9241-82784E6CB359";
shapes = (
{
closed = 1;
nodes = (
(516,-10,o),
(584,52,o),
(586,210,cs),
(592,670,o),
(592,948,o),
(586,1388,cs),
(584,1546,o),
(516,1610,o),
(350,1610,cs),
(184,1610,o),
(116,1546,o),
(114,1388,cs),
(108,948,o),
(108,670,o),
(114,210,cs),
(116,52,o),
(184,-10,o),
(350,-10,cs)
);
},
{
closed = 1;
nodes = (
(230,66,o),
(196,96,o),
(194,210,cs),
(194,260,o),
(192,308,o),
(192,354,c),
(510,1078,l),
(514,786,o),
(512,572,o),
(506,210,cs),
(504,96,o),
(470,66,o),
(350,66,cs)
);
},
{
closed = 1;
nodes = (
(186,824,o),
(188,1036,o),
(194,1388,cs),
(196,1502,o),
(230,1534,o),
(350,1534,cs),
(470,1534,o),
(504,1502,o),
(506,1388,cs),
(506,1338,o),
(508,1292,o),
(508,1248,c),
(190,530,l)
);
}
);
width = 700;
},
{
anchors = (
{
name = bottom;
pos = (528,0);
},
{
name = center;
pos = (528,800);
},
{
name = ogonek;
pos = (724,40);
},
{
name = top;
pos = (528,1600);
},
{
name = topleft;
pos = (60,1600);
},
{
name = topright;
pos = (994,1600);
}
);
background = {
anchors = (
{
name = bottom;
pos = (528,0);
},
{
name = center;
pos = (528,800);
},
{
name = ogonek;
pos = (724,40);
},
{
name = top;
pos = (528,1600);
},
{
name = topleft;
pos = (60,1600);
},
{
name = topright;
pos = (994,1600);
}
);
shapes = (
{
closed = 1;
nodes = (
(830,-20,o),
(956,94,o),
(966,382,cs),
(978,680,o),
(978,918,o),
(966,1220,cs),
(956,1506,o),
(830,1620,o),
(526,1620,cs),
(216,1620,o),
(90,1506,o),
(84,1220,cs),
(78,920,o),
(78,682,o),
(84,382,cs),
(90,94,o),
(216,-20,o),
(526,-20,cs)
);
},
{
closed = 1;
nodes = (
(428,224,o),
(386,264,o),
(384,366,cs),
(382,390,o),
(382,412,o),
(380,436,c),
(676,792,l),
(676,650,o),
(672,510,o),
(666,366,cs),
(664,264,o),
(624,224,o),
(526,224,cs)
);
},
{
closed = 1;
nodes = (
(372,924,o),
(376,1080,o),
(384,1236,cs),
(386,1336,o),
(428,1376,o),
(526,1376,cs),
(624,1376,o),
(664,1336,o),
(666,1236,cs),
(668,1200,o),
(670,1164,o),
(670,1128,c),
(374,768,l)
);
}
);
};
layerId = "1DFA7D5B-2E97-4B89-827F-FB43F8066DC1";
shapes = (
{
closed = 1;
nodes = (
(830,-20,o),
(956,94,o),
(966,382,cs),
(978,680,o),
(978,918,o),
(966,1220,cs),
(956,1506,o),
(830,1620,o),
(526,1620,cs),
(216,1620,o),
(90,1506,o),
(84,1220,cs),
(78,920,o),
(78,682,o),
(84,382,cs),
(90,94,o),
(216,-20,o),
(526,-20,cs)
);
},
{
closed = 1;
nodes = (
(428,224,o),
(386,264,o),
(384,366,cs),
(382,390,o),
(382,412,o),
(380,436,c),
(676,792,l),
(676,650,o),
(672,510,o),
(666,366,cs),
(664,264,o),
(624,224,o),
(526,224,cs)
);
},
{
closed = 1;
nodes = (
(372,924,o),
(376,1080,o),
(384,1236,cs),
(386,1336,o),
(428,1376,o),
(526,1376,cs),
(624,1376,o),
(664,1336,o),
(666,1236,cs),
(668,1200,o),
(670,1164,o),
(670,1128,c),
(374,768,l)
);
}
);
width = 1055;
},
{
anchors = (
{
name = bottom;
pos = (498,0);
},
{
name = center;
pos = (498,800);
},
{
name = ogonek;
pos = (612,6);
},
{
name = top;
pos = (498,1600);
},
{
name = topleft;
pos = (30,1600);
},
{
name = topright;
pos = (964,1600);
}
);
layerId = "5013C991-8699-46CB-BB1C-82E334DBD38B";
shapes = (
{
closed = 1;
nodes = (
(790,-20,o),
(906,94,o),
(916,382,cs),
(926,644,o),
(926,954,o),
(916,1220,cs),
(906,1506,o),
(790,1620,o),
(496,1620,cs),
(202,1620,o),
(80,1506,o),
(74,1220,cs),
(68,958,o),
(68,644,o),
(74,382,cs),
(80,94,o),
(202,-20,o),
(496,-20,cs)
);
},
{
closed = 1;
nodes = (
(420,224,o),
(376,260,o),
(374,326,cs),
(372,366,o),
(370,408,o),
(370,452,c),
(624,764,l),
(624,606,o),
(622,452,o),
(616,326,cs),
(614,260,o),
(574,224,o),
(496,224,cs)
);
},
{
closed = 1;
nodes = (
(364,948,o),
(368,1130,o),
(374,1276,cs),
(376,1340,o),
(420,1376,o),
(496,1376,cs),
(572,1376,o),
(614,1340,o),
(616,1276,cs),
(618,1212,o),
(620,1148,o),
(622,1084,c),
(366,768,l)
);
}
);
width = 993;
},
{
anchors = (
{
name = bottom;
pos = (286,0);
},
{
name = center;
pos = (286,800);
},
{
name = ogonek;
pos = (384,20);
},
{
name = top;
pos = (286,1600);
},
{
name = topleft;
pos = (68,1600);
},
{
name = topright;
pos = (504,1600);
}
);
background = {
anchors = (
{
name = bottom;
pos = (286,0);
},
{
name = center;
pos = (286,800);
},
{
name = ogonek;
pos = (384,20);
},
{
name = top;
pos = (286,1600);
},
{
name = topleft;
pos = (68,1600);
},
{
name = topright;
pos = (504,1600);
}
);
shapes = (
{
closed = 1;
nodes = (
(412,-10,o),
(462,42,o),
(462,170,cs),
(466,620,o),
(466,978,o),
(462,1428,cs),
(462,1558,o),
(412,1610,o),
(286,1610,cs),
(160,1610,o),
(112,1558,o),
(110,1428,cs),
(102,978,o),
(102,620,o),
(110,170,cs),
(112,42,o),
(160,-10,o),
(286,-10,cs)
);
},
{
closed = 1;
nodes = (
(186,30,o),
(152,64,o),
(150,170,cs),
(148,280,o),
(146,386,o),
(146,486,c),
(426,1054,l),
(430,766,o),
(430,492,o),
(422,170,cs),
(420,64,o),
(386,30,o),
(286,30,cs)
);
},
{
closed = 1;
nodes = (
(142,858,o),
(144,1124,o),
(150,1428,cs),
(152,1536,o),
(186,1570,o),
(286,1570,cs),
(386,1570,o),
(420,1536,o),
(422,1428,cs),
(424,1322,o),
(424,1222,o),
(426,1122,c),
(144,572,l)
);
}
);
};
layerId = "3D06B89B-468F-44E0-A3D7-A5BC6911123E";
shapes = (
{
closed = 1;
nodes = (
(412,-10,o),
(462,42,o),
(462,170,cs),
(466,620,o),
(466,978,o),
(462,1428,cs),
(462,1558,o),
(412,1610,o),
(286,1610,cs),
(160,1610,o),
(112,1558,o),
(110,1428,cs),
(102,978,o),
(102,620,o),
(110,170,cs),
(112,42,o),
(160,-10,o),
(286,-10,cs)
);
},
{
closed = 1;
nodes = (
(186,30,o),
(152,64,o),
(150,170,cs),
(148,280,o),
(146,386,o),
(146,486,c),
(426,1054,l),
(430,766,o),
(430,492,o),
(422,170,cs),
(420,64,o),
(386,30,o),
(286,30,cs)
);
},
{
closed = 1;
nodes = (
(142,858,o),
(144,1124,o),
(150,1428,cs),
(152,1536,o),
(186,1570,o),
(286,1570,cs),
(386,1570,o),
(420,1536,o),
(422,1428,cs),
(424,1322,o),
(424,1222,o),
(426,1122,c),
(144,572,l)
);
}
);
width = 569;
},
{
anchors = (
{
name = bottom;
pos = (339,0);
},
{
name = center;
pos = (339,800);
},
{
name = ogonek;
pos = (441,17);
},
{
name = top;
pos = (339,1600);
},
{
name = topleft;
pos = (58,1600);
},
{
name = topright;
pos = (619,1600);
}
);
background = {
anchors = (
{
name = bottom;
pos = (339,0);
},
{
name = center;
pos = (339,800);
},
{
name = ogonek;
pos = (441,17);
},
{
name = top;
pos = (339,1600);
},
{
name = topleft;
pos = (58,1600);
},
{
name = topright;
pos = (619,1600);
}
);
shapes = (
{
closed = 1;
nodes = (
(506,-13,o),
(573,55,o),
(575,223,cs),
(581,626,o),
(581,972,o),
(575,1376,cs),
(573,1545,o),
(506,1613,o),
(338,1613,cs),
(170,1613,o),
(104,1545,o),
(101,1376,cs),
(93,973,o),
(93,626,o),
(101,223,cs),
(104,55,o),
(170,-13,o),
(338,-13,cs)
);
},
{
closed = 1;
nodes = (
(244,79,o),
(208,113,o),
(206,209,cs),
(204,302,o),
(202,392,o),
(202,478,c),
(475,982,l),
(478,726,o),
(478,482,o),
(470,209,cs),
(468,113,o),
(433,79,o),
(338,79,cs)
);
},
{
closed = 1;
nodes = (
(197,881,o),
(200,1126,o),
(206,1390,cs),
(208,1487,o),
(244,1522,o),
(338,1522,cs),
(432,1522,o),
(468,1487,o),
(470,1390,cs),
(472,1295,o),
(473,1204,o),
(475,1113,c),
(199,621,l)
);
}
);
};
layerId = "C9EB94EC-C68D-4931-B320-068DCAB9FADA";
shapes = (
{
closed = 1;
nodes = (
(506,-13,o),
(573,55,o),
(575,223,cs),
(581,626,o),
(581,972,o),
(575,1376,cs),
(573,1545,o),
(506,1613,o),
(338,1613,cs),
(170,1613,o),
(104,1545,o),
(101,1376,cs),
(93,973,o),
(93,626,o),
(101,223,cs),
(104,55,o),
(170,-13,o),
(338,-13,cs)
);
},
{
closed = 1;
nodes = (
(244,79,o),
(208,113,o),
(206,209,cs),
(204,302,o),
(202,392,o),
(202,478,c),
(475,982,l),
(478,726,o),
(478,482,o),
(470,209,cs),
(468,113,o),
(433,79,o),
(338,79,cs)
);
},
{
closed = 1;
nodes = (
(197,881,o),
(200,1126,o),
(206,1390,cs),
(208,1487,o),
(244,1522,o),
(338,1522,cs),
(432,1522,o),
(468,1487,o),
(470,1390,cs),
(472,1295,o),
(473,1204,o),
(475,1113,c),
(199,621,l)
);
}
);
width = 674;
},
{
anchors = (
{
name = bottom;
pos = (402,0);
},
{
name = center;
pos = (402,800);
},
{
name = ogonek;
pos = (545,34);
},
{
name = top;
pos = (402,1600);
},
{
name = topleft;
pos = (121,1600);
},
{
name = topright;
pos = (721,1600);
}
);
background = {
anchors = (
{
name = bottom;
pos = (402,0);
},
{
name = center;
pos = (402,800);
},
{
name = ogonek;
pos = (545,34);
},
{
name = top;
pos = (402,1600);
},
{
name = topleft;
pos = (121,1600);
},
{
name = topright;
pos = (721,1600);
}
);
shapes = (
{
closed = 1;
nodes = (
(602,-13,o),
(684,63,o),
(688,253,cs),
(696,673,o),
(696,941,o),
(688,1346,cs),
(684,1536,o),
(602,1613,o),
(401,1613,cs),
(199,1613,o),
(117,1536,o),
(114,1346,cs),
(108,941,o),
(108,673,o),
(114,253,cs),
(117,63,o),
(199,-13,o),
(401,-13,cs)
);
},
{
closed = 1;
nodes = (
(287,106,o),
(251,138,o),
(249,249,cs),
(248,293,o),
(247,334,o),
(246,375,c),
(559,1007,l),
(562,752,o),
(559,557,o),
(553,249,cs),
(551,138,o),
(516,106,o),
(401,106,cs)
);
},
{
closed = 1;
nodes = (
(240,849,o),
(242,1047,o),
(249,1350,cs),
(251,1461,o),
(287,1495,o),
(401,1495,cs),
(516,1495,o),
(551,1461,o),
(553,1350,cs),
(554,1304,o),
(556,1260,o),
(556,1218,c),
(243,590,l)
);
}
);
};
layerId = "6F82CFD7-79D5-473B-9D61-BE5DF154BBF2";
shapes = (
{
closed = 1;
nodes = (
(602,-13,o),
(684,63,o),
(688,253,cs),
(696,673,o),
(696,941,o),
(688,1346,cs),
(684,1536,o),
(602,1613,o),
(401,1613,cs),
(199,1613,o),
(117,1536,o),
(114,1346,cs),
(108,941,o),
(108,673,o),
(114,253,cs),
(117,63,o),
(199,-13,o),
(401,-13,cs)
);
},
{
closed = 1;
nodes = (
(287,106,o),
(251,138,o),
(249,249,cs),
(248,293,o),
(247,334,o),
(246,375,c),
(559,1007,l),
(562,752,o),
(559,557,o),
(553,249,cs),
(551,138,o),
(516,106,o),
(401,106,cs)
);
},
{
closed = 1;
nodes = (
(240,849,o),
(242,1047,o),
(249,1350,cs),
(251,1461,o),
(287,1495,o),
(401,1495,cs),
(516,1495,o),
(551,1461,o),
(553,1350,cs),
(554,1304,o),
(556,1260,o),
(556,1218,c),
(243,590,l)
);
}
);
width = 804;
}
);
metricLeft = O;
metricRight = O;
unicode = 216;
},
{
glyphname = OE;
kernLeft = O;
kernRight = E;
layers = (
{
anchors = (
{
name = bottom;
pos = (350,0);
},
{
name = center;
pos = (350,800);
},
{
name = ogonek;
pos = (476,32);
},
{
name = top;
pos = (350,1600);
},
{
name = topleft;
pos = (132,1600);
},
{
name = topright;
pos = (620,1600);
}
);
background = {
anchors = (
{
name = bottom;
pos = (350,0);
},
{
name = center;
pos = (350,800);
},
{
name = ogonek;
pos = (476,32);
},
{
name = top;
pos = (350,1600);
},
{
name = topleft;
pos = (132,1600);
},
{
name = topright;
pos = (620,1600);
}
);
shapes = (
{
closed = 1;
nodes = (
(420,-10,o),
(472,2,o),
(510,26,c),
(510,0,l),
(928,0,l),
(928,76,l),
(590,76,l),
(590,762,l),
(908,762,l),
(908,838,l),
(590,838,l),
(590,1524,l),
(928,1524,l),
(928,1600,l),
(510,1600,l),
(510,1574,l),
(472,1598,o),
(420,1610,o),
(350,1610,cs),
(184,1610,o),
(116,1546,o),
(114,1388,cs),
(108,948,o),
(108,670,o),
(114,210,cs),
(116,52,o),
(184,-10,o),
(350,-10,cs)
);
},
{
closed = 1;
nodes = (
(230,66,o),
(196,96,o),
(194,210,cs),
(186,702,o),
(186,922,o),
(194,1388,cs),
(196,1502,o),
(230,1534,o),
(350,1534,cs),
(470,1534,o),
(504,1502,o),
(506,1388,cs),
(508,1286,o),
(508,312,o),
(506,210,cs),
(504,96,o),
(470,66,o),
(350,66,cs)
);
}
);
};
layerId = "3B122060-26E0-4730-9241-82784E6CB359";
shapes = (
{
closed = 1;
nodes = (
(420,-10,o),
(472,2,o),
(510,26,c),
(510,0,l),
(928,0,l),
(928,76,l),
(590,76,l),
(590,762,l),
(908,762,l),
(908,838,l),
(590,838,l),
(590,1524,l),
(928,1524,l),
(928,1600,l),
(510,1600,l),
(510,1574,l),
(472,1598,o),
(420,1610,o),
(350,1610,cs),
(184,1610,o),
(116,1546,o),
(114,1388,cs),
(108,948,o),
(108,670,o),
(114,210,cs),
(116,52,o),
(184,-10,o),
(350,-10,cs)
);
},
{
closed = 1;
nodes = (
(230,66,o),
(196,96,o),
(194,210,cs),
(186,702,o),
(186,922,o),
(194,1388,cs),
(196,1502,o),
(230,1534,o),
(350,1534,cs),
(470,1534,o),
(504,1502,o),
(506,1388,cs),
(508,1286,o),
(508,312,o),
(506,210,cs),
(504,96,o),
(470,66,o),
(350,66,cs)
);
}
);
width = 998;
},
{
anchors = (
{
name = bottom;
pos = (1072,0);
},
{
name = center;
pos = (528,800);
},
{
name = ogonek;
pos = (1146,0);
},
{
name = top;
pos = (1044,1600);
},
{
name = topleft;
pos = (676,1600);
},
{
name = topright;
pos = (994,1600);
}
);
background = {
anchors = (
{
name = bottom;
pos = (1072,0);
},
{
name = center;
pos = (528,800);
},
{
name = ogonek;
pos = (1146,0);
},
{
name = top;
pos = (1044,1600);
},
{
name = topleft;
pos = (676,1600);
},
{
name = topright;
pos = (994,1600);
}
);
shapes = (
{
closed = 1;
nodes = (
(598,-20,o),
(660,-14,o),
(712,0,c),
(714,0,l),
(1408,0,l),
(1408,264,l),
(976,264,l),
(976,682,l),
(1388,682,l),
(1388,946,l),
(976,946,l),
(976,1336,l),
(1408,1336,l),
(1408,1600,l),
(716,1600,l),
(714,1600,l),
(660,1614,o),
(598,1620,o),
(526,1620,cs),
(216,1620,o),
(90,1506,o),
(84,1220,cs),
(78,920,o),
(78,682,o),
(84,382,cs),
(90,94,o),
(216,-20,o),
(526,-20,cs)
);
},
{
closed = 1;
nodes = (
(428,224,o),
(386,264,o),
(384,366,cs),
(370,658,o),
(370,944,o),
(384,1236,cs),
(386,1336,o),
(428,1376,o),
(526,1376,cs),
(624,1376,o),
(664,1336,o),
(666,1236,cs),
(672,1122,o),
(672,480,o),
(666,366,cs),
(664,264,o),
(624,224,o),
(526,224,cs)
);
}
);
};
layerId = "1DFA7D5B-2E97-4B89-827F-FB43F8066DC1";
shapes = (
{
closed = 1;
nodes = (
(598,-20,o),
(660,-14,o),
(712,0,c),
(714,0,l),
(1408,0,l),
(1408,264,l),
(976,264,l),
(976,682,l),
(1388,682,l),
(1388,946,l),
(976,946,l),
(976,1336,l),
(1408,1336,l),
(1408,1600,l),
(716,1600,l),
(714,1600,l),
(660,1614,o),
(598,1620,o),
(526,1620,cs),
(216,1620,o),
(90,1506,o),
(84,1220,cs),
(78,920,o),
(78,682,o),
(84,382,cs),
(90,94,o),
(216,-20,o),
(526,-20,cs)
);
},
{
closed = 1;
nodes = (
(428,224,o),
(386,264,o),
(384,366,cs),
(370,658,o),
(370,944,o),
(384,1236,cs),
(386,1336,o),
(428,1376,o),
(526,1376,cs),
(624,1376,o),
(664,1336,o),
(666,1236,cs),
(672,1122,o),
(672,480,o),
(666,366,cs),
(664,264,o),
(624,224,o),
(526,224,cs)
);
}
);
width = 1464;
},
{
anchors = (
{
name = bottom;
pos = (982,0);
},
{
name = center;
pos = (498,800);
},
{
name = ogonek;
pos = (1084,0);
},
{
name = top;
pos = (976,1600);
},
{
name = topleft;
pos = (586,1600);
},
{
name = topright;
pos = (964,1600);
}
);
layerId = "5013C991-8699-46CB-BB1C-82E334DBD38B";
shapes = (
{
closed = 1;
nodes = (
(566,-20,o),
(626,-14,o),
(676,0,c),
(678,0,l),
(1318,0,l),
(1318,264,l),
(926,264,l),
(926,682,l),
(1298,682,l),
(1298,946,l),
(926,946,l),
(926,1336,l),
(1318,1336,l),
(1318,1600,l),
(678,1600,l),
(676,1600,l),
(626,1614,o),
(566,1620,o),
(496,1620,cs),
(202,1620,o),
(80,1506,o),
(74,1220,cs),
(68,958,o),
(68,644,o),
(74,382,cs),
(80,94,o),
(202,-20,o),
(496,-20,cs)
);
},
{
closed = 1;
nodes = (
(420,224,o),
(376,260,o),
(374,326,cs),
(362,598,o),
(362,1004,o),
(374,1276,cs),
(376,1340,o),
(420,1376,o),
(496,1376,cs),
(572,1376,o),
(614,1340,o),
(616,1276,cs),
(628,1004,o),
(628,598,o),
(616,326,cs),
(614,260,o),
(574,224,o),
(496,224,cs)
);
}
);
width = 1362;
},
{
anchors = (
{
name = bottom;
pos = (578,0);
},
{
name = center;
pos = (286,800);
},
{
name = ogonek;
pos = (646,0);
},
{
name = top;
pos = (578,1600);
},
{
name = topleft;
pos = (388,1600);
},
{
name = topright;
pos = (504,1600);
}
);
background = {
anchors = (
{
name = bottom;
pos = (578,0);
},
{
name = center;
pos = (286,800);
},
{
name = ogonek;
pos = (646,0);
},
{
name = top;
pos = (578,1600);
},
{
name = topleft;
pos = (388,1600);
},
{
name = topright;
pos = (504,1600);
}
);
shapes = (
{
closed = 1;
nodes = (
(354,-10,o),
(400,6,o),
(428,40,c),
(428,0,l),
(746,0,l),
(746,40,l),
(468,40,l),
(468,780,l),
(726,780,l),
(726,820,l),
(468,820,l),
(468,1560,l),
(746,1560,l),
(746,1600,l),
(428,1600,l),
(428,1560,l),
(400,1594,o),
(354,1610,o),
(286,1610,cs),
(160,1610,o),
(112,1558,o),
(110,1428,cs),
(102,978,o),
(102,620,o),
(110,170,cs),
(112,42,o),
(160,-10,o),
(286,-10,cs)
);
},
{
closed = 1;
nodes = (
(186,30,o),
(152,64,o),
(150,170,cs),
(142,628,o),
(140,988,o),
(150,1428,cs),
(152,1536,o),
(186,1570,o),
(286,1570,cs),
(386,1570,o),
(420,1536,o),
(422,1428,cs),
(428,1070,o),
(430,502,o),
(422,170,cs),
(420,64,o),
(386,30,o),
(286,30,cs)
);
}
);
};
layerId = "3D06B89B-468F-44E0-A3D7-A5BC6911123E";
shapes = (
{
closed = 1;
nodes = (
(354,-10,o),
(400,6,o),
(428,40,c),
(428,0,l),
(746,0,l),
(746,40,l),
(468,40,l),
(468,780,l),
(726,780,l),
(726,820,l),
(468,820,l),
(468,1560,l),
(746,1560,l),
(746,1600,l),
(428,1600,l),
(428,1560,l),
(400,1594,o),
(354,1610,o),
(286,1610,cs),
(160,1610,o),
(112,1558,o),
(110,1428,cs),
(102,978,o),
(102,620,o),
(110,170,cs),
(112,42,o),
(160,-10,o),
(286,-10,cs)
);
},
{
closed = 1;
nodes = (
(186,30,o),
(152,64,o),
(150,170,cs),
(142,628,o),
(140,988,o),
(150,1428,cs),
(152,1536,o),
(186,1570,o),
(286,1570,cs),
(386,1570,o),
(420,1536,o),
(422,1428,cs),
(428,1070,o),
(430,502,o),
(422,170,cs),
(420,64,o),
(386,30,o),
(286,30,cs)
);
}
);
width = 796;
},
{
anchors = (
{
name = bottom;
pos = (679,0);
},
{
name = center;
pos = (339,800);
},
{
name = ogonek;
pos = (755,0);
},
{
name = top;
pos = (677,1600);
},
{
name = topleft;
pos = (437,1600);
},
{
name = topright;
pos = (619,1600);
}
);
background = {
anchors = (
{
name = bottom;
pos = (679,0);
},
{
name = center;
pos = (339,800);
},
{
name = ogonek;
pos = (755,0);
},
{
name = top;
pos = (677,1600);
},
{
name = topleft;
pos = (437,1600);
},
{
name = topright;
pos = (619,1600);
}
);
shapes = (
{
closed = 1;
nodes = (
(407,-13,o),
(456,1,o),
(490,30,c),
(490,0,l),
(889,0,l),
(889,96,l),
(582,96,l),
(582,756,l),
(869,756,l),
(869,852,l),
(582,852,l),
(582,1504,l),
(889,1504,l),
(889,1600,l),
(490,1600,l),
(490,1570,l),
(456,1599,o),
(407,1613,o),
(338,1613,cs),
(170,1613,o),
(104,1545,o),
(101,1376,cs),
(93,973,o),
(93,626,o),
(101,223,cs),
(104,55,o),
(170,-13,o),
(338,-13,cs)
);
},
{
closed = 1;
nodes = (
(244,79,o),
(208,113,o),
(206,209,cs),
(197,621,o),
(195,992,o),
(206,1390,cs),
(208,1487,o),
(244,1522,o),
(338,1522,cs),
(432,1522,o),
(468,1487,o),
(470,1390,cs),
(478,1054,o),
(479,526,o),
(470,209,cs),
(468,113,o),
(433,79,o),
(338,79,cs)
);
}
);
};
layerId = "C9EB94EC-C68D-4931-B320-068DCAB9FADA";
shapes = (
{
closed = 1;
nodes = (
(407,-13,o),
(456,1,o),
(490,30,c),
(490,0,l),
(889,0,l),
(889,96,l),
(582,96,l),
(582,756,l),
(869,756,l),
(869,852,l),
(582,852,l),
(582,1504,l),
(889,1504,l),
(889,1600,l),
(490,1600,l),
(490,1570,l),
(456,1599,o),
(407,1613,o),
(338,1613,cs),
(170,1613,o),
(104,1545,o),
(101,1376,cs),
(93,973,o),
(93,626,o),
(101,223,cs),
(104,55,o),
(170,-13,o),
(338,-13,cs)
);
},
{
closed = 1;
nodes = (
(244,79,o),
(208,113,o),
(206,209,cs),
(197,621,o),
(195,992,o),
(206,1390,cs),
(208,1487,o),
(244,1522,o),
(338,1522,cs),
(432,1522,o),
(468,1487,o),
(470,1390,cs),
(478,1054,o),
(479,526,o),
(470,209,cs),
(468,113,o),
(433,79,o),
(338,79,cs)
);
}
);
width = 935;
},
{
anchors = (
{
name = bottom;
pos = (538,0);
},
{
name = center;
pos = (402,800);
},
{
name = ogonek;
pos = (651,24);
},
{
name = top;
pos = (531,1600);
},
{
name = topleft;
pos = (275,1600);
},
{
name = topright;
pos = (721,1600);
}
);
background = {
anchors = (
{
name = bottom;
pos = (538,0);
},
{
name = center;
pos = (402,800);
},
{
name = ogonek;
pos = (651,24);
},
{
name = top;
pos = (531,1600);
},
{
name = topleft;
pos = (275,1600);
},
{
name = topright;
pos = (721,1600);
}
);
shapes = (
{
closed = 1;
nodes = (
(472,-13,o),
(526,-2,o),
(568,20,c),
(568,0,l),
(1055,0,l),
(1055,123,l),
(694,123,l),
(694,742,l),
(1035,742,l),
(1035,865,l),
(694,865,l),
(694,1477,l),
(1055,1477,l),
(1055,1600,l),
(569,1600,l),
(568,1581,l),
(526,1602,o),
(472,1613,o),
(401,1613,cs),
(199,1613,o),
(117,1536,o),
(114,1346,cs),
(108,941,o),
(108,673,o),
(114,253,cs),
(117,63,o),
(199,-13,o),
(401,-13,cs)
);
},
{
closed = 1;
nodes = (
(287,106,o),
(251,138,o),
(249,249,cs),
(239,691,o),
(239,928,o),
(249,1350,cs),
(251,1461,o),
(287,1495,o),
(401,1495,cs),
(516,1495,o),
(551,1461,o),
(553,1350,cs),
(556,1245,o),
(556,354,o),
(553,249,cs),
(551,138,o),
(516,106,o),
(401,106,cs)
);
}
);
};
layerId = "6F82CFD7-79D5-473B-9D61-BE5DF154BBF2";
shapes = (
{
closed = 1;
nodes = (
(472,-13,o),
(526,-2,o),
(568,20,c),
(568,0,l),
(1055,0,l),
(1055,123,l),
(694,123,l),
(694,742,l),
(1035,742,l),
(1035,865,l),
(694,865,l),
(694,1477,l),
(1055,1477,l),
(1055,1600,l),
(569,1600,l),
(568,1581,l),
(526,1602,o),
(472,1613,o),
(401,1613,cs),
(199,1613,o),
(117,1536,o),
(114,1346,cs),
(108,941,o),
(108,673,o),
(114,253,cs),
(117,63,o),
(199,-13,o),
(401,-13,cs)
);
},
{
closed = 1;
nodes = (
(287,106,o),
(251,138,o),
(249,249,cs),
(239,691,o),
(239,928,o),
(249,1350,cs),
(251,1461,o),
(287,1495,o),
(401,1495,cs),
(516,1495,o),
(551,1461,o),
(553,1350,cs),
(556,1245,o),
(556,354,o),
(553,249,cs),
(551,138,o),
(516,106,o),
(401,106,cs)
);
}
);
width = 1111;
}
);
metricLeft = O;
metricRight = E;
unicode = 338;
},
{
glyphname = P;
kernLeft = H;
kernRight = P;
layers = (
{
background = {
shapes = (
{
closed = 1;
nodes = (
(220,0,l),
(220,690,l),
(362,690,ls),
(508,690,o),
(570,744,o),
(576,876,cs),
(584,1044,o),
(582,1198,o),
(576,1414,cs),
(572,1546,o),
(510,1600,o),
(364,1600,cs),
(140,1600,l),
(140,0,l)
);
},
{
closed = 1;
nodes = (
(220,1524,l),
(364,1524,ls),
(464,1524,o),
(494,1500,o),
(496,1414,cs),
(504,1178,o),
(504,1062,o),
(496,876,cs),
(492,790,o),
(466,766,o),
(362,766,cs),
(220,766,l)
);
}
);
};
layerId = "3B122060-26E0-4730-9241-82784E6CB359";
shapes = (
{
closed = 1;
nodes = (
(220,0,l),
(220,690,l),
(362,690,ls),
(508,690,o),
(570,744,o),
(576,876,cs),
(584,1044,o),
(582,1198,o),
(576,1414,cs),
(572,1546,o),
(510,1600,o),
(364,1600,cs),
(140,1600,l),
(140,0,l)
);
},
{
closed = 1;
nodes = (
(220,1524,l),
(364,1524,ls),
(464,1524,o),
(494,1500,o),
(496,1414,cs),
(504,1178,o),
(504,1062,o),
(496,876,cs),
(492,790,o),
(466,766,o),
(362,766,cs),
(220,766,l)
);
}
);
width = 651;
},
{
background = {
shapes = (
{
closed = 1;
nodes = (
(400,0,l),
(400,508,l),
(526,508,ls),
(824,508,o),
(946,620,o),
(956,898,cs),
(960,1010,o),
(960,1098,o),
(956,1210,cs),
(946,1488,o),
(824,1600,o),
(526,1600,cs),
(100,1600,l),
(100,0,l)
);
},
{
closed = 1;
nodes = (
(400,1336,l),
(526,1336,ls),
(610,1336,o),
(652,1296,o),
(656,1226,cs),
(662,1128,o),
(662,980,o),
(656,882,cs),
(652,812,o),
(610,772,o),
(526,772,cs),
(400,772,l)
);
}
);
};
layerId = "1DFA7D5B-2E97-4B89-827F-FB43F8066DC1";
shapes = (
{
closed = 1;
nodes = (
(400,0,l),
(400,508,l),
(526,508,ls),
(824,508,o),
(946,620,o),
(956,898,cs),
(960,1010,o),
(960,1098,o),
(956,1210,cs),
(946,1488,o),
(824,1600,o),
(526,1600,cs),
(100,1600,l),
(100,0,l)
);
},
{
closed = 1;
nodes = (
(400,1336,l),
(526,1336,ls),
(610,1336,o),
(652,1296,o),
(656,1226,cs),
(662,1128,o),
(662,980,o),
(656,882,cs),
(652,812,o),
(610,772,o),
(526,772,cs),
(400,772,l)
);
}
);
width = 1014;
},
{
layerId = "5013C991-8699-46CB-BB1C-82E334DBD38B";
shapes = (
{
closed = 1;
nodes = (
(380,0,l),
(380,508,l),
(466,508,ls),
(764,508,o),
(886,620,o),
(896,898,cs),
(900,1010,o),
(900,1098,o),
(896,1210,cs),
(886,1488,o),
(764,1600,o),
(466,1600,cs),
(80,1600,l),
(80,0,l)
);
},
{
closed = 1;
nodes = (
(380,1336,l),
(466,1336,ls),
(550,1336,o),
(592,1296,o),
(596,1226,cs),
(602,1128,o),
(602,980,o),
(596,882,cs),
(592,812,o),
(550,772,o),
(466,772,cs),
(380,772,l)
);
}
);
width = 941;
},
{
background = {
shapes = (
{
closed = 1;
nodes = (
(160,0,l),
(160,690,l),
(282,690,ls),
(400,690,o),
(450,744,o),
(456,876,cs),
(464,1044,o),
(464,1198,o),
(456,1414,cs),
(450,1546,o),
(400,1600,o),
(284,1600,cs),
(120,1600,l),
(120,0,l)
);
},
{
closed = 1;
nodes = (
(160,1560,l),
(284,1560,ls),
(376,1560,o),
(412,1518,o),
(416,1414,cs),
(422,1222,o),
(422,1068,o),
(416,876,cs),
(412,772,o),
(376,730,o),
(282,730,cs),
(160,730,l)
);
}
);
};
layerId = "3D06B89B-468F-44E0-A3D7-A5BC6911123E";
shapes = (
{
closed = 1;
nodes = (
(160,0,l),
(160,690,l),
(282,690,ls),
(400,690,o),
(450,744,o),
(456,876,cs),
(464,1044,o),
(464,1198,o),
(456,1414,cs),
(450,1546,o),
(400,1600,o),
(284,1600,cs),
(120,1600,l),
(120,0,l)
);
},
{
closed = 1;
nodes = (
(160,1560,l),
(284,1560,ls),
(376,1560,o),
(412,1518,o),
(416,1414,cs),
(422,1222,o),
(422,1068,o),
(416,876,cs),
(412,772,o),
(376,730,o),
(282,730,cs),
(160,730,l)
);
}
);
width = 517;
},
{
background = {
shapes = (
{
closed = 1;
nodes = (
(215,0,l),
(215,645,l),
(328,645,ls),
(491,645,o),
(559,713,o),
(566,882,cs),
(573,1036,o),
(573,1173,o),
(566,1363,cs),
(559,1532,o),
(491,1600,o),
(330,1600,cs),
(110,1600,l),
(110,0,l)
);
},
{
closed = 1;
nodes = (
(215,1504,l),
(330,1504,ls),
(420,1504,o),
(457,1463,o),
(461,1367,cs),
(467,1199,o),
(467,1046,o),
(461,878,cs),
(457,782,o),
(420,741,o),
(328,741,cs),
(215,741,l)
);
}
);
};
layerId = "C9EB94EC-C68D-4931-B320-068DCAB9FADA";
shapes = (
{
closed = 1;
nodes = (
(215,0,l),
(215,645,l),
(328,645,ls),
(491,645,o),
(559,713,o),
(566,882,cs),
(573,1036,o),
(573,1173,o),
(566,1363,cs),
(559,1532,o),
(491,1600,o),
(330,1600,cs),
(110,1600,l),
(110,0,l)
);
},
{
closed = 1;
nodes = (
(215,1504,l),
(330,1504,ls),
(420,1504,o),
(457,1463,o),
(461,1367,cs),
(467,1199,o),
(467,1046,o),
(461,878,cs),
(457,782,o),
(420,741,o),
(328,741,cs),
(215,741,l)
);
}
);
width = 626;
},
{
background = {
shapes = (
{
closed = 1;
nodes = (
(260,0,l),
(260,645,l),
(398,645,ls),
(582,645,o),
(659,713,o),
(666,882,cs),
(673,1036,o),
(672,1173,o),
(666,1363,cs),
(661,1532,o),
(584,1600,o),
(400,1600,cs),
(125,1600,l),
(125,0,l)
);
},
{
closed = 1;
nodes = (
(260,1477,l),
(400,1477,ls),
(496,1477,o),
(529,1449,o),
(531,1367,cs),
(539,1166,o),
(539,1042,o),
(531,878,cs),
(527,796,o),
(497,768,o),
(398,768,cs),
(260,768,l)
);
}
);
};
layerId = "6F82CFD7-79D5-473B-9D61-BE5DF154BBF2";
shapes = (
{
closed = 1;
nodes = (
(260,0,l),
(260,645,l),
(398,645,ls),
(582,645,o),
(659,713,o),
(666,882,cs),
(673,1036,o),
(672,1173,o),
(666,1363,cs),
(661,1532,o),
(584,1600,o),
(400,1600,cs),
(125,1600,l),
(125,0,l)
);
},
{
closed = 1;
nodes = (
(260,1477,l),
(400,1477,ls),
(496,1477,o),
(529,1449,o),
(531,1367,cs),
(539,1166,o),
(539,1042,o),
(531,878,cs),
(527,796,o),
(497,768,o),
(398,768,cs),
(260,768,l)
);
}
);
width = 736;
}
);
metricLeft = H;
unicode = 80;
},
{
glyphname = Thorn;
kernLeft = H;
kernRight = P;
layers = (
{
background = {
shapes = (
{
closed = 1;
nodes = (
(200,0,l),
(200,370,l),
(322,370,ls),
(468,370,o),
(530,424,o),
(536,556,cs),
(544,724,o),
(542,878,o),
(536,1094,cs),
(532,1226,o),
(470,1280,o),
(324,1280,cs),
(200,1280,l),
(200,1600,l),
(120,1600,l),
(120,0,l)
);
},
{
closed = 1;
nodes = (
(200,1204,l),
(324,1204,ls),
(424,1204,o),
(452,1178,o),
(456,1094,cs),
(466,882,o),
(462,768,o),
(456,556,cs),
(454,472,o),
(424,446,o),
(322,446,cs),
(200,446,l)
);
}
);
};
layerId = "3B122060-26E0-4730-9241-82784E6CB359";
shapes = (
{
closed = 1;
nodes = (
(200,0,l),
(200,370,l),
(322,370,ls),
(468,370,o),
(530,424,o),
(536,556,cs),
(544,724,o),
(542,878,o),
(536,1094,cs),
(532,1226,o),
(470,1280,o),
(324,1280,cs),
(200,1280,l),
(200,1600,l),
(120,1600,l),
(120,0,l)
);
},
{
closed = 1;
nodes = (
(200,1204,l),
(324,1204,ls),
(424,1204,o),
(452,1178,o),
(456,1094,cs),
(466,882,o),
(462,768,o),
(456,556,cs),
(454,472,o),
(424,446,o),
(322,446,cs),
(200,446,l)
);
}
);
width = 602;
},
{
background = {
shapes = (
{
closed = 1;
nodes = (
(380,0,l),
(380,268,l),
(506,268,ls),
(804,268,o),
(926,380,o),
(936,658,cs),
(940,770,o),
(940,858,o),
(936,970,cs),
(926,1248,o),
(804,1360,o),
(506,1360,cs),
(380,1360,l),
(380,1600,l),
(80,1600,l),
(80,0,l)
);
},
{
closed = 1;
nodes = (
(380,1096,l),
(506,1096,ls),
(590,1096,o),
(632,1056,o),
(636,986,cs),
(642,888,o),
(642,740,o),
(636,642,cs),
(632,572,o),
(590,532,o),
(506,532,cs),
(380,532,l)
);
}
);
};
layerId = "1DFA7D5B-2E97-4B89-827F-FB43F8066DC1";
shapes = (
{
closed = 1;
nodes = (
(380,0,l),
(380,268,l),
(506,268,ls),
(804,268,o),
(926,380,o),
(936,658,cs),
(940,770,o),
(940,858,o),
(936,970,cs),
(926,1248,o),
(804,1360,o),
(506,1360,cs),
(380,1360,l),
(380,1600,l),
(80,1600,l),
(80,0,l)
);
},
{
closed = 1;
nodes = (
(380,1096,l),
(506,1096,ls),
(590,1096,o),
(632,1056,o),
(636,986,cs),
(642,888,o),
(642,740,o),
(636,642,cs),
(632,572,o),
(590,532,o),
(506,532,cs),
(380,532,l)
);
}
);
width = 980;
},
{
layerId = "5013C991-8699-46CB-BB1C-82E334DBD38B";
shapes = (
{
closed = 1;
nodes = (
(380,0,l),
(380,268,l),
(466,268,ls),
(764,268,o),
(886,380,o),
(896,658,cs),
(900,770,o),
(900,858,o),
(896,970,cs),
(886,1248,o),
(764,1360,o),
(466,1360,cs),
(380,1360,l),
(380,1600,l),
(80,1600,l),
(80,0,l)
);
},
{
closed = 1;
nodes = (
(380,1096,l),
(466,1096,ls),
(550,1096,o),
(592,1056,o),
(596,986,cs),
(602,888,o),
(602,740,o),
(596,642,cs),
(592,572,o),
(550,532,o),
(466,532,cs),
(380,532,l)
);
}
);
width = 938;
},
{
background = {
shapes = (
{
closed = 1;
nodes = (
(160,0,l),
(160,370,l),
(282,370,ls),
(400,370,o),
(450,424,o),
(456,556,cs),
(464,724,o),
(462,878,o),
(456,1094,cs),
(452,1226,o),
(400,1280,o),
(284,1280,cs),
(160,1280,l),
(160,1600,l),
(120,1600,l),
(120,0,l)
);
},
{
closed = 1;
nodes = (
(160,1240,l),
(284,1240,ls),
(376,1240,o),
(412,1198,o),
(416,1094,cs),
(424,902,o),
(424,748,o),
(416,556,cs),
(412,452,o),
(376,410,o),
(282,410,cs),
(160,410,l)
);
}
);
};
layerId = "3D06B89B-468F-44E0-A3D7-A5BC6911123E";
shapes = (
{
closed = 1;
nodes = (
(160,0,l),
(160,370,l),
(282,370,ls),
(400,370,o),
(450,424,o),
(456,556,cs),
(464,724,o),
(462,878,o),
(456,1094,cs),
(452,1226,o),
(400,1280,o),
(284,1280,cs),
(160,1280,l),
(160,1600,l),
(120,1600,l),
(120,0,l)
);
},
{
closed = 1;
nodes = (
(160,1240,l),
(284,1240,ls),
(376,1240,o),
(412,1198,o),
(416,1094,cs),
(424,902,o),
(424,748,o),
(416,556,cs),
(412,452,o),
(376,410,o),
(282,410,cs),
(160,410,l)
);
}
);
width = 522;
},
{
background = {
shapes = (
{
closed = 1;
nodes = (
(215,0,l),
(215,345,l),
(328,345,ls),
(491,345,o),
(559,413,o),
(566,582,cs),
(573,736,o),
(572,873,o),
(566,1063,cs),
(561,1232,o),
(491,1300,o),
(330,1300,cs),
(215,1300,l),
(215,1600,l),
(110,1600,l),
(110,0,l)
);
},
{
closed = 1;
nodes = (
(215,1204,l),
(330,1204,ls),
(420,1204,o),
(457,1163,o),
(461,1067,cs),
(469,899,o),
(469,746,o),
(461,578,cs),
(457,482,o),
(420,441,o),
(328,441,cs),
(215,441,l)
);
}
);
};
layerId = "C9EB94EC-C68D-4931-B320-068DCAB9FADA";
shapes = (
{
closed = 1;
nodes = (
(215,0,l),
(215,345,l),
(328,345,ls),
(491,345,o),
(559,413,o),
(566,582,cs),
(573,736,o),
(572,873,o),
(566,1063,cs),
(561,1232,o),
(491,1300,o),
(330,1300,cs),
(215,1300,l),
(215,1600,l),
(110,1600,l),
(110,0,l)
);
},
{
closed = 1;
nodes = (
(215,1204,l),
(330,1204,ls),
(420,1204,o),
(457,1163,o),
(461,1067,cs),
(469,899,o),
(469,746,o),
(461,578,cs),
(457,482,o),
(420,441,o),
(328,441,cs),
(215,441,l)
);
}
);
width = 626;
},
{
background = {
shapes = (
{
closed = 1;
nodes = (
(245,0,l),
(245,345,l),
(368,345,ls),
(552,345,o),
(629,413,o),
(636,582,cs),
(643,736,o),
(642,873,o),
(636,1063,cs),
(631,1232,o),
(554,1300,o),
(370,1300,cs),
(245,1300,l),
(245,1600,l),
(110,1600,l),
(110,0,l)
);
},
{
closed = 1;
nodes = (
(245,1177,l),
(370,1177,ls),
(466,1177,o),
(497,1148,o),
(501,1067,cs),
(510,884,o),
(507,761,o),
(501,578,cs),
(499,497,o),
(466,468,o),
(368,468,cs),
(245,468,l)
);
}
);
};
layerId = "6F82CFD7-79D5-473B-9D61-BE5DF154BBF2";
shapes = (
{
closed = 1;
nodes = (
(245,0,l),
(245,345,l),
(368,345,ls),
(552,345,o),
(629,413,o),
(636,582,cs),
(643,736,o),
(642,873,o),
(636,1063,cs),
(631,1232,o),
(554,1300,o),
(370,1300,cs),
(245,1300,l),
(245,1600,l),
(110,1600,l),
(110,0,l)
);
},
{
closed = 1;
nodes = (
(245,1177,l),
(370,1177,ls),
(466,1177,o),
(497,1148,o),
(501,1067,cs),
(510,884,o),
(507,761,o),
(501,578,cs),
(499,497,o),
(466,468,o),
(368,468,cs),
(245,468,l)
);
}
);
width = 697;
}
);
unicode = 222;
},
{
glyphname = Q;
kernLeft = O;
kernRight = O;
layers = (
{
background = {
shapes = (
{
closed = 1;
nodes = (
(476,-102,l),
(426,-106,o),
(412,-86,o),
(410,-6,c),
(532,8,o),
(584,72,o),
(586,210,cs),
(592,670,o),
(592,948,o),
(586,1388,cs),
(584,1546,o),
(516,1610,o),
(350,1610,cs),
(184,1610,o),
(116,1546,o),
(114,1388,cs),
(108,948,o),
(108,670,o),
(114,210,cs),
(116,58,o),
(178,-4,o),
(330,-10,c),
(332,-132,o),
(376,-180,o),
(476,-174,c)
);
},
{
closed = 1;
nodes = (
(230,66,o),
(196,96,o),
(194,210,cs),
(186,702,o),
(186,922,o),
(194,1388,cs),
(196,1502,o),
(230,1534,o),
(350,1534,cs),
(470,1534,o),
(504,1502,o),
(506,1388,cs),
(514,908,o),
(514,688,o),
(506,210,cs),
(504,96,o),
(470,66,o),
(350,66,cs)
);
}
);
};
layerId = "3B122060-26E0-4730-9241-82784E6CB359";
shapes = (
{
closed = 1;
nodes = (
(476,-102,l),
(426,-106,o),
(412,-86,o),
(410,-6,c),
(532,8,o),
(584,72,o),
(586,210,cs),
(592,670,o),
(592,948,o),
(586,1388,cs),
(584,1546,o),
(516,1610,o),
(350,1610,cs),
(184,1610,o),
(116,1546,o),
(114,1388,cs),
(108,948,o),
(108,670,o),
(114,210,cs),
(116,58,o),
(178,-4,o),
(330,-10,c),
(332,-132,o),
(376,-180,o),
(476,-174,c)
);
},
{
closed = 1;
nodes = (
(230,66,o),
(196,96,o),
(194,210,cs),
(186,702,o),
(186,922,o),
(194,1388,cs),
(196,1502,o),
(230,1534,o),
(350,1534,cs),
(470,1534,o),
(504,1502,o),
(506,1388,cs),
(514,908,o),
(514,688,o),
(506,210,cs),
(504,96,o),
(470,66,o),
(350,66,cs)
);
}
);
width = 700;
},
{
background = {
shapes = (
{
closed = 1;
nodes = (
(904,-88,l),
(814,-100,o),
(768,-62,o),
(774,20,c),
(902,76,o),
(960,190,o),
(966,382,cs),
(978,680,o),
(978,918,o),
(966,1220,cs),
(956,1506,o),
(830,1620,o),
(526,1620,cs),
(216,1620,o),
(90,1506,o),
(84,1220,cs),
(78,920,o),
(78,682,o),
(84,382,cs),
(90,106,o),
(206,-10,o),
(488,-20,c),
(518,-258,o),
(642,-348,o),
(904,-328,c)
);
},
{
closed = 1;
nodes = (
(428,224,o),
(386,264,o),
(384,366,cs),
(370,658,o),
(370,944,o),
(384,1236,cs),
(386,1336,o),
(428,1376,o),
(526,1376,cs),
(624,1376,o),
(664,1336,o),
(666,1236,cs),
(680,944,o),
(680,658,o),
(666,366,cs),
(664,264,o),
(624,224,o),
(526,224,cs)
);
}
);
};
layerId = "1DFA7D5B-2E97-4B89-827F-FB43F8066DC1";
shapes = (
{
closed = 1;
nodes = (
(904,-88,l),
(814,-100,o),
(768,-62,o),
(774,20,c),
(902,76,o),
(960,190,o),
(966,382,cs),
(978,680,o),
(978,918,o),
(966,1220,cs),
(956,1506,o),
(830,1620,o),
(526,1620,cs),
(216,1620,o),
(90,1506,o),
(84,1220,cs),
(78,920,o),
(78,682,o),
(84,382,cs),
(90,106,o),
(206,-10,o),
(488,-20,c),
(518,-258,o),
(642,-348,o),
(904,-328,c)
);
},
{
closed = 1;
nodes = (
(428,224,o),
(386,264,o),
(384,366,cs),
(370,658,o),
(370,944,o),
(384,1236,cs),
(386,1336,o),
(428,1376,o),
(526,1376,cs),
(624,1376,o),
(664,1336,o),
(666,1236,cs),
(680,944,o),
(680,658,o),
(666,366,cs),
(664,264,o),
(624,224,o),
(526,224,cs)
);
}
);
width = 1055;
},
{
background = {
shapes = (
{
closed = 1;
nodes = (
(770,-20,o),
(890,94,o),
(896,382,cs),
(902,680,o),
(902,918,o),
(896,1220,cs),
(890,1506,o),
(770,1620,o),
(476,1620,cs),
(182,1620,o),
(60,1506,o),
(54,1220,cs),
(48,920,o),
(48,682,o),
(54,382,cs),
(60,94,o),
(182,-20,o),
(476,-20,cs)
);
},
{
closed = 1;
nodes = (
(400,224,o),
(356,260,o),
(354,326,cs),
(342,598,o),
(342,1004,o),
(354,1276,cs),
(356,1340,o),
(400,1376,o),
(476,1376,cs),
(554,1376,o),
(594,1340,o),
(596,1276,cs),
(602,1004,o),
(602,598,o),
(596,326,cs),
(594,260,o),
(554,224,o),
(476,224,cs)
);
}
);
};
layerId = "5013C991-8699-46CB-BB1C-82E334DBD38B";
shapes = (
{
closed = 1;
nodes = (
(894,-8,l),
(830,-16,o),
(788,0,o),
(772,40,c),
(866,102,o),
(910,212,o),
(916,382,cs),
(926,644,o),
(926,954,o),
(916,1220,cs),
(906,1506,o),
(790,1620,o),
(496,1620,cs),
(202,1620,o),
(80,1506,o),
(74,1220,cs),
(68,958,o),
(68,644,o),
(74,382,cs),
(80,94,o),
(202,-20,o),
(494,-20,c),
(540,-198,o),
(664,-266,o),
(894,-248,c)
);
},
{
closed = 1;
nodes = (
(420,224,o),
(376,260,o),
(374,326,cs),
(362,598,o),
(362,1004,o),
(374,1276,cs),
(376,1340,o),
(420,1376,o),
(496,1376,cs),
(574,1376,o),
(614,1340,o),
(616,1276,cs),
(628,1004,o),
(628,598,o),
(616,326,cs),
(614,260,o),
(574,224,o),
(496,224,cs)
);
}
);
width = 993;
},
{
background = {
shapes = (
{
closed = 1;
nodes = (
(432,-118,l),
(364,-124,o),
(332,-92,o),
(326,-8,c),
(422,4,o),
(462,56,o),
(462,170,cs),
(466,620,o),
(466,978,o),
(462,1428,cs),
(462,1558,o),
(412,1610,o),
(286,1610,cs),
(160,1610,o),
(112,1558,o),
(110,1428,cs),
(102,978,o),
(102,620,o),
(110,170,cs),
(112,42,o),
(160,-10,o),
(286,-10,c),
(294,-118,o),
(336,-160,o),
(432,-154,c)
);
},
{
closed = 1;
nodes = (
(186,30,o),
(152,64,o),
(150,170,cs),
(142,628,o),
(140,988,o),
(150,1428,cs),
(152,1536,o),
(186,1570,o),
(286,1570,cs),
(386,1570,o),
(420,1536,o),
(422,1428,cs),
(428,988,o),
(432,628,o),
(422,170,cs),
(420,64,o),
(386,30,o),
(286,30,cs)
);
}
);
};
layerId = "3D06B89B-468F-44E0-A3D7-A5BC6911123E";
shapes = (
{
closed = 1;
nodes = (
(432,-118,l),
(364,-124,o),
(332,-92,o),
(326,-8,c),
(422,4,o),
(462,56,o),
(462,170,cs),
(466,620,o),
(466,978,o),
(462,1428,cs),
(462,1558,o),
(412,1610,o),
(286,1610,cs),
(160,1610,o),
(112,1558,o),
(110,1428,cs),
(102,978,o),
(102,620,o),
(110,170,cs),
(112,42,o),
(160,-10,o),
(286,-10,c),
(294,-118,o),
(336,-160,o),
(432,-154,c)
);
},
{
closed = 1;
nodes = (
(186,30,o),
(152,64,o),
(150,170,cs),
(142,628,o),
(140,988,o),
(150,1428,cs),
(152,1536,o),
(186,1570,o),
(286,1570,cs),
(386,1570,o),
(420,1536,o),
(422,1428,cs),
(428,988,o),
(432,628,o),
(422,170,cs),
(420,64,o),
(386,30,o),
(286,30,cs)
);
}
);
width = 569;
},
{
background = {
shapes = (
{
closed = 1;
nodes = (
(547,-91,l),
(480,-97,o),
(446,-69,o),
(437,4,c),
(533,29,o),
(574,95,o),
(575,223,cs),
(581,626,o),
(581,972,o),
(575,1376,cs),
(573,1545,o),
(506,1613,o),
(338,1613,cs),
(170,1613,o),
(104,1545,o),
(101,1376,cs),
(93,973,o),
(93,626,o),
(101,223,cs),
(104,55,o),
(170,-13,o),
(338,-13,c),
(355,-138,o),
(418,-187,o),
(547,-178,c)
);
},
{
closed = 1;
nodes = (
(244,79,o),
(208,113,o),
(206,209,cs),
(197,621,o),
(195,992,o),
(206,1390,cs),
(208,1487,o),
(244,1522,o),
(338,1522,cs),
(433,1522,o),
(468,1487,o),
(470,1390,cs),
(478,992,o),
(481,621,o),
(470,209,cs),
(468,113,o),
(433,79,o),
(338,79,cs)
);
}
);
};
layerId = "C9EB94EC-C68D-4931-B320-068DCAB9FADA";
shapes = (
{
closed = 1;
nodes = (
(547,-91,l),
(480,-97,o),
(446,-69,o),
(437,4,c),
(533,29,o),
(574,95,o),
(575,223,cs),
(581,626,o),
(581,972,o),
(575,1376,cs),
(573,1545,o),
(506,1613,o),
(338,1613,cs),
(170,1613,o),
(104,1545,o),
(101,1376,cs),
(93,973,o),
(93,626,o),
(101,223,cs),
(104,55,o),
(170,-13,o),
(338,-13,c),
(355,-138,o),
(418,-187,o),
(547,-178,c)
);
},
{
closed = 1;
nodes = (
(244,79,o),
(208,113,o),
(206,209,cs),
(197,621,o),
(195,992,o),
(206,1390,cs),
(208,1487,o),
(244,1522,o),
(338,1522,cs),
(433,1522,o),
(468,1487,o),
(470,1390,cs),
(478,992,o),
(481,621,o),
(470,209,cs),
(468,113,o),
(433,79,o),
(338,79,cs)
);
}
);
width = 674;
},
{
background = {
shapes = (
{
closed = 1;
nodes = (
(590,-99,l),
(530,-105,o),
(508,-80,o),
(508,1,c),
(632,25,o),
(685,102,o),
(688,253,cs),
(696,673,o),
(696,941,o),
(688,1346,cs),
(684,1536,o),
(602,1613,o),
(401,1613,cs),
(199,1613,o),
(117,1536,o),
(114,1346,cs),
(108,941,o),
(108,673,o),
(114,253,cs),
(117,70,o),
(192,-6,o),
(377,-13,c),
(386,-164,o),
(450,-222,o),
(590,-213,c)
);
},
{
closed = 1;
nodes = (
(287,106,o),
(251,138,o),
(249,249,cs),
(239,691,o),
(239,928,o),
(249,1350,cs),
(251,1461,o),
(287,1495,o),
(401,1495,cs),
(516,1495,o),
(551,1461,o),
(553,1350,cs),
(563,917,o),
(563,681,o),
(553,249,cs),
(551,138,o),
(516,106,o),
(401,106,cs)
);
}
);
};
layerId = "6F82CFD7-79D5-473B-9D61-BE5DF154BBF2";
shapes = (
{
closed = 1;
nodes = (
(590,-99,l),
(530,-105,o),
(508,-80,o),
(508,1,c),
(632,25,o),
(685,102,o),
(688,253,cs),
(696,673,o),
(696,941,o),
(688,1346,cs),
(684,1536,o),
(602,1613,o),
(401,1613,cs),
(199,1613,o),
(117,1536,o),
(114,1346,cs),
(108,941,o),
(108,673,o),
(114,253,cs),
(117,70,o),
(192,-6,o),
(377,-13,c),
(386,-164,o),
(450,-222,o),
(590,-213,c)
);
},
{
closed = 1;
nodes = (
(287,106,o),
(251,138,o),
(249,249,cs),
(239,691,o),
(239,928,o),
(249,1350,cs),
(251,1461,o),
(287,1495,o),
(401,1495,cs),
(516,1495,o),
(551,1461,o),
(553,1350,cs),
(563,917,o),
(563,681,o),
(553,249,cs),
(551,138,o),
(516,106,o),
(401,106,cs)
);
}
);
width = 804;
}
);
metricLeft = O;
metricRight = O;
unicode = 81;
},
{
glyphname = R;
kernLeft = H;
kernRight = R;
layers = (
{
anchors = (
{
name = bottom;
pos = (376,0);
},
{
name = top;
pos = (364,1600);
}
);
background = {
anchors = (
{
name = bottom;
pos = (376,0);
},
{
name = top;
pos = (364,1600);
}
);
shapes = (
{
closed = 1;
nodes = (
(220,0,l),
(220,652,l),
(402,652,l),
(546,0,l),
(630,0,l),
(482,664,l),
(556,686,o),
(590,740,o),
(594,836,cs),
(602,1016,o),
(602,1182,o),
(594,1414,cs),
(590,1546,o),
(528,1600,o),
(382,1600,cs),
(140,1600,l),
(140,0,l)
);
},
{
closed = 1;
nodes = (
(220,1524,l),
(382,1524,ls),
(482,1524,o),
(510,1500,o),
(514,1414,cs),
(524,1186,o),
(520,1064,o),
(514,836,cs),
(512,752,o),
(482,728,o),
(380,728,cs),
(220,728,l)
);
}
);
};
layerId = "3B122060-26E0-4730-9241-82784E6CB359";
shapes = (
{
closed = 1;
nodes = (
(220,0,l),
(220,652,l),
(402,652,l),
(546,0,l),
(630,0,l),
(482,664,l),
(556,686,o),
(590,740,o),
(594,836,cs),
(602,1016,o),
(602,1182,o),
(594,1414,cs),
(590,1546,o),
(528,1600,o),
(382,1600,cs),
(140,1600,l),
(140,0,l)
);
},
{
closed = 1;
nodes = (
(220,1524,l),
(382,1524,ls),
(482,1524,o),
(510,1500,o),
(514,1414,cs),
(524,1186,o),
(520,1064,o),
(514,836,cs),
(512,752,o),
(482,728,o),
(380,728,cs),
(220,728,l)
);
}
);
width = 702;
},
{
anchors = (
{
name = bottom;
pos = (520,0);
},
{
name = top;
pos = (492,1600);
}
);
background = {
anchors = (
{
name = bottom;
pos = (520,0);
},
{
name = top;
pos = (492,1600);
}
);
shapes = (
{
closed = 1;
nodes = (
(400,0,l),
(400,540,l),
(488,540,l),
(640,0,l),
(958,0,l),
(770,590,l),
(880,648,o),
(930,756,o),
(936,930,cs),
(940,1042,o),
(940,1098,o),
(936,1210,cs),
(926,1488,o),
(804,1600,o),
(506,1600,cs),
(100,1600,l),
(100,0,l)
);
},
{
closed = 1;
nodes = (
(400,1336,l),
(506,1336,ls),
(590,1336,o),
(632,1296,o),
(636,1226,cs),
(642,1128,o),
(642,1012,o),
(636,914,cs),
(632,844,o),
(590,804,o),
(506,804,cs),
(400,804,l)
);
}
);
};
layerId = "1DFA7D5B-2E97-4B89-827F-FB43F8066DC1";
shapes = (
{
closed = 1;
nodes = (
(400,0,l),
(400,540,l),
(488,540,l),
(640,0,l),
(958,0,l),
(770,590,l),
(880,648,o),
(930,756,o),
(936,930,cs),
(940,1042,o),
(940,1098,o),
(936,1210,cs),
(926,1488,o),
(804,1600,o),
(506,1600,cs),
(100,1600,l),
(100,0,l)
);
},
{
closed = 1;
nodes = (
(400,1336,l),
(506,1336,ls),
(590,1336,o),
(632,1296,o),
(636,1226,cs),
(642,1128,o),
(642,1012,o),
(636,914,cs),
(632,844,o),
(590,804,o),
(506,804,cs),
(400,804,l)
);
}
);
width = 1014;
},
{
anchors = (
{
name = bottom;
pos = (500,0);
},
{
name = top;
pos = (472,1600);
}
);
background = {
shapes = (
{
closed = 1;
nodes = (
(466,736,ls),
(766,740,o),
(888,824,o),
(896,1044,cs),
(898,1102,o),
(898,1150,o),
(896,1210,cs),
(886,1488,o),
(764,1600,o),
(466,1600,cs),
(314,1600,l),
(314,1336,l),
(466,1336,ls),
(550,1336,o),
(596,1296,o),
(596,1226,cs),
(596,1162,o),
(596,1074,o),
(596,1010,cs),
(596,926,o),
(550,880,o),
(466,880,cs),
(306,880,l),
(306,734,l)
);
},
{
closed = 1;
nodes = (
(902,0,l),
(904,138,o),
(900,290,o),
(894,428,cs),
(884,654,o),
(766,734,o),
(474,734,cs),
(306,734,l),
(306,614,l),
(462,614,ls),
(544,614,o),
(590,562,o),
(594,470,cs),
(600,322,o),
(604,148,o),
(602,0,c)
);
},
{
closed = 1;
nodes = (
(380,0,l),
(380,1600,l),
(80,1600,l),
(80,0,l)
);
},
{
closed = 1;
nodes = (
(678,694,l),
(678,768,l),
(306,768,l),
(306,694,l)
);
}
);
};
layerId = "5013C991-8699-46CB-BB1C-82E334DBD38B";
shapes = (
{
closed = 1;
nodes = (
(380,0,l),
(380,540,l),
(448,540,l),
(600,0,l),
(918,0,l),
(730,590,l),
(840,648,o),
(890,756,o),
(896,930,cs),
(900,1042,o),
(900,1098,o),
(896,1210,cs),
(886,1488,o),
(764,1600,o),
(466,1600,cs),
(80,1600,l),
(80,0,l)
);
},
{
closed = 1;
nodes = (
(380,1336,l),
(466,1336,ls),
(550,1336,o),
(592,1296,o),
(596,1226,cs),
(602,1128,o),
(602,1012,o),
(596,914,cs),
(592,844,o),
(550,804,o),
(466,804,cs),
(380,804,l)
);
}
);
width = 954;
},
{
anchors = (
{
name = bottom;
pos = (303,0);
},
{
name = top;
pos = (264,1600);
}
);
background = {
anchors = (
{
name = bottom;
pos = (294,0);
},
{
name = top;
pos = (264,1600);
}
);
shapes = (
{
closed = 1;
nodes = (
(160,0,l),
(160,650,l),
(304,650,l),
(448,0,l),
(492,0,l),
(346,658,l),
(418,676,o),
(452,732,o),
(456,836,cs),
(464,1004,o),
(464,1198,o),
(456,1414,cs),
(450,1546,o),
(400,1600,o),
(284,1600,cs),
(120,1600,l),
(120,0,l)
);
},
{
closed = 1;
nodes = (
(160,1560,l),
(284,1560,ls),
(376,1560,o),
(412,1518,o),
(416,1414,cs),
(422,1222,o),
(422,1028,o),
(416,836,cs),
(412,732,o),
(376,690,o),
(282,690,cs),
(160,690,l)
);
}
);
};
layerId = "3D06B89B-468F-44E0-A3D7-A5BC6911123E";
shapes = (
{
closed = 1;
nodes = (
(160,0,l),
(160,650,l),
(304,650,l),
(448,0,l),
(492,0,l),
(346,658,l),
(418,676,o),
(452,732,o),
(456,836,cs),
(464,1004,o),
(464,1198,o),
(456,1414,cs),
(450,1546,o),
(400,1600,o),
(284,1600,cs),
(120,1600,l),
(120,0,l)
);
},
{
closed = 1;
nodes = (
(160,1560,l),
(284,1560,ls),
(376,1560,o),
(412,1518,o),
(416,1414,cs),
(422,1222,o),
(422,1028,o),
(416,836,cs),
(412,732,o),
(376,690,o),
(282,690,cs),
(160,690,l)
);
}
);
width = 549;
},
{
anchors = (
{
name = bottom;
pos = (346,0);
},
{
name = top;
pos = (316,1600);
}
);
background = {
anchors = (
{
name = bottom;
pos = (346,0);
},
{
name = top;
pos = (316,1600);
}
);
shapes = (
{
closed = 1;
nodes = (
(215,0,l),
(215,623,l),
(340,623,l),
(486,0,l),
(599,0,l),
(442,641,l),
(524,669,o),
(562,738,o),
(566,860,cs),
(573,1014,o),
(573,1173,o),
(566,1363,cs),
(559,1532,o),
(491,1600,o),
(330,1600,cs),
(110,1600,l),
(110,0,l)
);
},
{
closed = 1;
nodes = (
(215,1504,l),
(330,1504,ls),
(420,1504,o),
(457,1463,o),
(461,1367,cs),
(467,1199,o),
(467,1024,o),
(461,856,cs),
(457,760,o),
(420,719,o),
(328,719,cs),
(215,719,l)
);
}
);
};
layerId = "C9EB94EC-C68D-4931-B320-068DCAB9FADA";
shapes = (
{
closed = 1;
nodes = (
(215,0,l),
(215,623,l),
(340,623,l),
(486,0,l),
(599,0,l),
(442,641,l),
(524,669,o),
(562,738,o),
(566,860,cs),
(573,1014,o),
(573,1173,o),
(566,1363,cs),
(559,1532,o),
(491,1600,o),
(330,1600,cs),
(110,1600,l),
(110,0,l)
);
},
{
closed = 1;
nodes = (
(215,1504,l),
(330,1504,ls),
(420,1504,o),
(457,1463,o),
(461,1367,cs),
(467,1199,o),
(467,1024,o),
(461,856,cs),
(457,760,o),
(420,719,o),
(328,719,cs),
(215,719,l)
);
}
);
width = 654;
},
{
anchors = (
{
name = bottom;
pos = (407,0);
},
{
name = top;
pos = (391,1600);
}
);
background = {
anchors = (
{
name = bottom;
pos = (407,0);
},
{
name = top;
pos = (391,1600);
}
);
shapes = (
{
closed = 1;
nodes = (
(260,0,l),
(260,624,l),
(419,624,l),
(565,0,l),
(707,0,l),
(549,646,l),
(632,677,o),
(670,744,o),
(675,860,cs),
(682,1023,o),
(682,1161,o),
(675,1363,cs),
(669,1532,o),
(592,1600,o),
(408,1600,cs),
(125,1600,l),
(125,0,l)
);
},
{
closed = 1;
nodes = (
(260,1477,l),
(408,1477,ls),
(504,1477,o),
(536,1449,o),
(540,1367,cs),
(549,1172,o),
(546,1051,o),
(540,856,cs),
(537,775,o),
(504,747,o),
(407,747,cs),
(260,747,l)
);
}
);
};
layerId = "6F82CFD7-79D5-473B-9D61-BE5DF154BBF2";
shapes = (
{
closed = 1;
nodes = (
(260,0,l),
(260,624,l),
(419,624,l),
(565,0,l),
(707,0,l),
(549,646,l),
(632,677,o),
(670,744,o),
(675,860,cs),
(682,1023,o),
(682,1161,o),
(675,1363,cs),
(669,1532,o),
(592,1600,o),
(408,1600,cs),
(125,1600,l),
(125,0,l)
);
},
{
closed = 1;
nodes = (
(260,1477,l),
(408,1477,ls),
(504,1477,o),
(536,1449,o),
(540,1367,cs),
(549,1172,o),
(546,1051,o),
(540,856,cs),
(537,775,o),
(504,747,o),
(407,747,cs),
(260,747,l)
);
}
);
width = 774;
}
);
metricLeft = H;
unicode = 82;
},
{
glyphname = S;
kernLeft = S;
kernRight = S;
layers = (
{
anchors = (
{
name = bottom;
pos = (344,0);
},
{
name = top;
pos = (344,1600);
}
);
background = {
anchors = (
{
name = bottom;
pos = (344,0);
},
{
name = top;
pos = (344,1600);
}
);
shapes = (
{
closed = 1;
nodes = (
(510,-10,o),
(574,48,o),
(580,196,cs),
(584,298,o),
(584,426,o),
(580,532,cs),
(574,722,o),
(528,784,o),
(364,824,cs),
(290,842,ls),
(214,862,o),
(192,908,o),
(190,1058,cs),
(188,1180,o),
(186,1282,o),
(190,1404,cs),
(194,1506,o),
(228,1534,o),
(344,1534,cs),
(458,1534,o),
(490,1506,o),
(494,1404,cs),
(498,1306,o),
(498,1208,o),
(494,1070,c),
(574,1070,l),
(576,1200,o),
(576,1306,o),
(574,1404,cs),
(570,1552,o),
(504,1610,o),
(346,1610,cs),
(178,1610,o),
(112,1552,o),
(110,1406,cs),
(108,1284,o),
(106,1160,o),
(108,1058,cs),
(112,858,o),
(152,794,o),
(290,758,cs),
(362,740,ls),
(468,712,o),
(498,668,o),
(500,532,cs),
(502,434,o),
(506,294,o),
(500,196,cs),
(494,94,o),
(462,66,o),
(346,66,cs),
(226,66,o),
(192,94,o),
(188,196,cs),
(182,326,o),
(184,436,o),
(188,566,c),
(108,566,l),
(104,420,o),
(104,336,o),
(108,196,cs),
(112,48,o),
(180,-10,o),
(348,-10,cs)
);
}
);
};
layerId = "3B122060-26E0-4730-9241-82784E6CB359";
shapes = (
{
closed = 1;
nodes = (
(510,-10,o),
(574,48,o),
(580,196,cs),
(584,298,o),
(584,426,o),
(580,532,cs),
(574,722,o),
(528,784,o),
(364,824,cs),
(290,842,ls),
(214,862,o),
(192,908,o),
(190,1058,cs),
(188,1180,o),
(186,1282,o),
(190,1404,cs),
(194,1506,o),
(228,1534,o),
(344,1534,cs),
(458,1534,o),
(490,1506,o),
(494,1404,cs),
(498,1306,o),
(498,1208,o),
(494,1070,c),
(574,1070,l),
(576,1200,o),
(576,1306,o),
(574,1404,cs),
(570,1552,o),
(504,1610,o),
(346,1610,cs),
(178,1610,o),
(112,1552,o),
(110,1406,cs),
(108,1284,o),
(106,1160,o),
(108,1058,cs),
(112,858,o),
(152,794,o),
(290,758,cs),
(362,740,ls),
(468,712,o),
(498,668,o),
(500,532,cs),
(502,434,o),
(506,294,o),
(500,196,cs),
(494,94,o),
(462,66,o),
(346,66,cs),
(226,66,o),
(192,94,o),
(188,196,cs),
(182,326,o),
(184,436,o),
(188,566,c),
(108,566,l),
(104,420,o),
(104,336,o),
(108,196,cs),
(112,48,o),
(180,-10,o),
(348,-10,cs)
);
}
);
width = 683;
},
{
anchors = (
{
name = bottom;
pos = (507,0);
},
{
name = top;
pos = (507,1600);
}
);
background = {
anchors = (
{
name = bottom;
pos = (507,0);
},
{
name = top;
pos = (507,1600);
}
);
shapes = (
{
closed = 1;
nodes = (
(811,-20,o),
(937,94,o),
(949,382,cs),
(951,428,o),
(953,482,o),
(951,528,cs),
(943,734,o),
(855,870,o),
(629,918,cs),
(467,952,ls),
(399,966,o),
(371,1016,o),
(365,1070,cs),
(357,1138,o),
(357,1208,o),
(365,1276,cs),
(373,1340,o),
(425,1376,o),
(509,1376,cs),
(599,1376,o),
(651,1340,o),
(653,1276,cs),
(657,1184,o),
(655,1092,o),
(651,1000,c),
(939,1000,l),
(943,1070,o),
(945,1162,o),
(943,1220,cs),
(931,1506,o),
(807,1620,o),
(509,1620,cs),
(203,1620,o),
(77,1506,o),
(65,1220,cs),
(63,1170,o),
(63,1128,o),
(65,1070,cs),
(71,870,o),
(139,740,o),
(349,692,cs),
(533,650,ls),
(597,636,o),
(643,584,o),
(649,528,cs),
(657,460,o),
(657,394,o),
(649,326,cs),
(641,260,o),
(591,224,o),
(509,224,cs),
(421,224,o),
(369,260,o),
(363,326,cs),
(355,404,o),
(357,502,o),
(363,600,c),
(81,600,l),
(71,536,o),
(71,446,o),
(73,382,cs),
(85,94,o),
(209,-20,o),
(509,-20,cs)
);
}
);
};
layerId = "1DFA7D5B-2E97-4B89-827F-FB43F8066DC1";
shapes = (
{
closed = 1;
nodes = (
(811,-20,o),
(937,94,o),
(949,382,cs),
(951,428,o),
(953,482,o),
(951,528,cs),
(943,734,o),
(855,870,o),
(629,918,cs),
(467,952,ls),
(399,966,o),
(371,1016,o),
(365,1070,cs),
(357,1138,o),
(357,1208,o),
(365,1276,cs),
(373,1340,o),
(425,1376,o),
(509,1376,cs),
(599,1376,o),
(651,1340,o),
(653,1276,cs),
(657,1184,o),
(655,1092,o),
(651,1000,c),
(939,1000,l),
(943,1070,o),
(945,1162,o),
(943,1220,cs),
(931,1506,o),
(807,1620,o),
(509,1620,cs),
(203,1620,o),
(77,1506,o),
(65,1220,cs),
(63,1170,o),
(63,1128,o),
(65,1070,cs),
(71,870,o),
(139,740,o),
(349,692,cs),
(533,650,ls),
(597,636,o),
(643,584,o),
(649,528,cs),
(657,460,o),
(657,394,o),
(649,326,cs),
(641,260,o),
(591,224,o),
(509,224,cs),
(421,224,o),
(369,260,o),
(363,326,cs),
(355,404,o),
(357,502,o),
(363,600,c),
(81,600,l),
(71,536,o),
(71,446,o),
(73,382,cs),
(85,94,o),
(209,-20,o),
(509,-20,cs)
);
}
);
width = 1016;
},
{
anchors = (
{
name = bottom;
pos = (473,0);
},
{
name = top;
pos = (473,1600);
}
);
background = {
shapes = (
{
closed = 1;
nodes = (
(499,618,o),
(535,602,o),
(535,538,cs),
(535,382,ls),
(535,316,o),
(499,280,o),
(433,280,cs),
(369,280,o),
(329,316,o),
(329,382,cs),
(329,600,l),
(29,600,l),
(27,536,o),
(27,456,o),
(29,392,cs),
(37,134,o),
(175,-10,o),
(433,-10,cs),
(691,-10,o),
(835,134,o),
(835,392,cs),
(837,438,o),
(837,484,o),
(837,530,cs),
(829,788,o),
(691,868,o),
(441,930,cs),
(433,932,ls),
(371,948,o),
(331,968,o),
(331,1034,cs),
(331,1220,ls),
(331,1284,o),
(367,1320,o),
(433,1320,cs),
(497,1320,o),
(529,1284,o),
(529,1220,cs),
(527,1000,l),
(827,1000,l),
(829,1066,o),
(831,1144,o),
(829,1210,cs),
(821,1468,o),
(691,1610,o),
(433,1610,cs),
(175,1610,o),
(37,1468,o),
(31,1210,cs),
(31,1160,o),
(29,1092,o),
(29,1042,cs),
(37,784,o),
(189,722,o),
(433,640,cs),
(439,638,ls)
);
}
);
};
layerId = "5013C991-8699-46CB-BB1C-82E334DBD38B";
shapes = (
{
closed = 1;
nodes = (
(771,-20,o),
(883,94,o),
(895,382,cs),
(897,428,o),
(899,482,o),
(897,528,cs),
(889,734,o),
(819,864,o),
(595,918,cs),
(453,952,ls),
(385,968,o),
(357,1016,o),
(351,1070,cs),
(343,1138,o),
(343,1208,o),
(351,1276,cs),
(359,1340,o),
(395,1376,o),
(475,1376,cs),
(549,1376,o),
(597,1340,o),
(599,1276,cs),
(603,1184,o),
(601,1092,o),
(597,1000,c),
(885,1000,l),
(889,1070,o),
(891,1162,o),
(889,1220,cs),
(877,1506,o),
(759,1620,o),
(475,1620,cs),
(173,1620,o),
(63,1506,o),
(51,1220,cs),
(49,1170,o),
(49,1128,o),
(51,1070,cs),
(57,870,o),
(127,746,o),
(335,692,cs),
(499,650,ls),
(563,634,o),
(589,584,o),
(595,528,cs),
(603,460,o),
(603,394,o),
(595,326,cs),
(587,260,o),
(553,224,o),
(475,224,cs),
(395,224,o),
(355,260,o),
(349,326,cs),
(341,404,o),
(343,502,o),
(349,600,c),
(67,600,l),
(57,536,o),
(57,446,o),
(59,382,cs),
(71,94,o),
(181,-20,o),
(475,-20,cs)
);
}
);
width = 948;
},
{
anchors = (
{
name = bottom;
pos = (257,0);
},
{
name = top;
pos = (257,1600);
}
);
background = {
anchors = (
{
name = bottom;
pos = (257,0);
},
{
name = top;
pos = (257,1600);
}
);
shapes = (
{
closed = 1;
nodes = (
(377,-10,o),
(429,44,o),
(433,176,cs),
(437,318,o),
(437,366,o),
(433,532,cs),
(429,694,o),
(417,776,o),
(297,804,cs),
(223,822,ls),
(135,844,o),
(125,902,o),
(123,1058,cs),
(121,1180,o),
(119,1302,o),
(123,1424,cs),
(127,1528,o),
(161,1570,o),
(257,1570,cs),
(349,1570,o),
(383,1528,o),
(387,1424,cs),
(391,1306,o),
(391,1188,o),
(387,1070,c),
(427,1070,l),
(429,1216,o),
(429,1342,o),
(427,1424,cs),
(423,1556,o),
(375,1610,o),
(259,1610,cs),
(133,1610,o),
(83,1558,o),
(83,1426,cs),
(83,1304,o),
(79,1160,o),
(81,1058,cs),
(85,882,o),
(99,808,o),
(223,778,cs),
(295,760,ls),
(379,738,o),
(391,656,o),
(393,532,cs),
(395,374,o),
(397,314,o),
(393,176,cs),
(389,72,o),
(355,30,o),
(259,30,cs),
(161,30,o),
(125,72,o),
(121,176,cs),
(117,306,o),
(117,436,o),
(121,566,c),
(81,566,l),
(77,408,o),
(77,332,o),
(81,176,cs),
(85,44,o),
(137,-10,o),
(261,-10,cs)
);
}
);
};
layerId = "3D06B89B-468F-44E0-A3D7-A5BC6911123E";
shapes = (
{
closed = 1;
nodes = (
(377,-10,o),
(429,44,o),
(433,176,cs),
(437,318,o),
(437,366,o),
(433,532,cs),
(429,694,o),
(417,776,o),
(297,804,cs),
(223,822,ls),
(135,844,o),
(125,902,o),
(123,1058,cs),
(121,1180,o),
(119,1302,o),
(123,1424,cs),
(127,1528,o),
(161,1570,o),
(257,1570,cs),
(349,1570,o),
(383,1528,o),
(387,1424,cs),
(391,1306,o),
(391,1188,o),
(387,1070,c),
(427,1070,l),
(429,1216,o),
(429,1342,o),
(427,1424,cs),
(423,1556,o),
(375,1610,o),
(259,1610,cs),
(133,1610,o),
(83,1558,o),
(83,1426,cs),
(83,1304,o),
(79,1160,o),
(81,1058,cs),
(85,882,o),
(99,808,o),
(223,778,cs),
(295,760,ls),
(379,738,o),
(391,656,o),
(393,532,cs),
(395,374,o),
(397,314,o),
(393,176,cs),
(389,72,o),
(355,30,o),
(259,30,cs),
(161,30,o),
(125,72,o),
(121,176,cs),
(117,306,o),
(117,436,o),
(121,566,c),
(81,566,l),
(77,408,o),
(77,332,o),
(81,176,cs),
(85,44,o),
(137,-10,o),
(261,-10,cs)
);
}
);
width = 512;
},
{
anchors = (
{
name = bottom;
pos = (320,0);
},
{
name = top;
pos = (320,1600);
}
);
background = {
anchors = (
{
name = bottom;
pos = (320,0);
},
{
name = top;
pos = (320,1600);
}
);
shapes = (
{
closed = 1;
nodes = (
(484,-13,o),
(551,57,o),
(557,228,cs),
(561,346,o),
(561,395,o),
(558,531,cs),
(553,704,o),
(526,798,o),
(380,833,cs),
(289,855,ls),
(206,875,o),
(192,931,o),
(189,1061,cs),
(185,1170,o),
(184,1279,o),
(189,1387,cs),
(194,1481,o),
(228,1522,o),
(320,1522,cs),
(408,1522,o),
(445,1481,o),
(449,1387,cs),
(453,1276,o),
(452,1164,o),
(448,1053,c),
(550,1053,l),
(553,1180,o),
(553,1297,o),
(551,1373,cs),
(545,1544,o),
(480,1613,o),
(322,1613,cs),
(152,1613,o),
(87,1545,o),
(84,1375,cs),
(83,1271,o),
(80,1152,o),
(82,1061,cs),
(87,879,o),
(115,793,o),
(260,757,cs),
(355,733,ls),
(434,712,o),
(449,638,o),
(452,531,cs),
(456,396,o),
(457,334,o),
(452,214,cs),
(447,119,o),
(413,79,o),
(322,79,cs),
(228,79,o),
(191,119,o),
(187,214,cs),
(182,331,o),
(182,453,o),
(187,575,c),
(86,575,l),
(81,440,o),
(81,361,o),
(84,228,cs),
(90,57,o),
(157,-13,o),
(323,-13,cs)
);
}
);
};
layerId = "C9EB94EC-C68D-4931-B320-068DCAB9FADA";
shapes = (
{
closed = 1;
nodes = (
(484,-13,o),
(551,57,o),
(557,228,cs),
(561,346,o),
(561,395,o),
(558,531,cs),
(553,704,o),
(526,798,o),
(380,833,cs),
(289,855,ls),
(206,875,o),
(192,931,o),
(189,1061,cs),
(185,1170,o),
(184,1279,o),
(189,1387,cs),
(194,1481,o),
(228,1522,o),
(320,1522,cs),
(408,1522,o),
(445,1481,o),
(449,1387,cs),
(453,1276,o),
(452,1164,o),
(448,1053,c),
(550,1053,l),
(553,1180,o),
(553,1297,o),
(551,1373,cs),
(545,1544,o),
(480,1613,o),
(322,1613,cs),
(152,1613,o),
(87,1545,o),
(84,1375,cs),
(83,1271,o),
(80,1152,o),
(82,1061,cs),
(87,879,o),
(115,793,o),
(260,757,cs),
(355,733,ls),
(434,712,o),
(449,638,o),
(452,531,cs),
(456,396,o),
(457,334,o),
(452,214,cs),
(447,119,o),
(413,79,o),
(322,79,cs),
(228,79,o),
(191,119,o),
(187,214,cs),
(182,331,o),
(182,453,o),
(187,575,c),
(86,575,l),
(81,440,o),
(81,361,o),
(84,228,cs),
(90,57,o),
(157,-13,o),
(323,-13,cs)
);
}
);
width = 639;
},
{
anchors = (
{
name = bottom;
pos = (383,0);
},
{
name = top;
pos = (383,1600);
}
);
background = {
anchors = (
{
name = bottom;
pos = (383,0);
},
{
name = top;
pos = (383,1600);
}
);
shapes = (
{
closed = 1;
nodes = (
(583,-13,o),
(663,60,o),
(670,243,cs),
(674,331,o),
(674,440,o),
(671,531,cs),
(664,725,o),
(608,806,o),
(428,848,cs),
(332,870,ls),
(258,888,o),
(235,935,o),
(232,1061,cs),
(228,1170,o),
(227,1264,o),
(232,1372,cs),
(237,1465,o),
(275,1495,o),
(383,1495,cs),
(491,1495,o),
(528,1465,o),
(532,1372,cs),
(536,1276,o),
(535,1179,o),
(531,1053,c),
(663,1053,l),
(666,1168,o),
(666,1270,o),
(664,1358,cs),
(658,1541,o),
(578,1613,o),
(385,1613,cs),
(182,1613,o),
(101,1541,o),
(97,1360,cs),
(95,1256,o),
(93,1152,o),
(95,1061,cs),
(100,861,o),
(147,781,o),
(303,742,cs),
(403,718,ls),
(498,693,o),
(532,647,o),
(535,531,cs),
(539,441,o),
(542,319,o),
(535,229,cs),
(529,136,o),
(492,106,o),
(385,106,cs),
(273,106,o),
(234,136,o),
(230,229,cs),
(223,346,o),
(225,453,o),
(230,575,c),
(99,575,l),
(94,449,o),
(94,364,o),
(97,243,cs),
(103,60,o),
(185,-13,o),
(386,-13,cs)
);
}
);
};
layerId = "6F82CFD7-79D5-473B-9D61-BE5DF154BBF2";
shapes = (
{
closed = 1;
nodes = (
(583,-13,o),
(663,60,o),
(670,243,cs),
(674,331,o),
(674,440,o),
(671,531,cs),
(664,725,o),
(608,806,o),
(428,848,cs),
(332,870,ls),
(258,888,o),
(235,935,o),
(232,1061,cs),
(228,1170,o),
(227,1264,o),
(232,1372,cs),
(237,1465,o),
(275,1495,o),
(383,1495,cs),
(491,1495,o),
(528,1465,o),
(532,1372,cs),
(536,1276,o),
(535,1179,o),
(531,1053,c),
(663,1053,l),
(666,1168,o),
(666,1270,o),
(664,1358,cs),
(658,1541,o),
(578,1613,o),
(385,1613,cs),
(182,1613,o),
(101,1541,o),
(97,1360,cs),
(95,1256,o),
(93,1152,o),
(95,1061,cs),
(100,861,o),
(147,781,o),
(303,742,cs),
(403,718,ls),
(498,693,o),
(532,647,o),
(535,531,cs),
(539,441,o),
(542,319,o),
(535,229,cs),
(529,136,o),
(492,106,o),
(385,106,cs),
(273,106,o),
(234,136,o),
(230,229,cs),
(223,346,o),
(225,453,o),
(230,575,c),
(99,575,l),
(94,449,o),
(94,364,o),
(97,243,cs),
(103,60,o),
(185,-13,o),
(386,-13,cs)
);
}
);
width = 767;
}
);
unicode = 83;
},
{
glyphname = Germandbls;
kernLeft = H;
kernRight = B;
layers = (
{
background = {
shapes = (
{
closed = 1;
nodes = (
(160,0,l),
(160,1420,ls),
(160,1502,o),
(190,1526,o),
(296,1526,cs),
(442,1526,l),
(274,818,l),
(274,744,l),
(334,744,ls),
(436,744,o),
(464,710,o),
(468,582,cs),
(472,448,o),
(472,362,o),
(468,226,cs),
(464,124,o),
(432,76,o),
(316,76,cs),
(198,76,l),
(198,0,l),
(316,0,ls),
(478,0,o),
(544,78,o),
(548,226,cs),
(552,382,o),
(552,442,o),
(548,582,cs),
(544,740,o),
(470,810,o),
(358,820,c),
(538,1538,l),
(538,1602,l),
(296,1602,ls),
(142,1602,o),
(80,1548,o),
(80,1420,cs),
(80,0,l)
);
}
);
};
layerId = "3B122060-26E0-4730-9241-82784E6CB359";
shapes = (
{
closed = 1;
nodes = (
(160,0,l),
(160,1420,ls),
(160,1502,o),
(190,1526,o),
(296,1526,cs),
(442,1526,l),
(274,818,l),
(274,744,l),
(334,744,ls),
(436,744,o),
(464,710,o),
(468,582,cs),
(472,448,o),
(472,362,o),
(468,226,cs),
(464,124,o),
(432,76,o),
(316,76,cs),
(198,76,l),
(198,0,l),
(316,0,ls),
(478,0,o),
(544,78,o),
(548,226,cs),
(552,382,o),
(552,442,o),
(548,582,cs),
(544,740,o),
(470,810,o),
(358,820,c),
(538,1538,l),
(538,1602,l),
(296,1602,ls),
(142,1602,o),
(80,1548,o),
(80,1420,cs),
(80,0,l)
);
}
);
width = 630;
},
{
background = {
shapes = (
{
closed = 1;
nodes = (
(380,0,l),
(380,1256,ls),
(380,1320,o),
(426,1356,o),
(502,1356,cs),
(668,1356,l),
(478,904,l),
(482,670,l),
(610,670,ls),
(676,670,o),
(700,604,o),
(706,548,cs),
(714,480,o),
(714,414,o),
(706,346,cs),
(698,280,o),
(664,244,o),
(586,244,cs),
(482,244,l),
(482,0,l),
(586,0,ls),
(882,0,o),
(994,114,o),
(1006,402,cs),
(1008,448,o),
(1010,502,o),
(1008,548,cs),
(1000,734,o),
(944,858,o),
(770,920,c),
(980,1374,l),
(980,1600,l),
(502,1600,ls),
(208,1600,o),
(80,1486,o),
(80,1200,cs),
(80,0,l)
);
}
);
};
layerId = "1DFA7D5B-2E97-4B89-827F-FB43F8066DC1";
shapes = (
{
closed = 1;
nodes = (
(380,0,l),
(380,1256,ls),
(380,1320,o),
(426,1356,o),
(502,1356,cs),
(668,1356,l),
(478,904,l),
(482,670,l),
(610,670,ls),
(676,670,o),
(700,604,o),
(706,548,cs),
(714,480,o),
(714,414,o),
(706,346,cs),
(698,280,o),
(664,244,o),
(586,244,cs),
(482,244,l),
(482,0,l),
(586,0,ls),
(882,0,o),
(994,114,o),
(1006,402,cs),
(1008,448,o),
(1010,502,o),
(1008,548,cs),
(1000,734,o),
(944,858,o),
(770,920,c),
(980,1374,l),
(980,1600,l),
(502,1600,ls),
(208,1600,o),
(80,1486,o),
(80,1200,cs),
(80,0,l)
);
}
);
width = 1088;
},
{
layerId = "5013C991-8699-46CB-BB1C-82E334DBD38B";
shapes = (
{
closed = 1;
nodes = (
(380,0,l),
(380,1256,ls),
(380,1320,o),
(426,1356,o),
(502,1356,cs),
(648,1356,l),
(458,904,l),
(462,670,l),
(590,670,ls),
(656,670,o),
(680,604,o),
(686,548,cs),
(694,480,o),
(694,414,o),
(686,346,cs),
(678,280,o),
(644,244,o),
(566,244,cs),
(462,244,l),
(462,0,l),
(566,0,ls),
(862,0,o),
(974,114,o),
(986,402,cs),
(988,448,o),
(990,502,o),
(988,548,cs),
(980,734,o),
(924,858,o),
(750,920,c),
(960,1374,l),
(960,1600,l),
(502,1600,ls),
(208,1600,o),
(80,1486,o),
(80,1200,cs),
(80,0,l)
);
}
);
width = 1068;
},
{
background = {
shapes = (
{
closed = 1;
nodes = (
(160,0,l),
(160,1418,ls),
(160,1526,o),
(196,1558,o),
(296,1560,cs),
(432,1562,l),
(266,818,l),
(266,780,l),
(314,780,ls),
(406,780,o),
(444,724,o),
(448,582,cs),
(452,448,o),
(452,342,o),
(448,206,cs),
(444,88,o),
(400,40,o),
(296,40,cs),
(198,40,l),
(198,0,l),
(296,0,ls),
(428,0,o),
(484,58,o),
(488,206,cs),
(492,362,o),
(492,442,o),
(488,582,cs),
(484,754,o),
(434,820,o),
(310,820,c),
(478,1572,l),
(478,1602,l),
(296,1600,ls),
(170,1598,o),
(120,1548,o),
(120,1418,cs),
(120,0,l)
);
}
);
};
layerId = "3D06B89B-468F-44E0-A3D7-A5BC6911123E";
shapes = (
{
closed = 1;
nodes = (
(160,0,l),
(160,1418,ls),
(160,1526,o),
(196,1558,o),
(296,1560,cs),
(432,1562,l),
(266,818,l),
(266,780,l),
(314,780,ls),
(406,780,o),
(444,724,o),
(448,582,cs),
(452,448,o),
(452,342,o),
(448,206,cs),
(444,88,o),
(400,40,o),
(296,40,cs),
(198,40,l),
(198,0,l),
(296,0,ls),
(428,0,o),
(484,58,o),
(488,206,cs),
(492,362,o),
(492,442,o),
(488,582,cs),
(484,754,o),
(434,820,o),
(310,820,c),
(478,1572,l),
(478,1602,l),
(296,1600,ls),
(170,1598,o),
(120,1548,o),
(120,1418,cs),
(120,0,l)
);
}
);
width = 618;
},
{
background = {
shapes = (
{
closed = 1;
nodes = (
(215,0,l),
(215,1378,ls),
(215,1475,o),
(254,1508,o),
(348,1509,cs),
(486,1511,l),
(314,840,l),
(315,753,l),
(383,753,ls),
(469,753,o),
(503,694,o),
(508,574,cs),
(513,456,o),
(513,360,o),
(508,241,cs),
(503,136,o),
(461,91,o),
(364,91,cs),
(264,91,l),
(264,0,l),
(364,0,ls),
(537,0,o),
(607,72,o),
(613,255,cs),
(616,384,o),
(617,457,o),
(613,574,cs),
(608,749,o),
(557,830,o),
(420,845,c),
(599,1523,l),
(599,1602,l),
(348,1600,ls),
(180,1599,o),
(110,1533,o),
(110,1364,cs),
(110,0,l)
);
}
);
};
layerId = "C9EB94EC-C68D-4931-B320-068DCAB9FADA";
shapes = (
{
closed = 1;
nodes = (
(215,0,l),
(215,1378,ls),
(215,1475,o),
(254,1508,o),
(348,1509,cs),
(486,1511,l),
(314,840,l),
(315,753,l),
(383,753,ls),
(469,753,o),
(503,694,o),
(508,574,cs),
(513,456,o),
(513,360,o),
(508,241,cs),
(503,136,o),
(461,91,o),
(364,91,cs),
(264,91,l),
(264,0,l),
(364,0,ls),
(537,0,o),
(607,72,o),
(613,255,cs),
(616,384,o),
(617,457,o),
(613,574,cs),
(608,749,o),
(557,830,o),
(420,845,c),
(599,1523,l),
(599,1602,l),
(348,1600,ls),
(180,1599,o),
(110,1533,o),
(110,1364,cs),
(110,0,l)
);
}
);
width = 731;
},
{
background = {
shapes = (
{
closed = 1;
nodes = (
(215,0,l),
(215,1379,ls),
(215,1457,o),
(249,1484,o),
(348,1484,cs),
(499,1484,l),
(325,840,l),
(326,726,l),
(403,726,ls),
(496,726,o),
(523,684,o),
(528,574,cs),
(533,456,o),
(533,375,o),
(528,256,cs),
(523,163,o),
(490,118,o),
(384,118,cs),
(269,118,l),
(269,0,l),
(384,0,ls),
(579,0,o),
(657,87,o),
(663,270,cs),
(666,399,o),
(667,457,o),
(663,574,cs),
(658,739,o),
(589,822,o),
(461,845,c),
(649,1497,l),
(649,1602,l),
(348,1602,ls),
(159,1602,o),
(80,1533,o),
(80,1365,cs),
(80,0,l)
);
}
);
};
layerId = "6F82CFD7-79D5-473B-9D61-BE5DF154BBF2";
shapes = (
{
closed = 1;
nodes = (
(215,0,l),
(215,1379,ls),
(215,1457,o),
(249,1484,o),
(348,1484,cs),
(499,1484,l),
(325,840,l),
(326,726,l),
(403,726,ls),
(496,726,o),
(523,684,o),
(528,574,cs),
(533,456,o),
(533,375,o),
(528,256,cs),
(523,163,o),
(490,118,o),
(384,118,cs),
(269,118,l),
(269,0,l),
(384,0,ls),
(579,0,o),
(657,87,o),
(663,270,cs),
(666,399,o),
(667,457,o),
(663,574,cs),
(658,739,o),
(589,822,o),
(461,845,c),
(649,1497,l),
(649,1602,l),
(348,1602,ls),
(159,1602,o),
(80,1533,o),
(80,1365,cs),
(80,0,l)
);
}
);
width = 745;
}
);
unicode = 7838;
},
{
glyphname = Schwa;
kernLeft = O;
kernRight = O;
layers = (
{
background = {
shapes = (
{
closed = 1;
nodes = (
(500,-10,o),
(562,48,o),
(564,194,cs),
(570,638,o),
(570,956,o),
(564,1402,cs),
(562,1548,o),
(500,1606,o),
(346,1606,cs),
(184,1606,o),
(116,1548,o),
(112,1402,cs),
(108,1262,o),
(110,1172,o),
(114,1032,c),
(194,1032,l),
(192,1162,o),
(190,1272,o),
(192,1402,cs),
(194,1502,o),
(228,1528,o),
(346,1528,cs),
(452,1528,o),
(482,1502,o),
(484,1402,cs),
(488,1164,o),
(492,990,o),
(492,816,c),
(120,816,l),
(118,614,o),
(116,416,o),
(120,194,cs),
(122,48,o),
(188,-10,o),
(348,-10,cs)
);
},
{
closed = 1;
nodes = (
(234,66,o),
(202,94,o),
(200,194,cs),
(194,424,o),
(198,548,o),
(200,740,c),
(492,740,l),
(490,580,o),
(488,412,o),
(484,194,cs),
(482,94,o),
(452,66,o),
(348,66,cs)
);
}
);
};
layerId = "3B122060-26E0-4730-9241-82784E6CB359";
shapes = (
{
closed = 1;
nodes = (
(500,-10,o),
(562,48,o),
(564,194,cs),
(570,638,o),
(570,956,o),
(564,1402,cs),
(562,1548,o),
(500,1606,o),
(346,1606,cs),
(184,1606,o),
(116,1548,o),
(112,1402,cs),
(108,1262,o),
(110,1172,o),
(114,1032,c),
(194,1032,l),
(192,1162,o),
(190,1272,o),
(192,1402,cs),
(194,1502,o),
(228,1528,o),
(346,1528,cs),
(452,1528,o),
(482,1502,o),
(484,1402,cs),
(488,1164,o),
(492,990,o),
(492,816,c),
(120,816,l),
(118,614,o),
(116,416,o),
(120,194,cs),
(122,48,o),
(188,-10,o),
(348,-10,cs)
);
},
{
closed = 1;
nodes = (
(234,66,o),
(202,94,o),
(200,194,cs),
(194,424,o),
(198,548,o),
(200,740,c),
(492,740,l),
(490,580,o),
(488,412,o),
(484,194,cs),
(482,94,o),
(452,66,o),
(348,66,cs)
);
}
);
width = 678;
},
{
background = {
shapes = (
{
closed = 1;
nodes = (
(837,-20,o),
(963,94,o),
(967,378,cs),
(973,680,o),
(973,920,o),
(967,1218,cs),
(961,1506,o),
(835,1620,o),
(525,1620,cs),
(215,1620,o),
(89,1506,o),
(81,1218,cs),
(79,1140,o),
(79,1078,o),
(81,1000,c),
(381,1000,l),
(379,1072,o),
(379,1202,o),
(381,1274,cs),
(383,1340,o),
(435,1376,o),
(525,1376,cs),
(615,1376,o),
(665,1340,o),
(667,1274,cs),
(671,1150,o),
(673,1020,o),
(675,888,c),
(89,888,l),
(87,682,o),
(87,546,o),
(89,380,cs),
(93,94,o),
(217,-20,o),
(525,-20,cs)
);
},
{
closed = 1;
nodes = (
(439,224,o),
(391,260,o),
(389,324,cs),
(385,438,o),
(383,554,o),
(383,682,c),
(675,682,l),
(673,560,o),
(671,440,o),
(667,324,cs),
(665,260,o),
(615,224,o),
(525,224,cs)
);
}
);
};
layerId = "1DFA7D5B-2E97-4B89-827F-FB43F8066DC1";
shapes = (
{
closed = 1;
nodes = (
(837,-20,o),
(963,94,o),
(967,378,cs),
(973,680,o),
(973,920,o),
(967,1218,cs),
(961,1506,o),
(835,1620,o),
(525,1620,cs),
(215,1620,o),
(89,1506,o),
(81,1218,cs),
(79,1140,o),
(79,1078,o),
(81,1000,c),
(381,1000,l),
(379,1072,o),
(379,1202,o),
(381,1274,cs),
(383,1340,o),
(435,1376,o),
(525,1376,cs),
(615,1376,o),
(665,1340,o),
(667,1274,cs),
(671,1150,o),
(673,1020,o),
(675,888,c),
(89,888,l),
(87,682,o),
(87,546,o),
(89,380,cs),
(93,94,o),
(217,-20,o),
(525,-20,cs)
);
},
{
closed = 1;
nodes = (
(439,224,o),
(391,260,o),
(389,324,cs),
(385,438,o),
(383,554,o),
(383,682,c),
(675,682,l),
(673,560,o),
(671,440,o),
(667,324,cs),
(665,260,o),
(615,224,o),
(525,224,cs)
);
}
);
width = 1051;
},
{
layerId = "5013C991-8699-46CB-BB1C-82E334DBD38B";
shapes = (
{
closed = 1;
nodes = (
(789,-20,o),
(913,134,o),
(917,378,cs),
(921,604,o),
(921,996,o),
(917,1218,cs),
(911,1506,o),
(797,1620,o),
(495,1620,cs),
(201,1620,o),
(79,1506,o),
(71,1218,cs),
(69,1154,o),
(69,1064,o),
(71,1000,c),
(371,1000,l),
(369,1072,o),
(369,1202,o),
(371,1274,cs),
(373,1340,o),
(417,1376,o),
(495,1376,cs),
(571,1376,o),
(615,1340,o),
(617,1274,cs),
(621,1160,o),
(623,1026,o),
(625,888,c),
(79,888,l),
(77,682,o),
(77,546,o),
(79,380,cs),
(83,94,o),
(207,-20,o),
(495,-20,cs)
);
},
{
closed = 1;
nodes = (
(423,224,o),
(381,260,o),
(379,324,cs),
(375,438,o),
(373,554,o),
(373,682,c),
(625,682,l),
(623,554,o),
(621,432,o),
(617,324,cs),
(615,260,o),
(571,224,o),
(495,224,cs)
);
}
);
width = 990;
},
{
background = {
shapes = (
{
closed = 1;
nodes = (
(426,-12,o),
(476,42,o),
(478,174,cs),
(486,618,o),
(486,976,o),
(478,1422,cs),
(476,1554,o),
(426,1608,o),
(300,1608,cs),
(166,1608,o),
(110,1554,o),
(106,1422,cs),
(102,1308,o),
(104,1196,o),
(108,1032,c),
(148,1032,l),
(146,1218,o),
(144,1330,o),
(146,1422,cs),
(148,1526,o),
(192,1568,o),
(300,1568,cs),
(396,1568,o),
(436,1526,o),
(438,1422,cs),
(442,1206,o),
(444,1010,o),
(444,816,c),
(114,816,l),
(112,598,o),
(112,414,o),
(114,174,cs),
(116,42,o),
(170,-12,o),
(302,-12,cs)
);
},
{
closed = 1;
nodes = (
(198,28,o),
(156,70,o),
(154,174,cs),
(152,398,o),
(152,574,o),
(154,776,c),
(444,776,l),
(444,582,o),
(442,388,o),
(438,174,cs),
(436,70,o),
(398,28,o),
(302,28,cs)
);
}
);
};
layerId = "3D06B89B-468F-44E0-A3D7-A5BC6911123E";
shapes = (
{
closed = 1;
nodes = (
(426,-12,o),
(476,42,o),
(478,174,cs),
(486,618,o),
(486,976,o),
(478,1422,cs),
(476,1554,o),
(426,1608,o),
(300,1608,cs),
(166,1608,o),
(110,1554,o),
(106,1422,cs),
(102,1308,o),
(104,1196,o),
(108,1032,c),
(148,1032,l),
(146,1218,o),
(144,1330,o),
(146,1422,cs),
(148,1526,o),
(192,1568,o),
(300,1568,cs),
(396,1568,o),
(436,1526,o),
(438,1422,cs),
(442,1206,o),
(444,1010,o),
(444,816,c),
(114,816,l),
(112,598,o),
(112,414,o),
(114,174,cs),
(116,42,o),
(170,-12,o),
(302,-12,cs)
);
},
{
closed = 1;
nodes = (
(198,28,o),
(156,70,o),
(154,174,cs),
(152,398,o),
(152,574,o),
(154,776,c),
(444,776,l),
(444,582,o),
(442,388,o),
(438,174,cs),
(436,70,o),
(398,28,o),
(302,28,cs)
);
}
);
width = 588;
},
{
background = {
shapes = (
{
closed = 1;
nodes = (
(517,-14,o),
(585,65,o),
(588,225,cs),
(595,615,o),
(595,981,o),
(588,1371,cs),
(585,1542,o),
(519,1611,o),
(349,1611,cs),
(175,1611,o),
(102,1542,o),
(97,1371,cs),
(94,1270,o),
(95,1163,o),
(99,1024,c),
(204,1024,l),
(202,1182,o),
(200,1298,o),
(202,1385,cs),
(204,1480,o),
(248,1520,o),
(349,1520,cs),
(440,1520,o),
(481,1480,o),
(483,1385,cs),
(487,1195,o),
(489,1014,o),
(489,834,c),
(105,834,l),
(103,619,o),
(103,447,o),
(105,226,cs),
(108,55,o),
(179,-14,o),
(350,-14,cs)
);
},
{
closed = 1;
nodes = (
(254,77,o),
(212,118,o),
(210,212,cs),
(208,408,o),
(207,569,o),
(209,753,c),
(489,753,l),
(489,575,o),
(487,399,o),
(483,212,cs),
(481,118,o),
(441,77,o),
(350,77,cs)
);
}
);
};
layerId = "C9EB94EC-C68D-4931-B320-068DCAB9FADA";
shapes = (
{
closed = 1;
nodes = (
(517,-14,o),
(585,65,o),
(588,225,cs),
(595,615,o),
(595,981,o),
(588,1371,cs),
(585,1542,o),
(519,1611,o),
(349,1611,cs),
(175,1611,o),
(102,1542,o),
(97,1371,cs),
(94,1270,o),
(95,1163,o),
(99,1024,c),
(204,1024,l),
(202,1182,o),
(200,1298,o),
(202,1385,cs),
(204,1480,o),
(248,1520,o),
(349,1520,cs),
(440,1520,o),
(481,1480,o),
(483,1385,cs),
(487,1195,o),
(489,1014,o),
(489,834,c),
(105,834,l),
(103,619,o),
(103,447,o),
(105,226,cs),
(108,55,o),
(179,-14,o),
(350,-14,cs)
);
},
{
closed = 1;
nodes = (
(254,77,o),
(212,118,o),
(210,212,cs),
(208,408,o),
(207,569,o),
(209,753,c),
(489,753,l),
(489,575,o),
(487,399,o),
(483,212,cs),
(481,118,o),
(441,77,o),
(350,77,cs)
);
}
);
width = 688;
},
{
background = {
shapes = (
{
closed = 1;
nodes = (
(592,-13,o),
(670,60,o),
(672,240,cs),
(678,649,o),
(678,947,o),
(672,1356,cs),
(669,1538,o),
(591,1610,o),
(398,1610,cs),
(199,1610,o),
(117,1538,o),
(112,1356,cs),
(108,1232,o),
(110,1149,o),
(113,1024,c),
(248,1024,l),
(246,1140,o),
(245,1255,o),
(247,1370,cs),
(249,1462,o),
(287,1490,o),
(398,1490,cs),
(500,1490,o),
(535,1462,o),
(537,1370,cs),
(541,1161,o),
(545,998,o),
(545,834,c),
(120,834,l),
(118,631,o),
(116,449,o),
(120,241,cs),
(122,60,o),
(203,-13,o),
(400,-13,cs)
);
},
{
closed = 1;
nodes = (
(293,106,o),
(257,136,o),
(255,227,cs),
(249,428,o),
(252,550,o),
(253,726,c),
(545,726,l),
(543,575,o),
(541,419,o),
(537,227,cs),
(535,136,o),
(500,106,o),
(400,106,cs)
);
}
);
};
layerId = "6F82CFD7-79D5-473B-9D61-BE5DF154BBF2";
shapes = (
{
closed = 1;
nodes = (
(592,-13,o),
(670,60,o),
(672,240,cs),
(678,649,o),
(678,947,o),
(672,1356,cs),
(669,1538,o),
(591,1610,o),
(398,1610,cs),
(199,1610,o),
(117,1538,o),
(112,1356,cs),
(108,1232,o),
(110,1149,o),
(113,1024,c),
(248,1024,l),
(246,1140,o),
(245,1255,o),
(247,1370,cs),
(249,1462,o),
(287,1490,o),
(398,1490,cs),
(500,1490,o),
(535,1462,o),
(537,1370,cs),
(541,1161,o),
(545,998,o),
(545,834,c),
(120,834,l),
(118,631,o),
(116,449,o),
(120,241,cs),
(122,60,o),
(203,-13,o),
(400,-13,cs)
);
},
{
closed = 1;
nodes = (
(293,106,o),
(257,136,o),
(255,227,cs),
(249,428,o),
(252,550,o),
(253,726,c),
(545,726,l),
(543,575,o),
(541,419,o),
(537,227,cs),
(535,136,o),
(500,106,o),
(400,106,cs)
);
}
);
width = 786;
}
);
metricLeft = O;
metricRight = O;
unicode = 399;
},
{
glyphname = T;
kernLeft = T;
kernRight = T;
layers = (
{
anchors = (
{
name = bottom;
pos = (284,0);
},
{
name = center;
pos = (284,800);
},
{
name = top;
pos = (284,1600);
}
);
background = {
anchors = (
{
name = bottom;
pos = (284,0);
},
{
name = center;
pos = (284,800);
},
{
name = top;
pos = (284,1600);
}
);
shapes = (
{
closed = 1;
nodes = (
(324,0,l),
(324,1524,l),
(548,1524,l),
(548,1600,l),
(20,1600,l),
(20,1524,l),
(244,1524,l),
(244,0,l)
);
}
);
};
layerId = "3B122060-26E0-4730-9241-82784E6CB359";
shapes = (
{
closed = 1;
nodes = (
(324,0,l),
(324,1524,l),
(548,1524,l),
(548,1600,l),
(20,1600,l),
(20,1524,l),
(244,1524,l),
(244,0,l)
);
}
);
width = 568;
},
{
anchors = (
{
name = bottom;
pos = (438,0);
},
{
name = center;
pos = (438,731);
},
{
name = top;
pos = (438,1600);
}
);
background = {
anchors = (
{
name = bottom;
pos = (438,0);
},
{
name = center;
pos = (438,800);
},
{
name = top;
pos = (438,1600);
}
);
shapes = (
{
closed = 1;
nodes = (
(588,0,l),
(588,1336,l),
(864,1336,l),
(864,1600,l),
(10,1600,l),
(10,1336,l),
(288,1336,l),
(288,0,l)
);
}
);
};
layerId = "1DFA7D5B-2E97-4B89-827F-FB43F8066DC1";
shapes = (
{
closed = 1;
nodes = (
(587,0,l),
(587,1336,l),
(864,1336,l),
(864,1600,l),
(10,1600,l),
(10,1336,l),
(287,1336,l),
(287,0,l)
);
}
);
width = 874;
},
{
anchors = (
{
name = bottom;
pos = (420,0);
},
{
name = center;
pos = (420,710);
},
{
name = top;
pos = (420,1600);
}
);
layerId = "5013C991-8699-46CB-BB1C-82E334DBD38B";
shapes = (
{
closed = 1;
nodes = (
(569,0,l),
(569,1336,l),
(826,1336,l),
(826,1600,l),
(12,1600,l),
(12,1336,l),
(269,1336,l),
(269,0,l)
);
}
);
width = 838;
},
{
anchors = (
{
name = bottom;
pos = (212,0);
},
{
name = center;
pos = (214,800);
},
{
name = top;
pos = (214,1600);
}
);
background = {
anchors = (
{
name = bottom;
pos = (212,0);
},
{
name = center;
pos = (214,800);
},
{
name = top;
pos = (214,1600);
}
);
shapes = (
{
closed = 1;
nodes = (
(234,0,l),
(234,1560,l),
(408,1560,l),
(408,1600,l),
(20,1600,l),
(20,1560,l),
(194,1560,l),
(194,0,l)
);
}
);
};
layerId = "3D06B89B-468F-44E0-A3D7-A5BC6911123E";
shapes = (
{
closed = 1;
nodes = (
(234,0,l),
(234,1560,l),
(408,1560,l),
(408,1600,l),
(20,1600,l),
(20,1560,l),
(194,1560,l),
(194,0,l)
);
}
);
width = 428;
},
{
anchors = (
{
name = bottom;
pos = (256,0);
},
{
name = center;
pos = (258,760);
},
{
name = top;
pos = (258,1600);
}
);
background = {
anchors = (
{
name = bottom;
pos = (256,0);
},
{
name = center;
pos = (258,800);
},
{
name = top;
pos = (258,1600);
}
);
shapes = (
{
closed = 1;
nodes = (
(310,0,l),
(310,1504,l),
(505,1504,l),
(505,1600,l),
(10,1600,l),
(10,1504,l),
(205,1504,l),
(205,0,l)
);
}
);
};
layerId = "C9EB94EC-C68D-4931-B320-068DCAB9FADA";
shapes = (
{
closed = 1;
nodes = (
(310,0,l),
(310,1504,l),
(505,1504,l),
(505,1600,l),
(10,1600,l),
(10,1504,l),
(205,1504,l),
(205,0,l)
);
}
);
width = 515;
},
{
anchors = (
{
name = bottom;
pos = (320,0);
},
{
name = center;
pos = (320,770);
},
{
name = top;
pos = (320,1600);
}
);
background = {
anchors = (
{
name = bottom;
pos = (320,0);
},
{
name = center;
pos = (320,800);
},
{
name = top;
pos = (320,1600);
}
);
shapes = (
{
closed = 1;
nodes = (
(388,0,l),
(388,1477,l),
(625,1477,l),
(625,1600,l),
(15,1600,l),
(15,1477,l),
(253,1477,l),
(253,0,l)
);
}
);
};
layerId = "6F82CFD7-79D5-473B-9D61-BE5DF154BBF2";
shapes = (
{
closed = 1;
nodes = (
(388,0,l),
(388,1477,l),
(625,1477,l),
(625,1600,l),
(15,1600,l),
(15,1477,l),
(253,1477,l),
(253,0,l)
);
}
);
width = 640;
}
);
unicode = 84;
},
{
glyphname = Tbar;
kernLeft = T;
kernRight = T;
layers = (
{
background = {
shapes = (
{
closed = 1;
nodes = (
(444,670,l),
(444,746,l),
(204,746,l),
(204,670,l)
);
},
{
closed = 1;
nodes = (
(399,670,l),
(399,746,l),
(159,746,l),
(159,670,l)
);
},
{
ref = T;
}
);
};
layerId = "3B122060-26E0-4730-9241-82784E6CB359";
shapes = (
{
ref = T;
},
{
pos = (0,14);
ref = strokeshortcomb;
}
);
width = 568;
},
{
background = {
shapes = (
{
closed = 1;
nodes = (
(748,610,l),
(748,754,l),
(188,754,l),
(188,610,l)
);
},
{
ref = T;
}
);
};
layerId = "1DFA7D5B-2E97-4B89-827F-FB43F8066DC1";
shapes = (
{
ref = T;
},
{
pos = (60,21);
ref = strokeshortcomb;
}
);
width = 874;
},
{
background = {
shapes = (
{
closed = 1;
nodes = (
(711,610,l),
(711,754,l),
(151,754,l),
(151,610,l)
);
}
);
};
layerId = "5013C991-8699-46CB-BB1C-82E334DBD38B";
shapes = (
{
ref = T;
},
{
pos = (62,0);
ref = strokeshortcomb;
}
);
width = 838;
},
{
background = {
shapes = (
{
closed = 1;
nodes = (
(354,688,l),
(354,728,l),
(114,728,l),
(114,688,l)
);
},
{
ref = T;
}
);
};
layerId = "3D06B89B-468F-44E0-A3D7-A5BC6911123E";
shapes = (
{
ref = T;
},
{
pos = (-26,0);
ref = strokeshortcomb;
}
);
width = 428;
},
{
background = {
shapes = (
{
closed = 1;
nodes = (
(448,669,l),
(448,735,l),
(128,735,l),
(128,669,l)
);
},
{
alignment = -1;
ref = T;
}
);
};
layerId = "C9EB94EC-C68D-4931-B320-068DCAB9FADA";
shapes = (
{
ref = T;
},
{
pos = (-12,-18);
ref = strokeshortcomb;
}
);
width = 515;
},
{
background = {
shapes = (
{
closed = 1;
nodes = (
(520,655,l),
(520,748,l),
(200,748,l),
(200,655,l)
);
},
{
alignment = -1;
ref = T;
}
);
};
layerId = "6F82CFD7-79D5-473B-9D61-BE5DF154BBF2";
shapes = (
{
ref = T;
},
{
pos = (12,3);
ref = strokeshortcomb;
}
);
width = 640;
}
);
metricLeft = T;
metricRight = T;
unicode = 358;
},
{
glyphname = U;
kernLeft = U;
kernRight = U;
layers = (
{
anchors = (
{
name = bottom;
pos = (358,0);
},
{
name = ogonek;
pos = (480,28);
},
{
name = top;
pos = (358,1600);
},
{
name = topright;
pos = (580,1860);
}
);
background = {
anchors = (
{
name = bottom;
pos = (358,0);
},
{
name = ogonek;
pos = (480,28);
},
{
name = top;
pos = (358,1600);
},
{
name = topright;
pos = (632,1600);
}
);
shapes = (
{
closed = 1;
nodes = (
(522,-10,o),
(588,48,o),
(590,190,cs),
(596,668,o),
(594,1122,o),
(590,1600,c),
(510,1600,l),
(514,1122,o),
(510,668,o),
(510,190,cs),
(510,96,o),
(478,70,o),
(358,70,cs),
(238,70,o),
(204,96,o),
(204,190,cs),
(204,668,o),
(202,1122,o),
(206,1600,c),
(126,1600,l),
(122,1122,o),
(120,668,o),
(126,190,cs),
(128,48,o),
(194,-10,o),
(358,-10,cs)
);
}
);
};
layerId = "3B122060-26E0-4730-9241-82784E6CB359";
shapes = (
{
closed = 1;
nodes = (
(522,-10,o),
(588,48,o),
(590,190,cs),
(596,668,o),
(594,1122,o),
(590,1600,c),
(510,1600,l),
(514,1122,o),
(510,668,o),
(510,190,cs),
(510,96,o),
(478,70,o),
(358,70,cs),
(238,70,o),
(204,96,o),
(204,190,cs),
(204,668,o),
(202,1122,o),
(206,1600,c),
(126,1600,l),
(122,1122,o),
(120,668,o),
(126,190,cs),
(128,48,o),
(194,-10,o),
(358,-10,cs)
);
}
);
width = 716;
},
{
anchors = (
{
name = bottom;
pos = (528,0);
},
{
name = ogonek;
pos = (726,40);
},
{
name = top;
pos = (528,1600);
},
{
name = topright;
pos = (864,1960);
}
);
background = {
anchors = (
{
name = bottom;
pos = (528,0);
},
{
name = ogonek;
pos = (726,40);
},
{
name = top;
pos = (528,1600);
},
{
name = topright;
pos = (990,1600);
}
);
shapes = (
{
closed = 1;
nodes = (
(838,-20,o),
(964,94,o),
(968,382,cs),
(974,784,o),
(974,1198,o),
(968,1600,c),
(668,1600,l),
(676,1198,o),
(672,748,o),
(668,346,cs),
(668,268,o),
(618,224,o),
(528,224,cs),
(436,224,o),
(386,268,o),
(386,346,cs),
(382,748,o),
(378,1198,o),
(386,1600,c),
(86,1600,l),
(80,1198,o),
(80,784,o),
(86,382,cs),
(90,94,o),
(216,-20,o),
(528,-20,cs)
);
}
);
};
layerId = "1DFA7D5B-2E97-4B89-827F-FB43F8066DC1";
shapes = (
{
closed = 1;
nodes = (
(838,-20,o),
(964,94,o),
(968,382,cs),
(974,784,o),
(974,1198,o),
(968,1600,c),
(668,1600,l),
(676,1198,o),
(672,748,o),
(668,346,cs),
(668,268,o),
(618,224,o),
(528,224,cs),
(436,224,o),
(386,268,o),
(386,346,cs),
(382,748,o),
(378,1198,o),
(386,1600,c),
(86,1600,l),
(80,1198,o),
(80,784,o),
(86,382,cs),
(90,94,o),
(216,-20,o),
(528,-20,cs)
);
}
);
width = 1054;
},
{
anchors = (
{
name = bottom;
pos = (488,0);
},
{
name = ogonek;
pos = (604,6);
},
{
name = top;
pos = (488,1600);
},
{
name = topright;
pos = (800,1960);
}
);
layerId = "5013C991-8699-46CB-BB1C-82E334DBD38B";
shapes = (
{
closed = 1;
nodes = (
(786,-20,o),
(904,94,o),
(908,382,cs),
(914,784,o),
(914,1198,o),
(908,1600,c),
(608,1600,l),
(616,1198,o),
(612,728,o),
(608,326,cs),
(608,260,o),
(566,224,o),
(488,224,cs),
(410,224,o),
(366,260,o),
(366,326,cs),
(362,728,o),
(358,1198,o),
(366,1600,c),
(66,1600,l),
(60,1198,o),
(60,784,o),
(66,382,cs),
(70,94,o),
(188,-20,o),
(488,-20,cs)
);
}
);
width = 974;
},
{
anchors = (
{
name = bottom;
pos = (277,0);
},
{
name = ogonek;
pos = (373,20);
},
{
name = top;
pos = (277,1600);
},
{
name = topright;
pos = (453,1842);
}
);
background = {
anchors = (
{
name = bottom;
pos = (277,0);
},
{
name = ogonek;
pos = (373,20);
},
{
name = top;
pos = (277,1600);
},
{
name = topright;
pos = (491,1600);
}
);
shapes = (
{
closed = 1;
nodes = (
(397,-10,o),
(447,42,o),
(449,170,cs),
(453,648,o),
(453,1122,o),
(449,1600,c),
(409,1600,l),
(413,1122,o),
(413,648,o),
(409,170,cs),
(409,70,o),
(371,30,o),
(277,30,cs),
(183,30,o),
(143,70,o),
(143,170,cs),
(139,648,o),
(141,1122,o),
(145,1600,c),
(105,1600,l),
(101,1122,o),
(101,648,o),
(105,170,cs),
(107,42,o),
(157,-10,o),
(277,-10,cs)
);
}
);
};
layerId = "3D06B89B-468F-44E0-A3D7-A5BC6911123E";
shapes = (
{
closed = 1;
nodes = (
(397,-10,o),
(447,42,o),
(449,170,cs),
(453,648,o),
(453,1122,o),
(449,1600,c),
(409,1600,l),
(413,1122,o),
(413,648,o),
(409,170,cs),
(409,70,o),
(371,30,o),
(277,30,cs),
(183,30,o),
(143,70,o),
(143,170,cs),
(139,648,o),
(141,1122,o),
(145,1600,c),
(105,1600,l),
(101,1122,o),
(101,648,o),
(105,170,cs),
(107,42,o),
(157,-10,o),
(277,-10,cs)
);
}
);
width = 554;
},
{
anchors = (
{
name = bottom;
pos = (330,0);
},
{
name = ogonek;
pos = (431,17);
},
{
name = top;
pos = (330,1600);
},
{
name = topright;
pos = (566,1860);
}
);
background = {
anchors = (
{
name = bottom;
pos = (330,0);
},
{
name = ogonek;
pos = (431,17);
},
{
name = top;
pos = (330,1600);
},
{
name = topright;
pos = (606,1600);
}
);
shapes = (
{
closed = 1;
nodes = (
(495,-13,o),
(562,55,o),
(564,223,cs),
(569,682,o),
(569,1141,o),
(564,1600,c),
(459,1600,l),
(464,1141,o),
(463,668,o),
(459,209,cs),
(459,118,o),
(420,79,o),
(330,79,cs),
(240,79,o),
(199,118,o),
(199,209,cs),
(195,668,o),
(196,1141,o),
(201,1600,c),
(96,1600,l),
(91,1141,o),
(91,682,o),
(96,223,cs),
(98,55,o),
(165,-13,o),
(330,-13,cs)
);
}
);
};
layerId = "C9EB94EC-C68D-4931-B320-068DCAB9FADA";
shapes = (
{
closed = 1;
nodes = (
(495,-13,o),
(562,55,o),
(564,223,cs),
(569,682,o),
(569,1141,o),
(564,1600,c),
(459,1600,l),
(464,1141,o),
(463,668,o),
(459,209,cs),
(459,118,o),
(420,79,o),
(330,79,cs),
(240,79,o),
(199,118,o),
(199,209,cs),
(195,668,o),
(196,1141,o),
(201,1600,c),
(96,1600,l),
(91,1141,o),
(91,682,o),
(96,223,cs),
(98,55,o),
(165,-13,o),
(330,-13,cs)
);
}
);
width = 660;
},
{
anchors = (
{
name = bottom;
pos = (395,0);
},
{
name = ogonek;
pos = (536,31);
},
{
name = top;
pos = (395,1600);
},
{
name = topright;
pos = (650,1860);
}
);
background = {
anchors = (
{
name = bottom;
pos = (395,0);
},
{
name = ogonek;
pos = (536,31);
},
{
name = top;
pos = (395,1600);
},
{
name = topright;
pos = (716,1600);
}
);
shapes = (
{
closed = 1;
nodes = (
(596,-13,o),
(677,60,o),
(679,238,cs),
(685,697,o),
(684,1141,o),
(679,1600,c),
(544,1600,l),
(549,1141,o),
(545,688,o),
(544,229,cs),
(544,139,o),
(508,109,o),
(395,109,cs),
(282,109,o),
(244,139,o),
(244,229,cs),
(243,688,o),
(241,1141,o),
(246,1600,c),
(111,1600,l),
(106,1141,o),
(105,697,o),
(111,238,cs),
(113,60,o),
(194,-13,o),
(395,-13,cs)
);
}
);
};
layerId = "6F82CFD7-79D5-473B-9D61-BE5DF154BBF2";
shapes = (
{
closed = 1;
nodes = (
(596,-13,o),
(677,60,o),
(679,238,cs),
(685,697,o),
(684,1141,o),
(679,1600,c),
(544,1600,l),
(549,1141,o),
(545,688,o),
(544,229,cs),
(544,139,o),
(508,109,o),
(395,109,cs),
(282,109,o),
(244,139,o),
(244,229,cs),
(243,688,o),
(241,1141,o),
(246,1600,c),
(111,1600,l),
(106,1141,o),
(105,697,o),
(111,238,cs),
(113,60,o),
(194,-13,o),
(395,-13,cs)
);
}
);
width = 790;
}
);
metricLeft = "=H-18";
metricRight = "=H-18";
unicode = 85;
},
{
glyphname = V;
kernLeft = V;
kernRight = V;
layers = (
{
background = {
shapes = (
{
closed = 1;
nodes = (
(440,0,l),
(588,1600,l),
(504,1600,l),
(420,660,l),
(368,76,l),
(300,76,l),
(248,660,l),
(164,1600,l),
(80,1600,l),
(228,0,l)
);
}
);
};
layerId = "3B122060-26E0-4730-9241-82784E6CB359";
shapes = (
{
closed = 1;
nodes = (
(440,0,l),
(588,1600,l),
(504,1600,l),
(420,660,l),
(368,76,l),
(300,76,l),
(248,660,l),
(164,1600,l),
(80,1600,l),
(228,0,l)
);
}
);
width = 668;
},
{
background = {
shapes = (
{
closed = 1;
nodes = (
(786,0,l),
(1018,1600,l),
(708,1600,l),
(590,798,l),
(572,264,l),
(476,264,l),
(458,798,l),
(340,1600,l),
(30,1600,l),
(262,0,l)
);
}
);
};
layerId = "1DFA7D5B-2E97-4B89-827F-FB43F8066DC1";
shapes = (
{
closed = 1;
nodes = (
(786,0,l),
(1018,1600,l),
(708,1600,l),
(590,798,l),
(572,264,l),
(476,264,l),
(458,798,l),
(340,1600,l),
(30,1600,l),
(262,0,l)
);
}
);
width = 1048;
},
{
layerId = "5013C991-8699-46CB-BB1C-82E334DBD38B";
shapes = (
{
closed = 1;
nodes = (
(736,0,l),
(968,1600,l),
(658,1600,l),
(540,798,l),
(522,264,l),
(466,264,l),
(448,798,l),
(330,1600,l),
(20,1600,l),
(252,0,l)
);
}
);
width = 988;
},
{
background = {
shapes = (
{
closed = 1;
nodes = (
(305,0,l),
(453,1600,l),
(409,1600,l),
(325,660,l),
(271,40,l),
(247,40,l),
(193,660,l),
(109,1600,l),
(65,1600,l),
(213,0,l)
);
}
);
};
layerId = "3D06B89B-468F-44E0-A3D7-A5BC6911123E";
shapes = (
{
closed = 1;
nodes = (
(305,0,l),
(453,1600,l),
(409,1600,l),
(325,660,l),
(271,40,l),
(247,40,l),
(193,660,l),
(109,1600,l),
(65,1600,l),
(213,0,l)
);
}
);
width = 518;
},
{
background = {
shapes = (
{
closed = 1;
nodes = (
(414,0,l),
(584,1600,l),
(472,1600,l),
(380,694,l),
(336,96,l),
(302,96,l),
(258,694,l),
(166,1600,l),
(56,1600,l),
(224,0,l)
);
}
);
};
layerId = "C9EB94EC-C68D-4931-B320-068DCAB9FADA";
shapes = (
{
closed = 1;
nodes = (
(424,0,l),
(584,1600,l),
(472,1600,l),
(390,694,l),
(346,96,l),
(292,96,l),
(248,694,l),
(166,1600,l),
(56,1600,l),
(214,0,l)
);
}
);
width = 638;
},
{
background = {
shapes = (
{
closed = 1;
nodes = (
(518,0,l),
(688,1600,l),
(546,1600,l),
(454,694,l),
(412,124,l),
(334,124,l),
(292,694,l),
(200,1600,l),
(60,1600,l),
(228,0,l)
);
}
);
};
layerId = "6F82CFD7-79D5-473B-9D61-BE5DF154BBF2";
shapes = (
{
closed = 1;
nodes = (
(518,0,l),
(688,1600,l),
(546,1600,l),
(454,694,l),
(412,124,l),
(334,124,l),
(292,694,l),
(200,1600,l),
(60,1600,l),
(228,0,l)
);
}
);
width = 748;
}
);
unicode = 86;
},
